%
M48
M72
T01C0.01378
T02C0.03200
T03C0.06299
T04C0.07480
T05C0.07874
T06C0.10630
T07C0.12598
%
T01
X13311Y241657
X25122Y200319
X17248Y155043
X25122Y101894
X56618Y54650
X58587Y25122
X82209Y80240
X70398Y115673
X99925Y115673
X111736Y64492
X97957Y9374
X92051Y204256
X86146Y257406
X86146Y286933
X72366Y296776
X66461Y282996
X101894Y306618
X137327Y249531
X149138Y216067
T02
X51618Y292839
X61618Y292839
T03
X38902Y260358
X38902Y207209
X38902Y185555
X38902Y132406
X38902Y110752
X38902Y57602
T04
X97524Y36579
X97524Y58232
X97524Y74768
X97524Y96421
X97957Y129059
X97957Y150713
X97957Y167248
X97957Y188902
X97957Y223547
X97957Y245201
X97957Y261736
X97957Y283390
T05
X130555Y158626
X150555Y158626
T06
X62524Y70004
X62524Y98350
X62524Y144807
X62524Y173154
X62524Y219610
X62524Y247957
T07
X25122Y25122
X139295Y292839
X25122Y292839
X139295Y25122
M30
