G75*
%MOIN*%
%OFA0B0*%
%FSLAX25Y25*%
%IPPOS*%
%LPD*%
%AMOC8*
5,1,8,0,0,1.08239X$1,22.5*
%
%ADD10C,0.00000*%
%ADD11C,0.00984*%
D10*
X0001500Y0025122D02*
X0001500Y0292839D01*
X0001507Y0293410D01*
X0001528Y0293980D01*
X0001562Y0294550D01*
X0001610Y0295119D01*
X0001672Y0295686D01*
X0001748Y0296252D01*
X0001837Y0296816D01*
X0001940Y0297377D01*
X0002057Y0297936D01*
X0002186Y0298492D01*
X0002330Y0299045D01*
X0002486Y0299594D01*
X0002656Y0300139D01*
X0002839Y0300679D01*
X0003035Y0301215D01*
X0003244Y0301747D01*
X0003466Y0302273D01*
X0003700Y0302793D01*
X0003947Y0303308D01*
X0004206Y0303817D01*
X0004477Y0304319D01*
X0004761Y0304814D01*
X0005056Y0305303D01*
X0005363Y0305784D01*
X0005681Y0306258D01*
X0006011Y0306724D01*
X0006352Y0307181D01*
X0006705Y0307631D01*
X0007067Y0308071D01*
X0007441Y0308503D01*
X0007824Y0308926D01*
X0008218Y0309339D01*
X0008622Y0309743D01*
X0009035Y0310137D01*
X0009458Y0310520D01*
X0009890Y0310894D01*
X0010330Y0311256D01*
X0010780Y0311609D01*
X0011237Y0311950D01*
X0011703Y0312280D01*
X0012177Y0312598D01*
X0012658Y0312905D01*
X0013147Y0313200D01*
X0013642Y0313484D01*
X0014144Y0313755D01*
X0014653Y0314014D01*
X0015168Y0314261D01*
X0015688Y0314495D01*
X0016214Y0314717D01*
X0016746Y0314926D01*
X0017282Y0315122D01*
X0017822Y0315305D01*
X0018367Y0315475D01*
X0018916Y0315631D01*
X0019469Y0315775D01*
X0020025Y0315904D01*
X0020584Y0316021D01*
X0021145Y0316124D01*
X0021709Y0316213D01*
X0022275Y0316289D01*
X0022842Y0316351D01*
X0023411Y0316399D01*
X0023981Y0316433D01*
X0024551Y0316454D01*
X0025122Y0316461D01*
X0139295Y0316461D01*
X0139295Y0316460D02*
X0139890Y0316429D01*
X0140483Y0316384D01*
X0141075Y0316324D01*
X0141666Y0316250D01*
X0142254Y0316162D01*
X0142840Y0316060D01*
X0143424Y0315943D01*
X0144004Y0315813D01*
X0144582Y0315668D01*
X0145155Y0315510D01*
X0145725Y0315337D01*
X0146290Y0315151D01*
X0146851Y0314952D01*
X0147406Y0314739D01*
X0147957Y0314512D01*
X0148502Y0314273D01*
X0149040Y0314020D01*
X0149573Y0313754D01*
X0150099Y0313476D01*
X0150618Y0313184D01*
X0151129Y0312881D01*
X0151634Y0312565D01*
X0152130Y0312237D01*
X0152619Y0311897D01*
X0153099Y0311545D01*
X0153571Y0311182D01*
X0154033Y0310808D01*
X0154487Y0310423D01*
X0154930Y0310026D01*
X0155365Y0309619D01*
X0155789Y0309202D01*
X0156203Y0308775D01*
X0156607Y0308337D01*
X0157000Y0307891D01*
X0157382Y0307434D01*
X0157753Y0306969D01*
X0158112Y0306495D01*
X0158460Y0306012D01*
X0158796Y0305521D01*
X0159121Y0305022D01*
X0159433Y0304515D01*
X0159733Y0304001D01*
X0160020Y0303480D01*
X0160294Y0302952D01*
X0160556Y0302418D01*
X0160805Y0301877D01*
X0161041Y0301331D01*
X0161263Y0300779D01*
X0161472Y0300221D01*
X0161667Y0299659D01*
X0161849Y0299093D01*
X0162017Y0298522D01*
X0162171Y0297947D01*
X0162312Y0297369D01*
X0162438Y0296787D01*
X0162550Y0296203D01*
X0162648Y0295616D01*
X0162732Y0295026D01*
X0162801Y0294435D01*
X0162857Y0293843D01*
X0162897Y0293249D01*
X0162924Y0292655D01*
X0162936Y0292060D01*
X0162934Y0291465D01*
X0162917Y0290870D01*
X0162917Y0023154D01*
X0162918Y0023154D02*
X0162887Y0022607D01*
X0162844Y0022061D01*
X0162787Y0021517D01*
X0162717Y0020974D01*
X0162634Y0020432D01*
X0162538Y0019893D01*
X0162429Y0019357D01*
X0162307Y0018823D01*
X0162172Y0018292D01*
X0162024Y0017765D01*
X0161864Y0017241D01*
X0161691Y0016722D01*
X0161506Y0016207D01*
X0161308Y0015696D01*
X0161098Y0015190D01*
X0160875Y0014690D01*
X0160641Y0014195D01*
X0160395Y0013706D01*
X0160137Y0013223D01*
X0159867Y0012746D01*
X0159586Y0012276D01*
X0159294Y0011813D01*
X0158991Y0011357D01*
X0158676Y0010909D01*
X0158351Y0010468D01*
X0158016Y0010036D01*
X0157670Y0009611D01*
X0157314Y0009195D01*
X0156948Y0008788D01*
X0156572Y0008390D01*
X0156187Y0008001D01*
X0155792Y0007621D01*
X0155388Y0007251D01*
X0154976Y0006891D01*
X0154555Y0006541D01*
X0154125Y0006201D01*
X0153688Y0005872D01*
X0153243Y0005553D01*
X0152790Y0005245D01*
X0152330Y0004948D01*
X0151862Y0004663D01*
X0151388Y0004389D01*
X0150908Y0004126D01*
X0150421Y0003875D01*
X0149929Y0003636D01*
X0149430Y0003409D01*
X0148927Y0003194D01*
X0148418Y0002991D01*
X0147905Y0002800D01*
X0147387Y0002622D01*
X0146865Y0002457D01*
X0146339Y0002304D01*
X0145810Y0002164D01*
X0145277Y0002037D01*
X0144742Y0001923D01*
X0144204Y0001821D01*
X0143663Y0001733D01*
X0143121Y0001658D01*
X0142577Y0001596D01*
X0142032Y0001547D01*
X0141485Y0001511D01*
X0140938Y0001489D01*
X0140391Y0001479D01*
X0139843Y0001483D01*
X0139296Y0001500D01*
X0139295Y0001500D02*
X0025122Y0001500D01*
X0024551Y0001507D01*
X0023981Y0001528D01*
X0023411Y0001562D01*
X0022842Y0001610D01*
X0022275Y0001672D01*
X0021709Y0001748D01*
X0021145Y0001837D01*
X0020584Y0001940D01*
X0020025Y0002057D01*
X0019469Y0002186D01*
X0018916Y0002330D01*
X0018367Y0002486D01*
X0017822Y0002656D01*
X0017282Y0002839D01*
X0016746Y0003035D01*
X0016214Y0003244D01*
X0015688Y0003466D01*
X0015168Y0003700D01*
X0014653Y0003947D01*
X0014144Y0004206D01*
X0013642Y0004477D01*
X0013147Y0004761D01*
X0012658Y0005056D01*
X0012177Y0005363D01*
X0011703Y0005681D01*
X0011237Y0006011D01*
X0010780Y0006352D01*
X0010330Y0006705D01*
X0009890Y0007067D01*
X0009458Y0007441D01*
X0009035Y0007824D01*
X0008622Y0008218D01*
X0008218Y0008622D01*
X0007824Y0009035D01*
X0007441Y0009458D01*
X0007067Y0009890D01*
X0006705Y0010330D01*
X0006352Y0010780D01*
X0006011Y0011237D01*
X0005681Y0011703D01*
X0005363Y0012177D01*
X0005056Y0012658D01*
X0004761Y0013147D01*
X0004477Y0013642D01*
X0004206Y0014144D01*
X0003947Y0014653D01*
X0003700Y0015168D01*
X0003466Y0015688D01*
X0003244Y0016214D01*
X0003035Y0016746D01*
X0002839Y0017282D01*
X0002656Y0017822D01*
X0002486Y0018367D01*
X0002330Y0018916D01*
X0002186Y0019469D01*
X0002057Y0020025D01*
X0001940Y0020584D01*
X0001837Y0021145D01*
X0001748Y0021709D01*
X0001672Y0022275D01*
X0001610Y0022842D01*
X0001562Y0023411D01*
X0001528Y0023981D01*
X0001507Y0024551D01*
X0001500Y0025122D01*
D11*
X0051796Y0284669D02*
X0054748Y0284669D01*
X0054748Y0281323D01*
X0051796Y0281323D01*
X0051796Y0284669D01*
X0051796Y0282258D02*
X0054748Y0282258D01*
X0054748Y0283193D02*
X0051796Y0283193D01*
X0051796Y0284128D02*
X0054748Y0284128D01*
X0058489Y0284669D02*
X0061441Y0284669D01*
X0061441Y0281323D01*
X0058489Y0281323D01*
X0058489Y0284669D01*
X0058489Y0282258D02*
X0061441Y0282258D01*
X0061441Y0283193D02*
X0058489Y0283193D01*
X0058489Y0284128D02*
X0061441Y0284128D01*
M02*
