G75*
%MOIN*%
%OFA0B0*%
%FSLAX25Y25*%
%IPPOS*%
%LPD*%
%AMOC8*
5,1,8,0,0,1.08239X$1,22.5*
%
%ADD10C,0.00000*%
%ADD11OC8,0.04800*%
%ADD12C,0.11220*%
%ADD13C,0.23000*%
%ADD14C,0.11811*%
%ADD15C,0.00984*%
%ADD16C,0.09449*%
%ADD17C,0.14630*%
%ADD18C,0.01200*%
%ADD19C,0.01000*%
%ADD20C,0.02578*%
D10*
X0001500Y0025122D02*
X0001500Y0292839D01*
X0001507Y0293410D01*
X0001528Y0293980D01*
X0001562Y0294550D01*
X0001610Y0295119D01*
X0001672Y0295686D01*
X0001748Y0296252D01*
X0001837Y0296816D01*
X0001940Y0297377D01*
X0002057Y0297936D01*
X0002186Y0298492D01*
X0002330Y0299045D01*
X0002486Y0299594D01*
X0002656Y0300139D01*
X0002839Y0300679D01*
X0003035Y0301215D01*
X0003244Y0301747D01*
X0003466Y0302273D01*
X0003700Y0302793D01*
X0003947Y0303308D01*
X0004206Y0303817D01*
X0004477Y0304319D01*
X0004761Y0304814D01*
X0005056Y0305303D01*
X0005363Y0305784D01*
X0005681Y0306258D01*
X0006011Y0306724D01*
X0006352Y0307181D01*
X0006705Y0307631D01*
X0007067Y0308071D01*
X0007441Y0308503D01*
X0007824Y0308926D01*
X0008218Y0309339D01*
X0008622Y0309743D01*
X0009035Y0310137D01*
X0009458Y0310520D01*
X0009890Y0310894D01*
X0010330Y0311256D01*
X0010780Y0311609D01*
X0011237Y0311950D01*
X0011703Y0312280D01*
X0012177Y0312598D01*
X0012658Y0312905D01*
X0013147Y0313200D01*
X0013642Y0313484D01*
X0014144Y0313755D01*
X0014653Y0314014D01*
X0015168Y0314261D01*
X0015688Y0314495D01*
X0016214Y0314717D01*
X0016746Y0314926D01*
X0017282Y0315122D01*
X0017822Y0315305D01*
X0018367Y0315475D01*
X0018916Y0315631D01*
X0019469Y0315775D01*
X0020025Y0315904D01*
X0020584Y0316021D01*
X0021145Y0316124D01*
X0021709Y0316213D01*
X0022275Y0316289D01*
X0022842Y0316351D01*
X0023411Y0316399D01*
X0023981Y0316433D01*
X0024551Y0316454D01*
X0025122Y0316461D01*
X0139295Y0316461D01*
X0139295Y0316460D02*
X0139890Y0316429D01*
X0140483Y0316384D01*
X0141075Y0316324D01*
X0141666Y0316250D01*
X0142254Y0316162D01*
X0142840Y0316060D01*
X0143424Y0315943D01*
X0144004Y0315813D01*
X0144582Y0315668D01*
X0145155Y0315510D01*
X0145725Y0315337D01*
X0146290Y0315151D01*
X0146851Y0314952D01*
X0147406Y0314739D01*
X0147957Y0314512D01*
X0148502Y0314273D01*
X0149040Y0314020D01*
X0149573Y0313754D01*
X0150099Y0313476D01*
X0150618Y0313184D01*
X0151129Y0312881D01*
X0151634Y0312565D01*
X0152130Y0312237D01*
X0152619Y0311897D01*
X0153099Y0311545D01*
X0153571Y0311182D01*
X0154033Y0310808D01*
X0154487Y0310423D01*
X0154930Y0310026D01*
X0155365Y0309619D01*
X0155789Y0309202D01*
X0156203Y0308775D01*
X0156607Y0308337D01*
X0157000Y0307891D01*
X0157382Y0307434D01*
X0157753Y0306969D01*
X0158112Y0306495D01*
X0158460Y0306012D01*
X0158796Y0305521D01*
X0159121Y0305022D01*
X0159433Y0304515D01*
X0159733Y0304001D01*
X0160020Y0303480D01*
X0160294Y0302952D01*
X0160556Y0302418D01*
X0160805Y0301877D01*
X0161041Y0301331D01*
X0161263Y0300779D01*
X0161472Y0300221D01*
X0161667Y0299659D01*
X0161849Y0299093D01*
X0162017Y0298522D01*
X0162171Y0297947D01*
X0162312Y0297369D01*
X0162438Y0296787D01*
X0162550Y0296203D01*
X0162648Y0295616D01*
X0162732Y0295026D01*
X0162801Y0294435D01*
X0162857Y0293843D01*
X0162897Y0293249D01*
X0162924Y0292655D01*
X0162936Y0292060D01*
X0162934Y0291465D01*
X0162917Y0290870D01*
X0162917Y0023154D01*
X0162918Y0023154D02*
X0162887Y0022607D01*
X0162844Y0022061D01*
X0162787Y0021517D01*
X0162717Y0020974D01*
X0162634Y0020432D01*
X0162538Y0019893D01*
X0162429Y0019357D01*
X0162307Y0018823D01*
X0162172Y0018292D01*
X0162024Y0017765D01*
X0161864Y0017241D01*
X0161691Y0016722D01*
X0161506Y0016207D01*
X0161308Y0015696D01*
X0161098Y0015190D01*
X0160875Y0014690D01*
X0160641Y0014195D01*
X0160395Y0013706D01*
X0160137Y0013223D01*
X0159867Y0012746D01*
X0159586Y0012276D01*
X0159294Y0011813D01*
X0158991Y0011357D01*
X0158676Y0010909D01*
X0158351Y0010468D01*
X0158016Y0010036D01*
X0157670Y0009611D01*
X0157314Y0009195D01*
X0156948Y0008788D01*
X0156572Y0008390D01*
X0156187Y0008001D01*
X0155792Y0007621D01*
X0155388Y0007251D01*
X0154976Y0006891D01*
X0154555Y0006541D01*
X0154125Y0006201D01*
X0153688Y0005872D01*
X0153243Y0005553D01*
X0152790Y0005245D01*
X0152330Y0004948D01*
X0151862Y0004663D01*
X0151388Y0004389D01*
X0150908Y0004126D01*
X0150421Y0003875D01*
X0149929Y0003636D01*
X0149430Y0003409D01*
X0148927Y0003194D01*
X0148418Y0002991D01*
X0147905Y0002800D01*
X0147387Y0002622D01*
X0146865Y0002457D01*
X0146339Y0002304D01*
X0145810Y0002164D01*
X0145277Y0002037D01*
X0144742Y0001923D01*
X0144204Y0001821D01*
X0143663Y0001733D01*
X0143121Y0001658D01*
X0142577Y0001596D01*
X0142032Y0001547D01*
X0141485Y0001511D01*
X0140938Y0001489D01*
X0140391Y0001479D01*
X0139843Y0001483D01*
X0139296Y0001500D01*
X0139295Y0001500D02*
X0025122Y0001500D01*
X0024551Y0001507D01*
X0023981Y0001528D01*
X0023411Y0001562D01*
X0022842Y0001610D01*
X0022275Y0001672D01*
X0021709Y0001748D01*
X0021145Y0001837D01*
X0020584Y0001940D01*
X0020025Y0002057D01*
X0019469Y0002186D01*
X0018916Y0002330D01*
X0018367Y0002486D01*
X0017822Y0002656D01*
X0017282Y0002839D01*
X0016746Y0003035D01*
X0016214Y0003244D01*
X0015688Y0003466D01*
X0015168Y0003700D01*
X0014653Y0003947D01*
X0014144Y0004206D01*
X0013642Y0004477D01*
X0013147Y0004761D01*
X0012658Y0005056D01*
X0012177Y0005363D01*
X0011703Y0005681D01*
X0011237Y0006011D01*
X0010780Y0006352D01*
X0010330Y0006705D01*
X0009890Y0007067D01*
X0009458Y0007441D01*
X0009035Y0007824D01*
X0008622Y0008218D01*
X0008218Y0008622D01*
X0007824Y0009035D01*
X0007441Y0009458D01*
X0007067Y0009890D01*
X0006705Y0010330D01*
X0006352Y0010780D01*
X0006011Y0011237D01*
X0005681Y0011703D01*
X0005363Y0012177D01*
X0005056Y0012658D01*
X0004761Y0013147D01*
X0004477Y0013642D01*
X0004206Y0014144D01*
X0003947Y0014653D01*
X0003700Y0015168D01*
X0003466Y0015688D01*
X0003244Y0016214D01*
X0003035Y0016746D01*
X0002839Y0017282D01*
X0002656Y0017822D01*
X0002486Y0018367D01*
X0002330Y0018916D01*
X0002186Y0019469D01*
X0002057Y0020025D01*
X0001940Y0020584D01*
X0001837Y0021145D01*
X0001748Y0021709D01*
X0001672Y0022275D01*
X0001610Y0022842D01*
X0001562Y0023411D01*
X0001528Y0023981D01*
X0001507Y0024551D01*
X0001500Y0025122D01*
D11*
X0051618Y0292839D03*
X0061618Y0292839D03*
D12*
X0097957Y0283390D03*
X0097957Y0261736D03*
X0097957Y0245201D03*
X0097957Y0223547D03*
X0097957Y0188902D03*
X0097957Y0167248D03*
X0097957Y0150713D03*
X0097957Y0129059D03*
X0097524Y0096421D03*
X0097524Y0074768D03*
X0097524Y0058232D03*
X0097524Y0036579D03*
D13*
X0139295Y0025122D03*
X0025122Y0025122D03*
X0025122Y0292839D03*
X0139295Y0292839D03*
D14*
X0130555Y0158626D03*
X0150555Y0158626D03*
D15*
X0061441Y0284669D02*
X0058489Y0284669D01*
X0061441Y0284669D02*
X0061441Y0281323D01*
X0058489Y0281323D01*
X0058489Y0284669D01*
X0058489Y0282258D02*
X0061441Y0282258D01*
X0061441Y0283193D02*
X0058489Y0283193D01*
X0058489Y0284128D02*
X0061441Y0284128D01*
X0054748Y0284669D02*
X0051796Y0284669D01*
X0054748Y0284669D02*
X0054748Y0281323D01*
X0051796Y0281323D01*
X0051796Y0284669D01*
X0051796Y0282258D02*
X0054748Y0282258D01*
X0054748Y0283193D02*
X0051796Y0283193D01*
X0051796Y0284128D02*
X0054748Y0284128D01*
D16*
X0038902Y0260358D03*
X0038902Y0207209D03*
X0038902Y0185555D03*
X0038902Y0132406D03*
X0038902Y0110752D03*
X0038902Y0057602D03*
D17*
X0062524Y0070004D03*
X0062524Y0098350D03*
X0062524Y0144807D03*
X0062524Y0173154D03*
X0062524Y0219610D03*
X0062524Y0247957D03*
D18*
X0069085Y0236408D02*
X0109768Y0236408D01*
X0109768Y0235210D02*
X0067887Y0235210D01*
X0066688Y0234011D02*
X0109768Y0234011D01*
X0109768Y0232813D02*
X0065490Y0232813D01*
X0064492Y0231815D02*
X0086146Y0253469D01*
X0103862Y0253469D01*
X0109768Y0247563D01*
X0109768Y0220004D01*
X0097957Y0208193D01*
X0050713Y0208193D01*
X0050713Y0231815D01*
X0064492Y0231815D01*
X0064267Y0228373D02*
X0063124Y0228523D01*
X0063124Y0220210D01*
X0071437Y0220210D01*
X0071286Y0221353D01*
X0070984Y0222482D01*
X0070536Y0223562D01*
X0069952Y0224574D01*
X0069241Y0225501D01*
X0068414Y0226327D01*
X0067487Y0227039D01*
X0066475Y0227623D01*
X0065395Y0228070D01*
X0064267Y0228373D01*
X0063124Y0228019D02*
X0061924Y0228019D01*
X0061924Y0228523D02*
X0060781Y0228373D01*
X0059652Y0228070D01*
X0058572Y0227623D01*
X0057560Y0227039D01*
X0056633Y0226327D01*
X0055807Y0225501D01*
X0055095Y0224574D01*
X0054511Y0223562D01*
X0054064Y0222482D01*
X0053761Y0221353D01*
X0053611Y0220210D01*
X0061924Y0220210D01*
X0061924Y0228523D01*
X0061924Y0226820D02*
X0063124Y0226820D01*
X0063124Y0225622D02*
X0061924Y0225622D01*
X0061924Y0224423D02*
X0063124Y0224423D01*
X0063124Y0223225D02*
X0061924Y0223225D01*
X0061924Y0222026D02*
X0063124Y0222026D01*
X0063124Y0220828D02*
X0061924Y0220828D01*
X0061924Y0220210D02*
X0063124Y0220210D01*
X0063124Y0219010D01*
X0071437Y0219010D01*
X0071286Y0217867D01*
X0070984Y0216738D01*
X0070536Y0215659D01*
X0069952Y0214647D01*
X0069241Y0213720D01*
X0068414Y0212893D01*
X0067487Y0212182D01*
X0066475Y0211597D01*
X0065395Y0211150D01*
X0064267Y0210848D01*
X0063124Y0210697D01*
X0063124Y0219010D01*
X0061924Y0219010D01*
X0061924Y0210697D01*
X0060781Y0210848D01*
X0059652Y0211150D01*
X0058572Y0211597D01*
X0057560Y0212182D01*
X0056633Y0212893D01*
X0055807Y0213720D01*
X0055095Y0214647D01*
X0054511Y0215659D01*
X0054064Y0216738D01*
X0053761Y0217867D01*
X0053611Y0219010D01*
X0061924Y0219010D01*
X0061924Y0220210D01*
X0061924Y0219629D02*
X0050713Y0219629D01*
X0050713Y0218431D02*
X0053687Y0218431D01*
X0053931Y0217232D02*
X0050713Y0217232D01*
X0050713Y0216034D02*
X0054356Y0216034D01*
X0054986Y0214835D02*
X0050713Y0214835D01*
X0050713Y0213637D02*
X0055890Y0213637D01*
X0057226Y0212438D02*
X0050713Y0212438D01*
X0050713Y0211239D02*
X0059436Y0211239D01*
X0061924Y0211239D02*
X0063124Y0211239D01*
X0063124Y0212438D02*
X0061924Y0212438D01*
X0061924Y0213637D02*
X0063124Y0213637D01*
X0063124Y0214835D02*
X0061924Y0214835D01*
X0061924Y0216034D02*
X0063124Y0216034D01*
X0063124Y0217232D02*
X0061924Y0217232D01*
X0061924Y0218431D02*
X0063124Y0218431D01*
X0063124Y0219629D02*
X0091893Y0219629D01*
X0091949Y0219533D02*
X0092524Y0218783D01*
X0093192Y0218115D01*
X0093942Y0217539D01*
X0094761Y0217067D01*
X0095634Y0216705D01*
X0096547Y0216460D01*
X0097357Y0216354D01*
X0097357Y0222947D01*
X0098557Y0222947D01*
X0098557Y0224147D01*
X0105150Y0224147D01*
X0105044Y0224957D01*
X0104799Y0225870D01*
X0104437Y0226743D01*
X0103965Y0227562D01*
X0103389Y0228311D01*
X0102721Y0228980D01*
X0101971Y0229555D01*
X0101153Y0230028D01*
X0100279Y0230389D01*
X0099366Y0230634D01*
X0098557Y0230741D01*
X0098557Y0224147D01*
X0097357Y0224147D01*
X0097357Y0222947D01*
X0090763Y0222947D01*
X0090870Y0222138D01*
X0091114Y0221225D01*
X0091476Y0220351D01*
X0091949Y0219533D01*
X0092877Y0218431D02*
X0071360Y0218431D01*
X0071116Y0217232D02*
X0094474Y0217232D01*
X0097357Y0217232D02*
X0098557Y0217232D01*
X0098557Y0216354D02*
X0099366Y0216460D01*
X0100279Y0216705D01*
X0101153Y0217067D01*
X0101971Y0217539D01*
X0102721Y0218115D01*
X0103389Y0218783D01*
X0103965Y0219533D01*
X0104437Y0220351D01*
X0104799Y0221225D01*
X0105044Y0222138D01*
X0105150Y0222947D01*
X0098557Y0222947D01*
X0098557Y0216354D01*
X0098557Y0218431D02*
X0097357Y0218431D01*
X0097357Y0219629D02*
X0098557Y0219629D01*
X0098557Y0220828D02*
X0097357Y0220828D01*
X0097357Y0222026D02*
X0098557Y0222026D01*
X0098557Y0223225D02*
X0109768Y0223225D01*
X0109768Y0224423D02*
X0105114Y0224423D01*
X0104865Y0225622D02*
X0109768Y0225622D01*
X0109768Y0226820D02*
X0104393Y0226820D01*
X0103614Y0228019D02*
X0109768Y0228019D01*
X0109768Y0229217D02*
X0102412Y0229217D01*
X0100182Y0230416D02*
X0109768Y0230416D01*
X0109768Y0231614D02*
X0050713Y0231614D01*
X0050713Y0230416D02*
X0095732Y0230416D01*
X0095634Y0230389D02*
X0094761Y0230028D01*
X0093942Y0229555D01*
X0093192Y0228980D01*
X0092524Y0228311D01*
X0091949Y0227562D01*
X0091476Y0226743D01*
X0091114Y0225870D01*
X0090870Y0224957D01*
X0090763Y0224147D01*
X0097357Y0224147D01*
X0097357Y0230741D01*
X0096547Y0230634D01*
X0095634Y0230389D01*
X0097357Y0230416D02*
X0098557Y0230416D01*
X0098557Y0229217D02*
X0097357Y0229217D01*
X0097357Y0228019D02*
X0098557Y0228019D01*
X0098557Y0226820D02*
X0097357Y0226820D01*
X0097357Y0225622D02*
X0098557Y0225622D01*
X0098557Y0224423D02*
X0097357Y0224423D01*
X0097357Y0223225D02*
X0070676Y0223225D01*
X0071106Y0222026D02*
X0090900Y0222026D01*
X0091279Y0220828D02*
X0071355Y0220828D01*
X0070039Y0224423D02*
X0090800Y0224423D01*
X0091048Y0225622D02*
X0069120Y0225622D01*
X0067772Y0226820D02*
X0091521Y0226820D01*
X0092299Y0228019D02*
X0065520Y0228019D01*
X0070284Y0237607D02*
X0109768Y0237607D01*
X0109768Y0238805D02*
X0101300Y0238805D01*
X0101153Y0238720D02*
X0101971Y0239193D01*
X0102721Y0239768D01*
X0103389Y0240437D01*
X0103965Y0241186D01*
X0104437Y0242005D01*
X0104799Y0242878D01*
X0105044Y0243791D01*
X0105150Y0244601D01*
X0098557Y0244601D01*
X0098557Y0245801D01*
X0105150Y0245801D01*
X0105044Y0246610D01*
X0104799Y0247523D01*
X0104437Y0248397D01*
X0103965Y0249215D01*
X0103389Y0249965D01*
X0102721Y0250633D01*
X0101971Y0251209D01*
X0101153Y0251681D01*
X0100279Y0252043D01*
X0099366Y0252288D01*
X0098557Y0252394D01*
X0098557Y0245801D01*
X0097357Y0245801D01*
X0097357Y0252394D01*
X0096547Y0252288D01*
X0095634Y0252043D01*
X0094761Y0251681D01*
X0093942Y0251209D01*
X0093192Y0250633D01*
X0092524Y0249965D01*
X0091949Y0249215D01*
X0091476Y0248397D01*
X0091114Y0247523D01*
X0090870Y0246610D01*
X0090763Y0245801D01*
X0097357Y0245801D01*
X0097357Y0244601D01*
X0098557Y0244601D01*
X0098557Y0238007D01*
X0099366Y0238114D01*
X0100279Y0238359D01*
X0101153Y0238720D01*
X0102956Y0240004D02*
X0109768Y0240004D01*
X0109768Y0241202D02*
X0103974Y0241202D01*
X0104601Y0242401D02*
X0109768Y0242401D01*
X0109768Y0243599D02*
X0104992Y0243599D01*
X0105124Y0245996D02*
X0109768Y0245996D01*
X0109768Y0244798D02*
X0098557Y0244798D01*
X0098557Y0245996D02*
X0097357Y0245996D01*
X0097357Y0244798D02*
X0077475Y0244798D01*
X0078673Y0245996D02*
X0090789Y0245996D01*
X0091026Y0247195D02*
X0079872Y0247195D01*
X0081070Y0248393D02*
X0091475Y0248393D01*
X0092238Y0249592D02*
X0082269Y0249592D01*
X0083468Y0250790D02*
X0093397Y0250790D01*
X0095503Y0251989D02*
X0084666Y0251989D01*
X0085865Y0253187D02*
X0104143Y0253187D01*
X0105342Y0251989D02*
X0100410Y0251989D01*
X0098557Y0251989D02*
X0097357Y0251989D01*
X0097357Y0250790D02*
X0098557Y0250790D01*
X0098557Y0249592D02*
X0097357Y0249592D01*
X0097357Y0248393D02*
X0098557Y0248393D01*
X0098557Y0247195D02*
X0097357Y0247195D01*
X0097357Y0244601D02*
X0090763Y0244601D01*
X0090870Y0243791D01*
X0091114Y0242878D01*
X0091476Y0242005D01*
X0091949Y0241186D01*
X0092524Y0240437D01*
X0093192Y0239768D01*
X0093942Y0239193D01*
X0094761Y0238720D01*
X0095634Y0238359D01*
X0096547Y0238114D01*
X0097357Y0238007D01*
X0097357Y0244601D01*
X0097357Y0243599D02*
X0098557Y0243599D01*
X0098557Y0242401D02*
X0097357Y0242401D01*
X0097357Y0241202D02*
X0098557Y0241202D01*
X0098557Y0240004D02*
X0097357Y0240004D01*
X0097357Y0238805D02*
X0098557Y0238805D01*
X0094614Y0238805D02*
X0071482Y0238805D01*
X0072681Y0240004D02*
X0092957Y0240004D01*
X0091940Y0241202D02*
X0073879Y0241202D01*
X0075078Y0242401D02*
X0091312Y0242401D01*
X0090921Y0243599D02*
X0076276Y0243599D01*
X0088114Y0261343D02*
X0088114Y0285382D01*
X0088256Y0285523D01*
X0088635Y0286438D01*
X0088635Y0287428D01*
X0088627Y0287446D01*
X0094020Y0292839D01*
X0105831Y0292839D01*
X0131421Y0267248D01*
X0131421Y0172760D01*
X0141264Y0162917D01*
X0141264Y0153075D01*
X0133390Y0145201D01*
X0133390Y0092051D01*
X0109768Y0068429D01*
X0100965Y0068429D01*
X0101538Y0068760D01*
X0102288Y0069335D01*
X0102956Y0070003D01*
X0103532Y0070753D01*
X0104004Y0071572D01*
X0104366Y0072445D01*
X0104610Y0073358D01*
X0104717Y0074168D01*
X0098124Y0074168D01*
X0098124Y0075368D01*
X0104717Y0075368D01*
X0104610Y0076177D01*
X0104366Y0077090D01*
X0104004Y0077964D01*
X0103532Y0078782D01*
X0102956Y0079532D01*
X0102288Y0080200D01*
X0101538Y0080776D01*
X0100719Y0081248D01*
X0099846Y0081610D01*
X0098933Y0081855D01*
X0098124Y0081961D01*
X0098124Y0075368D01*
X0096924Y0075368D01*
X0096924Y0081961D01*
X0096114Y0081855D01*
X0095201Y0081610D01*
X0094328Y0081248D01*
X0093509Y0080776D01*
X0092759Y0080200D01*
X0092091Y0079532D01*
X0091516Y0078782D01*
X0091043Y0077964D01*
X0090681Y0077090D01*
X0090437Y0076177D01*
X0090330Y0075368D01*
X0096924Y0075368D01*
X0096924Y0074168D01*
X0090330Y0074168D01*
X0090437Y0073358D01*
X0090681Y0072445D01*
X0091043Y0071572D01*
X0091516Y0070753D01*
X0092091Y0070003D01*
X0092759Y0069335D01*
X0093509Y0068760D01*
X0094082Y0068429D01*
X0092051Y0068429D01*
X0086146Y0074335D01*
X0086146Y0095988D01*
X0111736Y0121579D01*
X0111736Y0157012D01*
X0107799Y0160949D01*
X0101467Y0160949D01*
X0101971Y0161240D01*
X0102721Y0161815D01*
X0103389Y0162484D01*
X0103965Y0163234D01*
X0104437Y0164052D01*
X0104799Y0164925D01*
X0105044Y0165838D01*
X0105150Y0166648D01*
X0098557Y0166648D01*
X0098557Y0167848D01*
X0105150Y0167848D01*
X0105044Y0168658D01*
X0104799Y0169571D01*
X0104437Y0170444D01*
X0103965Y0171262D01*
X0103389Y0172012D01*
X0102721Y0172681D01*
X0101971Y0173256D01*
X0101153Y0173729D01*
X0100279Y0174090D01*
X0099366Y0174335D01*
X0098557Y0174441D01*
X0098557Y0167848D01*
X0097357Y0167848D01*
X0097357Y0174441D01*
X0096547Y0174335D01*
X0095634Y0174090D01*
X0094761Y0173729D01*
X0093942Y0173256D01*
X0093192Y0172681D01*
X0092524Y0172012D01*
X0091949Y0171262D01*
X0091476Y0170444D01*
X0091114Y0169571D01*
X0090870Y0168658D01*
X0090763Y0167848D01*
X0097357Y0167848D01*
X0097357Y0166648D01*
X0090763Y0166648D01*
X0090870Y0165838D01*
X0091114Y0164925D01*
X0091476Y0164052D01*
X0091949Y0163234D01*
X0092524Y0162484D01*
X0093192Y0161815D01*
X0093942Y0161240D01*
X0094447Y0160949D01*
X0094020Y0160949D01*
X0086146Y0168823D01*
X0086146Y0192445D01*
X0111736Y0218035D01*
X0111736Y0247563D01*
X0111568Y0247731D01*
X0111568Y0248309D01*
X0110513Y0249363D01*
X0104608Y0255268D01*
X0104031Y0255268D01*
X0103862Y0255437D01*
X0101467Y0255437D01*
X0101971Y0255728D01*
X0102721Y0256304D01*
X0103389Y0256972D01*
X0103965Y0257722D01*
X0104437Y0258540D01*
X0104799Y0259414D01*
X0105044Y0260327D01*
X0105150Y0261136D01*
X0098557Y0261136D01*
X0098557Y0262336D01*
X0105150Y0262336D01*
X0105044Y0263146D01*
X0104799Y0264059D01*
X0104437Y0264932D01*
X0103965Y0265751D01*
X0103389Y0266500D01*
X0102721Y0267169D01*
X0101971Y0267744D01*
X0101153Y0268217D01*
X0100279Y0268578D01*
X0099366Y0268823D01*
X0098557Y0268930D01*
X0098557Y0262336D01*
X0097357Y0262336D01*
X0097357Y0268930D01*
X0096547Y0268823D01*
X0095634Y0268578D01*
X0094761Y0268217D01*
X0093942Y0267744D01*
X0093192Y0267169D01*
X0092524Y0266500D01*
X0091949Y0265751D01*
X0091476Y0264932D01*
X0091114Y0264059D01*
X0090870Y0263146D01*
X0090763Y0262336D01*
X0097357Y0262336D01*
X0097357Y0261136D01*
X0090763Y0261136D01*
X0090870Y0260327D01*
X0091114Y0259414D01*
X0091476Y0258540D01*
X0091949Y0257722D01*
X0092524Y0256972D01*
X0093192Y0256304D01*
X0093942Y0255728D01*
X0094447Y0255437D01*
X0094020Y0255437D01*
X0088114Y0261343D01*
X0088114Y0261577D02*
X0097357Y0261577D01*
X0097357Y0262775D02*
X0098557Y0262775D01*
X0098557Y0261577D02*
X0131421Y0261577D01*
X0131421Y0262775D02*
X0105092Y0262775D01*
X0104822Y0263974D02*
X0131421Y0263974D01*
X0131421Y0265172D02*
X0104298Y0265172D01*
X0103489Y0266371D02*
X0131421Y0266371D01*
X0131100Y0267570D02*
X0102199Y0267570D01*
X0099572Y0268768D02*
X0129901Y0268768D01*
X0128703Y0269967D02*
X0088114Y0269967D01*
X0088114Y0271165D02*
X0127504Y0271165D01*
X0126306Y0272364D02*
X0088114Y0272364D01*
X0088114Y0273562D02*
X0125107Y0273562D01*
X0123909Y0274761D02*
X0088114Y0274761D01*
X0088114Y0275959D02*
X0122710Y0275959D01*
X0121512Y0277158D02*
X0101583Y0277158D01*
X0101971Y0277382D02*
X0102721Y0277957D01*
X0103389Y0278626D01*
X0103965Y0279375D01*
X0104437Y0280194D01*
X0104799Y0281067D01*
X0105044Y0281980D01*
X0105150Y0282790D01*
X0098557Y0282790D01*
X0098557Y0283990D01*
X0105150Y0283990D01*
X0105044Y0284799D01*
X0104799Y0285712D01*
X0104437Y0286586D01*
X0103965Y0287404D01*
X0103389Y0288154D01*
X0102721Y0288822D01*
X0101971Y0289398D01*
X0101153Y0289870D01*
X0100279Y0290232D01*
X0099366Y0290477D01*
X0098557Y0290583D01*
X0098557Y0283990D01*
X0097357Y0283990D01*
X0097357Y0290583D01*
X0096547Y0290477D01*
X0095634Y0290232D01*
X0094761Y0289870D01*
X0093942Y0289398D01*
X0093192Y0288822D01*
X0092524Y0288154D01*
X0091949Y0287404D01*
X0091476Y0286586D01*
X0091114Y0285712D01*
X0090870Y0284799D01*
X0090763Y0283990D01*
X0097357Y0283990D01*
X0097357Y0282790D01*
X0098557Y0282790D01*
X0098557Y0276196D01*
X0099366Y0276303D01*
X0100279Y0276548D01*
X0101153Y0276909D01*
X0101971Y0277382D01*
X0103120Y0278356D02*
X0120313Y0278356D01*
X0119115Y0279555D02*
X0104068Y0279555D01*
X0104669Y0280753D02*
X0117916Y0280753D01*
X0116718Y0281952D02*
X0105036Y0281952D01*
X0105103Y0284349D02*
X0114321Y0284349D01*
X0115519Y0283150D02*
X0098557Y0283150D01*
X0098557Y0281952D02*
X0097357Y0281952D01*
X0097357Y0282790D02*
X0097357Y0276196D01*
X0096547Y0276303D01*
X0095634Y0276548D01*
X0094761Y0276909D01*
X0093942Y0277382D01*
X0093192Y0277957D01*
X0092524Y0278626D01*
X0091949Y0279375D01*
X0091476Y0280194D01*
X0091114Y0281067D01*
X0090870Y0281980D01*
X0090763Y0282790D01*
X0097357Y0282790D01*
X0097357Y0283150D02*
X0088114Y0283150D01*
X0088114Y0281952D02*
X0090877Y0281952D01*
X0091245Y0280753D02*
X0088114Y0280753D01*
X0088114Y0279555D02*
X0091845Y0279555D01*
X0092794Y0278356D02*
X0088114Y0278356D01*
X0088114Y0277158D02*
X0094331Y0277158D01*
X0097357Y0277158D02*
X0098557Y0277158D01*
X0098557Y0278356D02*
X0097357Y0278356D01*
X0097357Y0279555D02*
X0098557Y0279555D01*
X0098557Y0280753D02*
X0097357Y0280753D01*
X0097357Y0284349D02*
X0098557Y0284349D01*
X0098557Y0285547D02*
X0097357Y0285547D01*
X0097357Y0286746D02*
X0098557Y0286746D01*
X0098557Y0287944D02*
X0097357Y0287944D01*
X0097357Y0289143D02*
X0098557Y0289143D01*
X0098557Y0290341D02*
X0097357Y0290341D01*
X0096042Y0290341D02*
X0091522Y0290341D01*
X0090324Y0289143D02*
X0093610Y0289143D01*
X0092363Y0287944D02*
X0089125Y0287944D01*
X0088635Y0286746D02*
X0091569Y0286746D01*
X0091070Y0285547D02*
X0088266Y0285547D01*
X0088114Y0284349D02*
X0090810Y0284349D01*
X0092721Y0291540D02*
X0107130Y0291540D01*
X0108328Y0290341D02*
X0099872Y0290341D01*
X0102303Y0289143D02*
X0109527Y0289143D01*
X0110725Y0287944D02*
X0103550Y0287944D01*
X0104345Y0286746D02*
X0111924Y0286746D01*
X0113122Y0285547D02*
X0104843Y0285547D01*
X0105931Y0292738D02*
X0093919Y0292738D01*
X0096342Y0268768D02*
X0088114Y0268768D01*
X0088114Y0267570D02*
X0093715Y0267570D01*
X0092425Y0266371D02*
X0088114Y0266371D01*
X0088114Y0265172D02*
X0091615Y0265172D01*
X0091092Y0263974D02*
X0088114Y0263974D01*
X0088114Y0262775D02*
X0090821Y0262775D01*
X0090863Y0260378D02*
X0089078Y0260378D01*
X0090277Y0259180D02*
X0091211Y0259180D01*
X0091475Y0257981D02*
X0091799Y0257981D01*
X0092674Y0256783D02*
X0092713Y0256783D01*
X0093872Y0255584D02*
X0094191Y0255584D01*
X0097357Y0263974D02*
X0098557Y0263974D01*
X0098557Y0265172D02*
X0097357Y0265172D01*
X0097357Y0266371D02*
X0098557Y0266371D01*
X0098557Y0267570D02*
X0097357Y0267570D01*
X0097357Y0268768D02*
X0098557Y0268768D01*
X0104702Y0259180D02*
X0131421Y0259180D01*
X0131421Y0260378D02*
X0105050Y0260378D01*
X0104115Y0257981D02*
X0131421Y0257981D01*
X0131421Y0256783D02*
X0103200Y0256783D01*
X0101722Y0255584D02*
X0131421Y0255584D01*
X0131421Y0254386D02*
X0105490Y0254386D01*
X0106689Y0253187D02*
X0131421Y0253187D01*
X0131421Y0251989D02*
X0107887Y0251989D01*
X0109086Y0250790D02*
X0131421Y0250790D01*
X0131421Y0249592D02*
X0110284Y0249592D01*
X0111483Y0248393D02*
X0131421Y0248393D01*
X0131421Y0247195D02*
X0111736Y0247195D01*
X0111736Y0245996D02*
X0131421Y0245996D01*
X0131421Y0244798D02*
X0111736Y0244798D01*
X0111736Y0243599D02*
X0131421Y0243599D01*
X0131421Y0242401D02*
X0111736Y0242401D01*
X0111736Y0241202D02*
X0131421Y0241202D01*
X0131421Y0240004D02*
X0111736Y0240004D01*
X0111736Y0238805D02*
X0131421Y0238805D01*
X0131421Y0237607D02*
X0111736Y0237607D01*
X0111736Y0236408D02*
X0131421Y0236408D01*
X0131421Y0235210D02*
X0111736Y0235210D01*
X0111736Y0234011D02*
X0131421Y0234011D01*
X0131421Y0232813D02*
X0111736Y0232813D01*
X0111736Y0231614D02*
X0131421Y0231614D01*
X0131421Y0230416D02*
X0111736Y0230416D01*
X0111736Y0229217D02*
X0131421Y0229217D01*
X0131421Y0228019D02*
X0111736Y0228019D01*
X0111736Y0226820D02*
X0131421Y0226820D01*
X0131421Y0225622D02*
X0111736Y0225622D01*
X0111736Y0224423D02*
X0131421Y0224423D01*
X0131421Y0223225D02*
X0111736Y0223225D01*
X0111736Y0222026D02*
X0131421Y0222026D01*
X0131421Y0220828D02*
X0111736Y0220828D01*
X0111736Y0219629D02*
X0131421Y0219629D01*
X0131421Y0218431D02*
X0111736Y0218431D01*
X0110933Y0217232D02*
X0131421Y0217232D01*
X0131421Y0216034D02*
X0109734Y0216034D01*
X0108536Y0214835D02*
X0131421Y0214835D01*
X0131421Y0213637D02*
X0107337Y0213637D01*
X0106139Y0212438D02*
X0131421Y0212438D01*
X0131421Y0211239D02*
X0104940Y0211239D01*
X0103742Y0210041D02*
X0131421Y0210041D01*
X0131421Y0208842D02*
X0102543Y0208842D01*
X0101345Y0207644D02*
X0131421Y0207644D01*
X0131421Y0206445D02*
X0100146Y0206445D01*
X0098948Y0205247D02*
X0131421Y0205247D01*
X0131421Y0204048D02*
X0097749Y0204048D01*
X0096551Y0202850D02*
X0131421Y0202850D01*
X0131421Y0201651D02*
X0095352Y0201651D01*
X0094154Y0200453D02*
X0131421Y0200453D01*
X0131421Y0199254D02*
X0092955Y0199254D01*
X0091757Y0198056D02*
X0131421Y0198056D01*
X0131421Y0196857D02*
X0090558Y0196857D01*
X0089360Y0195659D02*
X0095429Y0195659D01*
X0095634Y0195744D02*
X0094761Y0195382D01*
X0093942Y0194910D01*
X0093192Y0194334D01*
X0092524Y0193666D01*
X0091949Y0192916D01*
X0091476Y0192097D01*
X0091114Y0191224D01*
X0090870Y0190311D01*
X0090763Y0189502D01*
X0097357Y0189502D01*
X0097357Y0196095D01*
X0096547Y0195988D01*
X0095634Y0195744D01*
X0097357Y0195659D02*
X0098557Y0195659D01*
X0098557Y0196095D02*
X0098557Y0189502D01*
X0097357Y0189502D01*
X0097357Y0188302D01*
X0090763Y0188302D01*
X0090870Y0187492D01*
X0091114Y0186579D01*
X0091476Y0185706D01*
X0091949Y0184887D01*
X0092524Y0184137D01*
X0093192Y0183469D01*
X0093942Y0182894D01*
X0094761Y0182421D01*
X0095634Y0182059D01*
X0096547Y0181815D01*
X0097357Y0181708D01*
X0097357Y0188302D01*
X0098557Y0188302D01*
X0098557Y0189502D01*
X0105150Y0189502D01*
X0105044Y0190311D01*
X0104799Y0191224D01*
X0104437Y0192097D01*
X0103965Y0192916D01*
X0103389Y0193666D01*
X0102721Y0194334D01*
X0101971Y0194910D01*
X0101153Y0195382D01*
X0100279Y0195744D01*
X0099366Y0195988D01*
X0098557Y0196095D01*
X0098557Y0194460D02*
X0097357Y0194460D01*
X0097357Y0193262D02*
X0098557Y0193262D01*
X0098557Y0192063D02*
X0097357Y0192063D01*
X0097357Y0190865D02*
X0098557Y0190865D01*
X0098557Y0189666D02*
X0097357Y0189666D01*
X0097357Y0188468D02*
X0086146Y0188468D01*
X0086146Y0189666D02*
X0090785Y0189666D01*
X0091018Y0190865D02*
X0086146Y0190865D01*
X0086146Y0192063D02*
X0091462Y0192063D01*
X0092214Y0193262D02*
X0086963Y0193262D01*
X0088161Y0194460D02*
X0093357Y0194460D01*
X0090929Y0187269D02*
X0086146Y0187269D01*
X0086146Y0186071D02*
X0091325Y0186071D01*
X0091960Y0184872D02*
X0086146Y0184872D01*
X0086146Y0183674D02*
X0092988Y0183674D01*
X0094667Y0182475D02*
X0086146Y0182475D01*
X0086146Y0181277D02*
X0131421Y0181277D01*
X0131421Y0182475D02*
X0101246Y0182475D01*
X0101153Y0182421D02*
X0101971Y0182894D01*
X0102721Y0183469D01*
X0103389Y0184137D01*
X0103965Y0184887D01*
X0104437Y0185706D01*
X0104799Y0186579D01*
X0105044Y0187492D01*
X0105150Y0188302D01*
X0098557Y0188302D01*
X0098557Y0181708D01*
X0099366Y0181815D01*
X0100279Y0182059D01*
X0101153Y0182421D01*
X0102926Y0183674D02*
X0131421Y0183674D01*
X0131421Y0184872D02*
X0103953Y0184872D01*
X0104588Y0186071D02*
X0131421Y0186071D01*
X0131421Y0187269D02*
X0104984Y0187269D01*
X0105128Y0189666D02*
X0131421Y0189666D01*
X0131421Y0188468D02*
X0098557Y0188468D01*
X0098557Y0187269D02*
X0097357Y0187269D01*
X0097357Y0186071D02*
X0098557Y0186071D01*
X0098557Y0184872D02*
X0097357Y0184872D01*
X0097357Y0183674D02*
X0098557Y0183674D01*
X0098557Y0182475D02*
X0097357Y0182475D01*
X0097357Y0174086D02*
X0098557Y0174086D01*
X0098557Y0172887D02*
X0097357Y0172887D01*
X0097357Y0171689D02*
X0098557Y0171689D01*
X0098557Y0170490D02*
X0097357Y0170490D01*
X0097357Y0169292D02*
X0098557Y0169292D01*
X0098557Y0168093D02*
X0097357Y0168093D01*
X0097357Y0166895D02*
X0088074Y0166895D01*
X0086875Y0168093D02*
X0090795Y0168093D01*
X0091040Y0169292D02*
X0086146Y0169292D01*
X0086146Y0170490D02*
X0091503Y0170490D01*
X0092276Y0171689D02*
X0086146Y0171689D01*
X0086146Y0172887D02*
X0093462Y0172887D01*
X0095623Y0174086D02*
X0086146Y0174086D01*
X0086146Y0175284D02*
X0131421Y0175284D01*
X0131421Y0174086D02*
X0100290Y0174086D01*
X0102452Y0172887D02*
X0131421Y0172887D01*
X0132492Y0171689D02*
X0103638Y0171689D01*
X0104411Y0170490D02*
X0133691Y0170490D01*
X0134890Y0169292D02*
X0104874Y0169292D01*
X0105118Y0168093D02*
X0136088Y0168093D01*
X0137287Y0166895D02*
X0098557Y0166895D01*
X0103006Y0162101D02*
X0123895Y0162101D01*
X0123809Y0161953D02*
X0123433Y0161044D01*
X0123178Y0160093D01*
X0123064Y0159226D01*
X0129955Y0159226D01*
X0129955Y0158026D01*
X0123064Y0158026D01*
X0123178Y0157159D01*
X0123433Y0156208D01*
X0123809Y0155299D01*
X0124301Y0154447D01*
X0124900Y0153667D01*
X0125596Y0152971D01*
X0126376Y0152372D01*
X0127228Y0151880D01*
X0128137Y0151504D01*
X0129088Y0151249D01*
X0129955Y0151135D01*
X0129955Y0158026D01*
X0131155Y0158026D01*
X0131155Y0151135D01*
X0132023Y0151249D01*
X0132973Y0151504D01*
X0133882Y0151880D01*
X0134734Y0152372D01*
X0135514Y0152971D01*
X0136210Y0153667D01*
X0136809Y0154447D01*
X0137301Y0155299D01*
X0137678Y0156208D01*
X0137932Y0157159D01*
X0138046Y0158026D01*
X0131155Y0158026D01*
X0131155Y0159226D01*
X0129955Y0159226D01*
X0129955Y0166117D01*
X0129088Y0166003D01*
X0128137Y0165748D01*
X0127228Y0165372D01*
X0126376Y0164880D01*
X0125596Y0164281D01*
X0124900Y0163585D01*
X0124301Y0162805D01*
X0123809Y0161953D01*
X0123395Y0160902D02*
X0107846Y0160902D01*
X0109045Y0159703D02*
X0123127Y0159703D01*
X0123159Y0157306D02*
X0111442Y0157306D01*
X0111736Y0156108D02*
X0123474Y0156108D01*
X0124034Y0154909D02*
X0111736Y0154909D01*
X0111736Y0153711D02*
X0124866Y0153711D01*
X0126193Y0152512D02*
X0111736Y0152512D01*
X0111736Y0151314D02*
X0128845Y0151314D01*
X0129955Y0151314D02*
X0131155Y0151314D01*
X0132265Y0151314D02*
X0139503Y0151314D01*
X0140701Y0152512D02*
X0134917Y0152512D01*
X0136244Y0153711D02*
X0141264Y0153711D01*
X0141264Y0154909D02*
X0137076Y0154909D01*
X0137636Y0156108D02*
X0141264Y0156108D01*
X0141264Y0157306D02*
X0137952Y0157306D01*
X0138046Y0159226D02*
X0137932Y0160093D01*
X0137678Y0161044D01*
X0137301Y0161953D01*
X0136809Y0162805D01*
X0136210Y0163585D01*
X0135514Y0164281D01*
X0134734Y0164880D01*
X0133882Y0165372D01*
X0132973Y0165748D01*
X0132023Y0166003D01*
X0131155Y0166117D01*
X0131155Y0159226D01*
X0138046Y0159226D01*
X0137984Y0159703D02*
X0141264Y0159703D01*
X0141264Y0158505D02*
X0131155Y0158505D01*
X0131155Y0159703D02*
X0129955Y0159703D01*
X0129955Y0158505D02*
X0110243Y0158505D01*
X0108703Y0156108D02*
X0102758Y0156108D01*
X0102721Y0156145D02*
X0101971Y0156721D01*
X0101153Y0157193D01*
X0100279Y0157555D01*
X0099366Y0157799D01*
X0098557Y0157906D01*
X0098557Y0151313D01*
X0097357Y0151313D01*
X0097357Y0157906D01*
X0096547Y0157799D01*
X0095634Y0157555D01*
X0094761Y0157193D01*
X0093942Y0156721D01*
X0093192Y0156145D01*
X0092524Y0155477D01*
X0091949Y0154727D01*
X0091476Y0153908D01*
X0091114Y0153035D01*
X0090870Y0152122D01*
X0090763Y0151313D01*
X0097357Y0151313D01*
X0097357Y0150113D01*
X0090763Y0150113D01*
X0090870Y0149303D01*
X0091114Y0148390D01*
X0091476Y0147517D01*
X0091949Y0146698D01*
X0092524Y0145948D01*
X0093192Y0145280D01*
X0093942Y0144705D01*
X0094761Y0144232D01*
X0095634Y0143870D01*
X0096547Y0143626D01*
X0097357Y0143519D01*
X0097357Y0150113D01*
X0098557Y0150113D01*
X0098557Y0151313D01*
X0105150Y0151313D01*
X0105044Y0152122D01*
X0104799Y0153035D01*
X0104437Y0153908D01*
X0103965Y0154727D01*
X0103389Y0155477D01*
X0102721Y0156145D01*
X0103825Y0154909D02*
X0109768Y0154909D01*
X0109768Y0155043D02*
X0109768Y0123547D01*
X0107799Y0121579D01*
X0062524Y0121579D01*
X0050713Y0133390D01*
X0050713Y0151106D01*
X0058587Y0158980D01*
X0105831Y0158980D01*
X0109768Y0155043D01*
X0109768Y0153711D02*
X0104519Y0153711D01*
X0104939Y0152512D02*
X0109768Y0152512D01*
X0109768Y0151314D02*
X0105150Y0151314D01*
X0105150Y0150113D02*
X0098557Y0150113D01*
X0098557Y0143519D01*
X0099366Y0143626D01*
X0100279Y0143870D01*
X0101153Y0144232D01*
X0101971Y0144705D01*
X0102721Y0145280D01*
X0103389Y0145948D01*
X0103965Y0146698D01*
X0104437Y0147517D01*
X0104799Y0148390D01*
X0105044Y0149303D01*
X0105150Y0150113D01*
X0104940Y0148917D02*
X0109768Y0148917D01*
X0109768Y0150115D02*
X0098557Y0150115D01*
X0098557Y0148917D02*
X0097357Y0148917D01*
X0097357Y0150115D02*
X0069687Y0150115D01*
X0069952Y0149771D02*
X0069241Y0150698D01*
X0068414Y0151524D01*
X0067487Y0152235D01*
X0066475Y0152820D01*
X0065395Y0153267D01*
X0064267Y0153570D01*
X0063124Y0153720D01*
X0063124Y0145407D01*
X0071437Y0145407D01*
X0071286Y0146550D01*
X0070984Y0147679D01*
X0070536Y0148759D01*
X0069952Y0149771D01*
X0070445Y0148917D02*
X0090973Y0148917D01*
X0091393Y0147718D02*
X0070967Y0147718D01*
X0071290Y0146520D02*
X0092086Y0146520D01*
X0093151Y0145321D02*
X0063124Y0145321D01*
X0063124Y0145407D02*
X0063124Y0144207D01*
X0071437Y0144207D01*
X0071286Y0143064D01*
X0070984Y0141935D01*
X0070536Y0140856D01*
X0069952Y0139844D01*
X0069241Y0138916D01*
X0068414Y0138090D01*
X0067487Y0137379D01*
X0066475Y0136794D01*
X0065395Y0136347D01*
X0064267Y0136045D01*
X0063124Y0135894D01*
X0063124Y0144207D01*
X0061924Y0144207D01*
X0061924Y0135894D01*
X0060781Y0136045D01*
X0059652Y0136347D01*
X0058572Y0136794D01*
X0057560Y0137379D01*
X0056633Y0138090D01*
X0055807Y0138916D01*
X0055095Y0139844D01*
X0054511Y0140856D01*
X0054064Y0141935D01*
X0053761Y0143064D01*
X0053611Y0144207D01*
X0061924Y0144207D01*
X0061924Y0145407D01*
X0061924Y0153720D01*
X0060781Y0153570D01*
X0059652Y0153267D01*
X0058572Y0152820D01*
X0057560Y0152235D01*
X0056633Y0151524D01*
X0055807Y0150698D01*
X0055095Y0149771D01*
X0054511Y0148759D01*
X0054064Y0147679D01*
X0053761Y0146550D01*
X0053611Y0145407D01*
X0061924Y0145407D01*
X0063124Y0145407D01*
X0063124Y0146520D02*
X0061924Y0146520D01*
X0061924Y0147718D02*
X0063124Y0147718D01*
X0063124Y0148917D02*
X0061924Y0148917D01*
X0061924Y0150115D02*
X0063124Y0150115D01*
X0063124Y0151314D02*
X0061924Y0151314D01*
X0061924Y0152512D02*
X0063124Y0152512D01*
X0063124Y0153711D02*
X0061924Y0153711D01*
X0061855Y0153711D02*
X0053317Y0153711D01*
X0052119Y0152512D02*
X0058040Y0152512D01*
X0056423Y0151314D02*
X0050920Y0151314D01*
X0050713Y0150115D02*
X0055360Y0150115D01*
X0054602Y0148917D02*
X0050713Y0148917D01*
X0050713Y0147718D02*
X0054080Y0147718D01*
X0053757Y0146520D02*
X0050713Y0146520D01*
X0050713Y0145321D02*
X0061924Y0145321D01*
X0061924Y0144123D02*
X0063124Y0144123D01*
X0063124Y0142924D02*
X0061924Y0142924D01*
X0061924Y0141726D02*
X0063124Y0141726D01*
X0063124Y0140527D02*
X0061924Y0140527D01*
X0061924Y0139329D02*
X0063124Y0139329D01*
X0063124Y0138130D02*
X0061924Y0138130D01*
X0061924Y0136932D02*
X0063124Y0136932D01*
X0058334Y0136932D02*
X0050713Y0136932D01*
X0050713Y0138130D02*
X0056593Y0138130D01*
X0055490Y0139329D02*
X0050713Y0139329D01*
X0050713Y0140527D02*
X0054700Y0140527D01*
X0054150Y0141726D02*
X0050713Y0141726D01*
X0050713Y0142924D02*
X0053799Y0142924D01*
X0053622Y0144123D02*
X0050713Y0144123D01*
X0050713Y0135733D02*
X0095228Y0135733D01*
X0095634Y0135901D02*
X0094761Y0135540D01*
X0093942Y0135067D01*
X0093192Y0134492D01*
X0092524Y0133823D01*
X0091949Y0133073D01*
X0091476Y0132255D01*
X0091114Y0131382D01*
X0090870Y0130469D01*
X0090763Y0129659D01*
X0097357Y0129659D01*
X0097357Y0136252D01*
X0096547Y0136146D01*
X0095634Y0135901D01*
X0097357Y0135733D02*
X0098557Y0135733D01*
X0098557Y0136252D02*
X0098557Y0129659D01*
X0105150Y0129659D01*
X0105044Y0130469D01*
X0104799Y0131382D01*
X0104437Y0132255D01*
X0103965Y0133073D01*
X0103389Y0133823D01*
X0102721Y0134492D01*
X0101971Y0135067D01*
X0101153Y0135540D01*
X0100279Y0135901D01*
X0099366Y0136146D01*
X0098557Y0136252D01*
X0098557Y0134535D02*
X0097357Y0134535D01*
X0097357Y0133336D02*
X0098557Y0133336D01*
X0098557Y0132138D02*
X0097357Y0132138D01*
X0097357Y0130939D02*
X0098557Y0130939D01*
X0098557Y0129741D02*
X0097357Y0129741D01*
X0097357Y0129659D02*
X0098557Y0129659D01*
X0098557Y0128459D01*
X0105150Y0128459D01*
X0105044Y0127649D01*
X0104799Y0126736D01*
X0104437Y0125863D01*
X0103965Y0125045D01*
X0103389Y0124295D01*
X0102721Y0123626D01*
X0101971Y0123051D01*
X0101153Y0122579D01*
X0100279Y0122217D01*
X0099366Y0121972D01*
X0098557Y0121866D01*
X0098557Y0128459D01*
X0097357Y0128459D01*
X0097357Y0121866D01*
X0096547Y0121972D01*
X0095634Y0122217D01*
X0094761Y0122579D01*
X0093942Y0123051D01*
X0093192Y0123626D01*
X0092524Y0124295D01*
X0091949Y0125045D01*
X0091476Y0125863D01*
X0091114Y0126736D01*
X0090870Y0127649D01*
X0090763Y0128459D01*
X0097357Y0128459D01*
X0097357Y0129659D01*
X0097357Y0128542D02*
X0055560Y0128542D01*
X0056759Y0127344D02*
X0090952Y0127344D01*
X0091359Y0126145D02*
X0057957Y0126145D01*
X0059156Y0124947D02*
X0092024Y0124947D01*
X0093071Y0123748D02*
X0060354Y0123748D01*
X0061553Y0122550D02*
X0094831Y0122550D01*
X0097357Y0122550D02*
X0098557Y0122550D01*
X0098557Y0123748D02*
X0097357Y0123748D01*
X0097357Y0124947D02*
X0098557Y0124947D01*
X0098557Y0126145D02*
X0097357Y0126145D01*
X0097357Y0127344D02*
X0098557Y0127344D01*
X0098557Y0128542D02*
X0109768Y0128542D01*
X0109768Y0127344D02*
X0104962Y0127344D01*
X0104554Y0126145D02*
X0109768Y0126145D01*
X0109768Y0124947D02*
X0103889Y0124947D01*
X0102843Y0123748D02*
X0109768Y0123748D01*
X0108770Y0122550D02*
X0101083Y0122550D01*
X0105139Y0129741D02*
X0109768Y0129741D01*
X0109768Y0130939D02*
X0104917Y0130939D01*
X0104486Y0132138D02*
X0109768Y0132138D01*
X0109768Y0133336D02*
X0103763Y0133336D01*
X0102665Y0134535D02*
X0109768Y0134535D01*
X0109768Y0135733D02*
X0100685Y0135733D01*
X0100889Y0144123D02*
X0109768Y0144123D01*
X0109768Y0145321D02*
X0102762Y0145321D01*
X0103828Y0146520D02*
X0109768Y0146520D01*
X0109768Y0147718D02*
X0104521Y0147718D01*
X0098557Y0147718D02*
X0097357Y0147718D01*
X0097357Y0146520D02*
X0098557Y0146520D01*
X0098557Y0145321D02*
X0097357Y0145321D01*
X0097357Y0144123D02*
X0098557Y0144123D01*
X0095024Y0144123D02*
X0071425Y0144123D01*
X0071249Y0142924D02*
X0109768Y0142924D01*
X0109768Y0141726D02*
X0070897Y0141726D01*
X0070347Y0140527D02*
X0109768Y0140527D01*
X0109768Y0139329D02*
X0069557Y0139329D01*
X0068454Y0138130D02*
X0109768Y0138130D01*
X0109768Y0136932D02*
X0066713Y0136932D01*
X0068624Y0151314D02*
X0090763Y0151314D01*
X0090974Y0152512D02*
X0067007Y0152512D01*
X0063192Y0153711D02*
X0091394Y0153711D01*
X0092089Y0154909D02*
X0054516Y0154909D01*
X0055714Y0156108D02*
X0093155Y0156108D01*
X0092907Y0162101D02*
X0092868Y0162101D01*
X0091911Y0163299D02*
X0091669Y0163299D01*
X0091292Y0164498D02*
X0090471Y0164498D01*
X0090908Y0165696D02*
X0089272Y0165696D01*
X0086146Y0176483D02*
X0131421Y0176483D01*
X0131421Y0177681D02*
X0086146Y0177681D01*
X0086146Y0178880D02*
X0131421Y0178880D01*
X0131421Y0180078D02*
X0086146Y0180078D01*
X0095034Y0157306D02*
X0056913Y0157306D01*
X0058111Y0158505D02*
X0106306Y0158505D01*
X0107505Y0157306D02*
X0100879Y0157306D01*
X0098557Y0157306D02*
X0097357Y0157306D01*
X0097357Y0156108D02*
X0098557Y0156108D01*
X0098557Y0154909D02*
X0097357Y0154909D01*
X0097357Y0153711D02*
X0098557Y0153711D01*
X0098557Y0152512D02*
X0097357Y0152512D01*
X0097357Y0151314D02*
X0098557Y0151314D01*
X0104002Y0163299D02*
X0124680Y0163299D01*
X0125878Y0164498D02*
X0104622Y0164498D01*
X0105005Y0165696D02*
X0128011Y0165696D01*
X0129955Y0165696D02*
X0131155Y0165696D01*
X0131155Y0164498D02*
X0129955Y0164498D01*
X0129955Y0163299D02*
X0131155Y0163299D01*
X0131155Y0162101D02*
X0129955Y0162101D01*
X0129955Y0160902D02*
X0131155Y0160902D01*
X0131155Y0157306D02*
X0129955Y0157306D01*
X0129955Y0156108D02*
X0131155Y0156108D01*
X0131155Y0154909D02*
X0129955Y0154909D01*
X0129955Y0153711D02*
X0131155Y0153711D01*
X0131155Y0152512D02*
X0129955Y0152512D01*
X0134709Y0146520D02*
X0111736Y0146520D01*
X0111736Y0147718D02*
X0135907Y0147718D01*
X0137106Y0148917D02*
X0111736Y0148917D01*
X0111736Y0150115D02*
X0138304Y0150115D01*
X0133510Y0145321D02*
X0111736Y0145321D01*
X0111736Y0144123D02*
X0133390Y0144123D01*
X0133390Y0142924D02*
X0111736Y0142924D01*
X0111736Y0141726D02*
X0133390Y0141726D01*
X0133390Y0140527D02*
X0111736Y0140527D01*
X0111736Y0139329D02*
X0133390Y0139329D01*
X0133390Y0138130D02*
X0111736Y0138130D01*
X0111736Y0136932D02*
X0133390Y0136932D01*
X0133390Y0135733D02*
X0111736Y0135733D01*
X0111736Y0134535D02*
X0133390Y0134535D01*
X0133390Y0133336D02*
X0111736Y0133336D01*
X0111736Y0132138D02*
X0133390Y0132138D01*
X0133390Y0130939D02*
X0111736Y0130939D01*
X0111736Y0129741D02*
X0133390Y0129741D01*
X0133390Y0128542D02*
X0111736Y0128542D01*
X0111736Y0127344D02*
X0133390Y0127344D01*
X0133390Y0126145D02*
X0111736Y0126145D01*
X0111736Y0124947D02*
X0133390Y0124947D01*
X0133390Y0123748D02*
X0111736Y0123748D01*
X0111736Y0122550D02*
X0133390Y0122550D01*
X0133390Y0121351D02*
X0111509Y0121351D01*
X0110310Y0120153D02*
X0133390Y0120153D01*
X0133390Y0118954D02*
X0109112Y0118954D01*
X0107913Y0117756D02*
X0133390Y0117756D01*
X0133390Y0116557D02*
X0106715Y0116557D01*
X0105516Y0115359D02*
X0133390Y0115359D01*
X0133390Y0114160D02*
X0104318Y0114160D01*
X0103119Y0112962D02*
X0133390Y0112962D01*
X0133390Y0111763D02*
X0101921Y0111763D01*
X0100722Y0110565D02*
X0133390Y0110565D01*
X0133390Y0109366D02*
X0099523Y0109366D01*
X0098325Y0108168D02*
X0133390Y0108168D01*
X0133390Y0106969D02*
X0097126Y0106969D01*
X0095928Y0105770D02*
X0133390Y0105770D01*
X0133390Y0104572D02*
X0094729Y0104572D01*
X0095201Y0103263D02*
X0094328Y0102902D01*
X0093509Y0102429D01*
X0092759Y0101854D01*
X0092091Y0101185D01*
X0091516Y0100436D01*
X0091043Y0099617D01*
X0090681Y0098744D01*
X0090437Y0097831D01*
X0090330Y0097021D01*
X0096924Y0097021D01*
X0096924Y0103615D01*
X0096114Y0103508D01*
X0095201Y0103263D01*
X0095611Y0103373D02*
X0093531Y0103373D01*
X0093178Y0102175D02*
X0092332Y0102175D01*
X0091931Y0100976D02*
X0091134Y0100976D01*
X0091136Y0099778D02*
X0089935Y0099778D01*
X0090637Y0098579D02*
X0088737Y0098579D01*
X0087538Y0097381D02*
X0090378Y0097381D01*
X0090330Y0095821D02*
X0090437Y0095012D01*
X0090681Y0094099D01*
X0091043Y0093225D01*
X0091516Y0092407D01*
X0092091Y0091657D01*
X0092759Y0090989D01*
X0093509Y0090413D01*
X0094328Y0089941D01*
X0095201Y0089579D01*
X0096114Y0089334D01*
X0096924Y0089228D01*
X0096924Y0095821D01*
X0098124Y0095821D01*
X0098124Y0097021D01*
X0104717Y0097021D01*
X0104610Y0097831D01*
X0104366Y0098744D01*
X0104004Y0099617D01*
X0103532Y0100436D01*
X0102956Y0101185D01*
X0102288Y0101854D01*
X0101538Y0102429D01*
X0100719Y0102902D01*
X0099846Y0103263D01*
X0098933Y0103508D01*
X0098124Y0103615D01*
X0098124Y0097021D01*
X0096924Y0097021D01*
X0096924Y0095821D01*
X0090330Y0095821D01*
X0090444Y0094984D02*
X0086146Y0094984D01*
X0086146Y0093785D02*
X0090811Y0093785D01*
X0091412Y0092587D02*
X0086146Y0092587D01*
X0086146Y0091388D02*
X0092360Y0091388D01*
X0093896Y0090190D02*
X0086146Y0090190D01*
X0086146Y0088991D02*
X0130330Y0088991D01*
X0129131Y0087793D02*
X0086146Y0087793D01*
X0086146Y0086594D02*
X0127933Y0086594D01*
X0126734Y0085396D02*
X0086146Y0085396D01*
X0086146Y0084197D02*
X0125536Y0084197D01*
X0124337Y0082999D02*
X0086146Y0082999D01*
X0086146Y0081800D02*
X0095911Y0081800D01*
X0096924Y0081800D02*
X0098124Y0081800D01*
X0099136Y0081800D02*
X0123139Y0081800D01*
X0121940Y0080602D02*
X0101765Y0080602D01*
X0103055Y0079403D02*
X0120742Y0079403D01*
X0119543Y0078205D02*
X0103865Y0078205D01*
X0104388Y0077006D02*
X0118345Y0077006D01*
X0117146Y0075808D02*
X0104659Y0075808D01*
X0104617Y0073411D02*
X0114749Y0073411D01*
X0115948Y0074609D02*
X0098124Y0074609D01*
X0098124Y0075808D02*
X0096924Y0075808D01*
X0096924Y0077006D02*
X0098124Y0077006D01*
X0098124Y0078205D02*
X0096924Y0078205D01*
X0096924Y0079403D02*
X0098124Y0079403D01*
X0098124Y0080602D02*
X0096924Y0080602D01*
X0093283Y0080602D02*
X0086146Y0080602D01*
X0086146Y0079403D02*
X0091992Y0079403D01*
X0091182Y0078205D02*
X0086146Y0078205D01*
X0086146Y0077006D02*
X0090659Y0077006D01*
X0090388Y0075808D02*
X0086146Y0075808D01*
X0086146Y0074609D02*
X0096924Y0074609D01*
X0093757Y0068617D02*
X0091864Y0068617D01*
X0092279Y0069815D02*
X0090665Y0069815D01*
X0091365Y0071014D02*
X0089467Y0071014D01*
X0088268Y0072212D02*
X0090778Y0072212D01*
X0090430Y0073411D02*
X0087070Y0073411D01*
X0085530Y0071014D02*
X0071383Y0071014D01*
X0071437Y0070604D02*
X0071286Y0071747D01*
X0070984Y0072876D01*
X0070536Y0073955D01*
X0069952Y0074967D01*
X0069241Y0075895D01*
X0068414Y0076721D01*
X0067487Y0077432D01*
X0066475Y0078017D01*
X0065395Y0078464D01*
X0064267Y0078766D01*
X0063124Y0078917D01*
X0063124Y0070604D01*
X0071437Y0070604D01*
X0071437Y0069404D02*
X0063124Y0069404D01*
X0063124Y0070604D01*
X0061924Y0070604D01*
X0061924Y0078917D01*
X0060781Y0078766D01*
X0059652Y0078464D01*
X0058572Y0078017D01*
X0057560Y0077432D01*
X0056633Y0076721D01*
X0055807Y0075895D01*
X0055095Y0074967D01*
X0054511Y0073955D01*
X0054064Y0072876D01*
X0053761Y0071747D01*
X0053611Y0070604D01*
X0061924Y0070604D01*
X0061924Y0069404D01*
X0063124Y0069404D01*
X0063124Y0061091D01*
X0064267Y0061242D01*
X0065395Y0061544D01*
X0066475Y0061991D01*
X0067487Y0062576D01*
X0068414Y0063287D01*
X0069241Y0064113D01*
X0069952Y0065040D01*
X0070536Y0066052D01*
X0070984Y0067132D01*
X0071286Y0068261D01*
X0071437Y0069404D01*
X0071333Y0068617D02*
X0087927Y0068617D01*
X0086728Y0069815D02*
X0063124Y0069815D01*
X0063124Y0068617D02*
X0061924Y0068617D01*
X0061924Y0069404D02*
X0061924Y0061091D01*
X0060781Y0061242D01*
X0059652Y0061544D01*
X0058572Y0061991D01*
X0057560Y0062576D01*
X0056633Y0063287D01*
X0055807Y0064113D01*
X0055095Y0065040D01*
X0054511Y0066052D01*
X0054064Y0067132D01*
X0053761Y0068261D01*
X0053611Y0069404D01*
X0061924Y0069404D01*
X0061924Y0069815D02*
X0050713Y0069815D01*
X0050713Y0068617D02*
X0053714Y0068617D01*
X0053987Y0067418D02*
X0050713Y0067418D01*
X0050713Y0066461D02*
X0050713Y0080240D01*
X0076303Y0080240D01*
X0090083Y0066461D01*
X0103862Y0066461D01*
X0109768Y0060555D01*
X0109768Y0031028D01*
X0107799Y0029059D01*
X0088114Y0029059D01*
X0050713Y0066461D01*
X0050954Y0066220D02*
X0054442Y0066220D01*
X0055110Y0065021D02*
X0052152Y0065021D01*
X0053351Y0063823D02*
X0056097Y0063823D01*
X0057497Y0062624D02*
X0054549Y0062624D01*
X0055748Y0061426D02*
X0060094Y0061426D01*
X0061924Y0061426D02*
X0063124Y0061426D01*
X0063124Y0062624D02*
X0061924Y0062624D01*
X0061924Y0063823D02*
X0063124Y0063823D01*
X0063124Y0065021D02*
X0061924Y0065021D01*
X0061924Y0066220D02*
X0063124Y0066220D01*
X0063124Y0067418D02*
X0061924Y0067418D01*
X0061924Y0071014D02*
X0063124Y0071014D01*
X0063124Y0072212D02*
X0061924Y0072212D01*
X0061924Y0073411D02*
X0063124Y0073411D01*
X0063124Y0074609D02*
X0061924Y0074609D01*
X0061924Y0075808D02*
X0063124Y0075808D01*
X0063124Y0077006D02*
X0061924Y0077006D01*
X0061924Y0078205D02*
X0063124Y0078205D01*
X0066021Y0078205D02*
X0078339Y0078205D01*
X0079537Y0077006D02*
X0068042Y0077006D01*
X0069307Y0075808D02*
X0080736Y0075808D01*
X0081934Y0074609D02*
X0070159Y0074609D01*
X0070762Y0073411D02*
X0083133Y0073411D01*
X0084331Y0072212D02*
X0071161Y0072212D01*
X0071060Y0067418D02*
X0089125Y0067418D01*
X0092759Y0063665D02*
X0092091Y0062997D01*
X0091516Y0062247D01*
X0091043Y0061428D01*
X0090681Y0060555D01*
X0090437Y0059642D01*
X0090330Y0058832D01*
X0096924Y0058832D01*
X0096924Y0057632D01*
X0098124Y0057632D01*
X0098124Y0058832D01*
X0104717Y0058832D01*
X0104610Y0059642D01*
X0104366Y0060555D01*
X0104004Y0061428D01*
X0103532Y0062247D01*
X0102956Y0062997D01*
X0102288Y0063665D01*
X0101538Y0064240D01*
X0100719Y0064713D01*
X0099846Y0065075D01*
X0098933Y0065319D01*
X0098124Y0065426D01*
X0098124Y0058832D01*
X0096924Y0058832D01*
X0096924Y0065426D01*
X0096114Y0065319D01*
X0095201Y0065075D01*
X0094328Y0064713D01*
X0093509Y0064240D01*
X0092759Y0063665D01*
X0092965Y0063823D02*
X0068950Y0063823D01*
X0069937Y0065021D02*
X0095072Y0065021D01*
X0096924Y0065021D02*
X0098124Y0065021D01*
X0098124Y0063823D02*
X0096924Y0063823D01*
X0096924Y0062624D02*
X0098124Y0062624D01*
X0098124Y0061426D02*
X0096924Y0061426D01*
X0096924Y0060227D02*
X0098124Y0060227D01*
X0098124Y0059029D02*
X0096924Y0059029D01*
X0096924Y0057830D02*
X0059343Y0057830D01*
X0058145Y0059029D02*
X0090356Y0059029D01*
X0090594Y0060227D02*
X0056946Y0060227D01*
X0060542Y0056632D02*
X0090488Y0056632D01*
X0090437Y0056823D02*
X0090681Y0055910D01*
X0091043Y0055036D01*
X0091516Y0054218D01*
X0092091Y0053468D01*
X0092759Y0052800D01*
X0093509Y0052224D01*
X0094328Y0051752D01*
X0095201Y0051390D01*
X0096114Y0051145D01*
X0096924Y0051039D01*
X0096924Y0057632D01*
X0090330Y0057632D01*
X0090437Y0056823D01*
X0090879Y0055433D02*
X0061740Y0055433D01*
X0062939Y0054234D02*
X0091506Y0054234D01*
X0092523Y0053036D02*
X0064137Y0053036D01*
X0065336Y0051837D02*
X0094179Y0051837D01*
X0096924Y0051837D02*
X0098124Y0051837D01*
X0098124Y0051039D02*
X0098933Y0051145D01*
X0099846Y0051390D01*
X0100719Y0051752D01*
X0101538Y0052224D01*
X0102288Y0052800D01*
X0102956Y0053468D01*
X0103532Y0054218D01*
X0104004Y0055036D01*
X0104366Y0055910D01*
X0104610Y0056823D01*
X0104717Y0057632D01*
X0098124Y0057632D01*
X0098124Y0051039D01*
X0098124Y0053036D02*
X0096924Y0053036D01*
X0096924Y0054234D02*
X0098124Y0054234D01*
X0098124Y0055433D02*
X0096924Y0055433D01*
X0096924Y0056632D02*
X0098124Y0056632D01*
X0098124Y0057830D02*
X0109768Y0057830D01*
X0109768Y0056632D02*
X0104559Y0056632D01*
X0104168Y0055433D02*
X0109768Y0055433D01*
X0109768Y0054234D02*
X0103541Y0054234D01*
X0102524Y0053036D02*
X0109768Y0053036D01*
X0109768Y0051837D02*
X0100868Y0051837D01*
X0104691Y0059029D02*
X0109768Y0059029D01*
X0109768Y0060227D02*
X0104454Y0060227D01*
X0104005Y0061426D02*
X0108897Y0061426D01*
X0107699Y0062624D02*
X0103242Y0062624D01*
X0102082Y0063823D02*
X0106500Y0063823D01*
X0105302Y0065021D02*
X0099975Y0065021D01*
X0101290Y0068617D02*
X0109955Y0068617D01*
X0111154Y0069815D02*
X0102768Y0069815D01*
X0103682Y0071014D02*
X0112352Y0071014D01*
X0113551Y0072212D02*
X0104269Y0072212D01*
X0104103Y0066220D02*
X0070606Y0066220D01*
X0067550Y0062624D02*
X0091805Y0062624D01*
X0091042Y0061426D02*
X0064953Y0061426D01*
X0066534Y0050639D02*
X0109768Y0050639D01*
X0109768Y0049440D02*
X0067733Y0049440D01*
X0068931Y0048242D02*
X0109768Y0048242D01*
X0109768Y0047043D02*
X0070130Y0047043D01*
X0071328Y0045845D02*
X0109768Y0045845D01*
X0109768Y0044646D02*
X0072527Y0044646D01*
X0073725Y0043448D02*
X0095302Y0043448D01*
X0095201Y0043421D02*
X0094328Y0043059D01*
X0093509Y0042587D01*
X0092759Y0042011D01*
X0092091Y0041343D01*
X0091516Y0040593D01*
X0091043Y0039775D01*
X0090681Y0038901D01*
X0090437Y0037988D01*
X0090330Y0037179D01*
X0096924Y0037179D01*
X0096924Y0043772D01*
X0096114Y0043666D01*
X0095201Y0043421D01*
X0096924Y0043448D02*
X0098124Y0043448D01*
X0098124Y0043772D02*
X0098124Y0037179D01*
X0104717Y0037179D01*
X0104610Y0037988D01*
X0104366Y0038901D01*
X0104004Y0039775D01*
X0103532Y0040593D01*
X0102956Y0041343D01*
X0102288Y0042011D01*
X0101538Y0042587D01*
X0100719Y0043059D01*
X0099846Y0043421D01*
X0098933Y0043666D01*
X0098124Y0043772D01*
X0098124Y0042249D02*
X0096924Y0042249D01*
X0096924Y0041051D02*
X0098124Y0041051D01*
X0098124Y0039852D02*
X0096924Y0039852D01*
X0096924Y0038654D02*
X0098124Y0038654D01*
X0098124Y0037455D02*
X0096924Y0037455D01*
X0096924Y0037179D02*
X0098124Y0037179D01*
X0098124Y0035979D01*
X0104717Y0035979D01*
X0104610Y0035169D01*
X0104366Y0034256D01*
X0104004Y0033383D01*
X0103532Y0032564D01*
X0102956Y0031814D01*
X0102288Y0031146D01*
X0101538Y0030571D01*
X0100719Y0030098D01*
X0099846Y0029737D01*
X0098933Y0029492D01*
X0098124Y0029385D01*
X0098124Y0035979D01*
X0096924Y0035979D01*
X0096924Y0029385D01*
X0096114Y0029492D01*
X0095201Y0029737D01*
X0094328Y0030098D01*
X0093509Y0030571D01*
X0092759Y0031146D01*
X0092091Y0031814D01*
X0091516Y0032564D01*
X0091043Y0033383D01*
X0090681Y0034256D01*
X0090437Y0035169D01*
X0090330Y0035979D01*
X0096924Y0035979D01*
X0096924Y0037179D01*
X0096924Y0036257D02*
X0080916Y0036257D01*
X0079718Y0037455D02*
X0090367Y0037455D01*
X0090615Y0038654D02*
X0078519Y0038654D01*
X0077321Y0039852D02*
X0091088Y0039852D01*
X0091867Y0041051D02*
X0076122Y0041051D01*
X0074924Y0042249D02*
X0093070Y0042249D01*
X0090466Y0035058D02*
X0082115Y0035058D01*
X0083313Y0033860D02*
X0090846Y0033860D01*
X0091460Y0032661D02*
X0084512Y0032661D01*
X0085710Y0031463D02*
X0092443Y0031463D01*
X0094040Y0030264D02*
X0086909Y0030264D01*
X0088107Y0029066D02*
X0107806Y0029066D01*
X0109004Y0030264D02*
X0101007Y0030264D01*
X0102604Y0031463D02*
X0109768Y0031463D01*
X0109768Y0032661D02*
X0103588Y0032661D01*
X0104202Y0033860D02*
X0109768Y0033860D01*
X0109768Y0035058D02*
X0104581Y0035058D01*
X0104681Y0037455D02*
X0109768Y0037455D01*
X0109768Y0036257D02*
X0098124Y0036257D01*
X0098124Y0035058D02*
X0096924Y0035058D01*
X0096924Y0033860D02*
X0098124Y0033860D01*
X0098124Y0032661D02*
X0096924Y0032661D01*
X0096924Y0031463D02*
X0098124Y0031463D01*
X0098124Y0030264D02*
X0096924Y0030264D01*
X0104432Y0038654D02*
X0109768Y0038654D01*
X0109768Y0039852D02*
X0103959Y0039852D01*
X0103180Y0041051D02*
X0109768Y0041051D01*
X0109768Y0042249D02*
X0101978Y0042249D01*
X0099746Y0043448D02*
X0109768Y0043448D01*
X0098933Y0089334D02*
X0098124Y0089228D01*
X0098124Y0095821D01*
X0104717Y0095821D01*
X0104610Y0095012D01*
X0104366Y0094099D01*
X0104004Y0093225D01*
X0103532Y0092407D01*
X0102956Y0091657D01*
X0102288Y0090989D01*
X0101538Y0090413D01*
X0100719Y0089941D01*
X0099846Y0089579D01*
X0098933Y0089334D01*
X0098124Y0090190D02*
X0096924Y0090190D01*
X0096924Y0091388D02*
X0098124Y0091388D01*
X0098124Y0092587D02*
X0096924Y0092587D01*
X0096924Y0093785D02*
X0098124Y0093785D01*
X0098124Y0094984D02*
X0096924Y0094984D01*
X0096924Y0096182D02*
X0086340Y0096182D01*
X0077140Y0079403D02*
X0050713Y0079403D01*
X0050713Y0078205D02*
X0059026Y0078205D01*
X0057005Y0077006D02*
X0050713Y0077006D01*
X0050713Y0075808D02*
X0055740Y0075808D01*
X0054888Y0074609D02*
X0050713Y0074609D01*
X0050713Y0073411D02*
X0054285Y0073411D01*
X0053886Y0072212D02*
X0050713Y0072212D01*
X0050713Y0071014D02*
X0053665Y0071014D01*
X0054362Y0129741D02*
X0090774Y0129741D01*
X0090996Y0130939D02*
X0053163Y0130939D01*
X0051965Y0132138D02*
X0091428Y0132138D01*
X0092150Y0133336D02*
X0050766Y0133336D01*
X0050713Y0134535D02*
X0093249Y0134535D01*
X0096924Y0103373D02*
X0098124Y0103373D01*
X0098124Y0102175D02*
X0096924Y0102175D01*
X0096924Y0100976D02*
X0098124Y0100976D01*
X0098124Y0099778D02*
X0096924Y0099778D01*
X0096924Y0098579D02*
X0098124Y0098579D01*
X0098124Y0097381D02*
X0096924Y0097381D01*
X0098124Y0096182D02*
X0133390Y0096182D01*
X0133390Y0094984D02*
X0104603Y0094984D01*
X0104236Y0093785D02*
X0133390Y0093785D01*
X0133390Y0092587D02*
X0103635Y0092587D01*
X0102688Y0091388D02*
X0132727Y0091388D01*
X0131528Y0090190D02*
X0101151Y0090190D01*
X0104670Y0097381D02*
X0133390Y0097381D01*
X0133390Y0098579D02*
X0104410Y0098579D01*
X0103911Y0099778D02*
X0133390Y0099778D01*
X0133390Y0100976D02*
X0103117Y0100976D01*
X0101869Y0102175D02*
X0133390Y0102175D01*
X0133390Y0103373D02*
X0099436Y0103373D01*
X0133099Y0165696D02*
X0138485Y0165696D01*
X0139684Y0164498D02*
X0135232Y0164498D01*
X0136430Y0163299D02*
X0140882Y0163299D01*
X0141264Y0162101D02*
X0137216Y0162101D01*
X0137716Y0160902D02*
X0141264Y0160902D01*
X0131421Y0190865D02*
X0104895Y0190865D01*
X0104451Y0192063D02*
X0131421Y0192063D01*
X0131421Y0193262D02*
X0103699Y0193262D01*
X0102556Y0194460D02*
X0131421Y0194460D01*
X0131421Y0195659D02*
X0100484Y0195659D01*
X0098606Y0208842D02*
X0050713Y0208842D01*
X0050713Y0210041D02*
X0099805Y0210041D01*
X0101003Y0211239D02*
X0065611Y0211239D01*
X0067821Y0212438D02*
X0102202Y0212438D01*
X0103400Y0213637D02*
X0069158Y0213637D01*
X0070061Y0214835D02*
X0104599Y0214835D01*
X0105797Y0216034D02*
X0070692Y0216034D01*
X0059527Y0228019D02*
X0050713Y0228019D01*
X0050713Y0229217D02*
X0093502Y0229217D01*
X0101439Y0217232D02*
X0106996Y0217232D01*
X0108194Y0218431D02*
X0103037Y0218431D01*
X0104020Y0219629D02*
X0109393Y0219629D01*
X0109768Y0220828D02*
X0104634Y0220828D01*
X0105014Y0222026D02*
X0109768Y0222026D01*
X0109768Y0247195D02*
X0104887Y0247195D01*
X0104439Y0248393D02*
X0108937Y0248393D01*
X0107739Y0249592D02*
X0103676Y0249592D01*
X0102516Y0250790D02*
X0106540Y0250790D01*
X0057275Y0226820D02*
X0050713Y0226820D01*
X0050713Y0225622D02*
X0055927Y0225622D01*
X0055008Y0224423D02*
X0050713Y0224423D01*
X0050713Y0223225D02*
X0054371Y0223225D01*
X0053942Y0222026D02*
X0050713Y0222026D01*
X0050713Y0220828D02*
X0053692Y0220828D01*
D19*
X0006391Y0013352D02*
X0009479Y0009479D01*
X0013352Y0006391D01*
X0017816Y0004241D01*
X0022645Y0003139D01*
X0025122Y0003000D01*
X0138712Y0003000D01*
X0138740Y0003026D01*
X0139328Y0003000D01*
X0139472Y0003000D01*
X0141733Y0003029D01*
X0146394Y0003881D01*
X0150748Y0005750D01*
X0154577Y0008540D01*
X0157690Y0012113D01*
X0159929Y0016288D01*
X0161183Y0020858D01*
X0161417Y0023205D01*
X0161417Y0290284D01*
X0161394Y0290309D01*
X0161417Y0290900D01*
X0161417Y0291004D01*
X0161377Y0293523D01*
X0160427Y0298614D01*
X0158368Y0303366D01*
X0155304Y0307540D01*
X0151388Y0310928D01*
X0146815Y0313360D01*
X0141817Y0314713D01*
X0139248Y0314961D01*
X0025122Y0314961D01*
X0022645Y0314822D01*
X0017816Y0313719D01*
X0013352Y0311570D01*
X0013352Y0311570D01*
X0009479Y0308481D01*
X0006391Y0304608D01*
X0004241Y0300145D01*
X0003139Y0295315D01*
X0003000Y0292839D01*
X0003000Y0025122D01*
X0003139Y0022645D01*
X0004241Y0017816D01*
X0006391Y0013352D01*
X0006328Y0013482D02*
X0019321Y0013482D01*
X0019557Y0013356D02*
X0020737Y0012867D01*
X0021959Y0012496D01*
X0023212Y0012247D01*
X0024483Y0012122D01*
X0024622Y0012122D01*
X0024622Y0024622D01*
X0025622Y0024622D01*
X0025622Y0012122D01*
X0025761Y0012122D01*
X0027032Y0012247D01*
X0028285Y0012496D01*
X0029507Y0012867D01*
X0030687Y0013356D01*
X0031813Y0013958D01*
X0032875Y0014668D01*
X0033863Y0015478D01*
X0034766Y0016381D01*
X0035576Y0017369D01*
X0036286Y0018431D01*
X0036888Y0019557D01*
X0037377Y0020737D01*
X0037748Y0021959D01*
X0037997Y0023212D01*
X0038122Y0024483D01*
X0038122Y0024622D01*
X0025622Y0024622D01*
X0025622Y0025622D01*
X0038122Y0025622D01*
X0038122Y0025761D01*
X0037997Y0027032D01*
X0037748Y0028285D01*
X0037377Y0029507D01*
X0036888Y0030687D01*
X0036286Y0031813D01*
X0035576Y0032875D01*
X0034766Y0033863D01*
X0033863Y0034766D01*
X0032875Y0035576D01*
X0031813Y0036286D01*
X0030687Y0036888D01*
X0029507Y0037377D01*
X0028285Y0037748D01*
X0027032Y0037997D01*
X0025761Y0038122D01*
X0025622Y0038122D01*
X0025622Y0025622D01*
X0024622Y0025622D01*
X0024622Y0024622D01*
X0012122Y0024622D01*
X0012122Y0024483D01*
X0012247Y0023212D01*
X0012496Y0021959D01*
X0012867Y0020737D01*
X0013356Y0019557D01*
X0013958Y0018431D01*
X0014668Y0017369D01*
X0015478Y0016381D01*
X0016381Y0015478D01*
X0017369Y0014668D01*
X0018431Y0013958D01*
X0019557Y0013356D01*
X0017649Y0014481D02*
X0005847Y0014481D01*
X0005367Y0015479D02*
X0016380Y0015479D01*
X0015399Y0016478D02*
X0004886Y0016478D01*
X0004405Y0017476D02*
X0014596Y0017476D01*
X0013935Y0018475D02*
X0004091Y0018475D01*
X0003863Y0019473D02*
X0013401Y0019473D01*
X0012977Y0020472D02*
X0003635Y0020472D01*
X0003407Y0021470D02*
X0012645Y0021470D01*
X0012395Y0022469D02*
X0003179Y0022469D01*
X0003093Y0023467D02*
X0012222Y0023467D01*
X0012124Y0024466D02*
X0003037Y0024466D01*
X0003000Y0025464D02*
X0024622Y0025464D01*
X0024622Y0025622D02*
X0012122Y0025622D01*
X0012122Y0025761D01*
X0012247Y0027032D01*
X0012496Y0028285D01*
X0012867Y0029507D01*
X0013356Y0030687D01*
X0013958Y0031813D01*
X0014668Y0032875D01*
X0015478Y0033863D01*
X0016381Y0034766D01*
X0017369Y0035576D01*
X0018431Y0036286D01*
X0019557Y0036888D01*
X0020737Y0037377D01*
X0021959Y0037748D01*
X0023212Y0037997D01*
X0024483Y0038122D01*
X0024622Y0038122D01*
X0024622Y0025622D01*
X0024622Y0026463D02*
X0025622Y0026463D01*
X0025622Y0027461D02*
X0024622Y0027461D01*
X0024622Y0028460D02*
X0025622Y0028460D01*
X0025622Y0029458D02*
X0024622Y0029458D01*
X0024622Y0030457D02*
X0025622Y0030457D01*
X0025622Y0031455D02*
X0024622Y0031455D01*
X0024622Y0032454D02*
X0025622Y0032454D01*
X0025622Y0033452D02*
X0024622Y0033452D01*
X0024622Y0034451D02*
X0025622Y0034451D01*
X0025622Y0035449D02*
X0024622Y0035449D01*
X0024622Y0036448D02*
X0025622Y0036448D01*
X0025622Y0037446D02*
X0024622Y0037446D01*
X0020966Y0037446D02*
X0003000Y0037446D01*
X0003000Y0036448D02*
X0018734Y0036448D01*
X0017214Y0035449D02*
X0003000Y0035449D01*
X0003000Y0034451D02*
X0016066Y0034451D01*
X0015141Y0033452D02*
X0003000Y0033452D01*
X0003000Y0032454D02*
X0014386Y0032454D01*
X0013767Y0031455D02*
X0003000Y0031455D01*
X0003000Y0030457D02*
X0013261Y0030457D01*
X0012852Y0029458D02*
X0003000Y0029458D01*
X0003000Y0028460D02*
X0012550Y0028460D01*
X0012333Y0027461D02*
X0003000Y0027461D01*
X0003000Y0026463D02*
X0012191Y0026463D01*
X0007084Y0012484D02*
X0022024Y0012484D01*
X0024622Y0012484D02*
X0025622Y0012484D01*
X0025622Y0013482D02*
X0024622Y0013482D01*
X0024622Y0014481D02*
X0025622Y0014481D01*
X0025622Y0015479D02*
X0024622Y0015479D01*
X0024622Y0016478D02*
X0025622Y0016478D01*
X0025622Y0017476D02*
X0024622Y0017476D01*
X0024622Y0018475D02*
X0025622Y0018475D01*
X0025622Y0019473D02*
X0024622Y0019473D01*
X0024622Y0020472D02*
X0025622Y0020472D01*
X0025622Y0021470D02*
X0024622Y0021470D01*
X0024622Y0022469D02*
X0025622Y0022469D01*
X0025622Y0023467D02*
X0024622Y0023467D01*
X0024622Y0024466D02*
X0025622Y0024466D01*
X0025622Y0025464D02*
X0138795Y0025464D01*
X0138795Y0025622D02*
X0138795Y0024622D01*
X0126295Y0024622D01*
X0126295Y0024483D01*
X0126420Y0023212D01*
X0126670Y0021959D01*
X0127040Y0020737D01*
X0127529Y0019557D01*
X0128131Y0018431D01*
X0128841Y0017369D01*
X0129651Y0016381D01*
X0130554Y0015478D01*
X0131542Y0014668D01*
X0132604Y0013958D01*
X0133730Y0013356D01*
X0134910Y0012867D01*
X0136133Y0012496D01*
X0137385Y0012247D01*
X0138657Y0012122D01*
X0138795Y0012122D01*
X0138795Y0024622D01*
X0139795Y0024622D01*
X0139795Y0012122D01*
X0139934Y0012122D01*
X0141205Y0012247D01*
X0142458Y0012496D01*
X0143680Y0012867D01*
X0144860Y0013356D01*
X0145987Y0013958D01*
X0147049Y0014668D01*
X0148036Y0015478D01*
X0148939Y0016381D01*
X0149750Y0017369D01*
X0150459Y0018431D01*
X0151061Y0019557D01*
X0151550Y0020737D01*
X0151921Y0021959D01*
X0152170Y0023212D01*
X0152295Y0024483D01*
X0152295Y0024622D01*
X0139795Y0024622D01*
X0139795Y0025622D01*
X0138795Y0025622D01*
X0126295Y0025622D01*
X0126295Y0025761D01*
X0126420Y0027032D01*
X0126670Y0028285D01*
X0127040Y0029507D01*
X0127529Y0030687D01*
X0128131Y0031813D01*
X0128841Y0032875D01*
X0129651Y0033863D01*
X0130554Y0034766D01*
X0131542Y0035576D01*
X0132604Y0036286D01*
X0133730Y0036888D01*
X0134910Y0037377D01*
X0136133Y0037748D01*
X0137385Y0037997D01*
X0138657Y0038122D01*
X0138795Y0038122D01*
X0138795Y0025622D01*
X0138795Y0026463D02*
X0139795Y0026463D01*
X0139795Y0025622D02*
X0139795Y0038122D01*
X0139934Y0038122D01*
X0141205Y0037997D01*
X0142458Y0037748D01*
X0143680Y0037377D01*
X0144860Y0036888D01*
X0145987Y0036286D01*
X0147049Y0035576D01*
X0148036Y0034766D01*
X0148939Y0033863D01*
X0149750Y0032875D01*
X0150459Y0031813D01*
X0151061Y0030687D01*
X0151550Y0029507D01*
X0151921Y0028285D01*
X0152170Y0027032D01*
X0152295Y0025761D01*
X0152295Y0025622D01*
X0139795Y0025622D01*
X0139795Y0025464D02*
X0161417Y0025464D01*
X0161417Y0024466D02*
X0152294Y0024466D01*
X0152195Y0023467D02*
X0161417Y0023467D01*
X0161344Y0022469D02*
X0152022Y0022469D01*
X0151772Y0021470D02*
X0161244Y0021470D01*
X0161077Y0020472D02*
X0151440Y0020472D01*
X0151016Y0019473D02*
X0160803Y0019473D01*
X0160529Y0018475D02*
X0150483Y0018475D01*
X0149821Y0017476D02*
X0160255Y0017476D01*
X0159981Y0016478D02*
X0149018Y0016478D01*
X0148037Y0015479D02*
X0159495Y0015479D01*
X0158959Y0014481D02*
X0146769Y0014481D01*
X0145096Y0013482D02*
X0158424Y0013482D01*
X0157888Y0012484D02*
X0142393Y0012484D01*
X0139795Y0012484D02*
X0138795Y0012484D01*
X0138795Y0013482D02*
X0139795Y0013482D01*
X0139795Y0014481D02*
X0138795Y0014481D01*
X0138795Y0015479D02*
X0139795Y0015479D01*
X0139795Y0016478D02*
X0138795Y0016478D01*
X0138795Y0017476D02*
X0139795Y0017476D01*
X0139795Y0018475D02*
X0138795Y0018475D01*
X0138795Y0019473D02*
X0139795Y0019473D01*
X0139795Y0020472D02*
X0138795Y0020472D01*
X0138795Y0021470D02*
X0139795Y0021470D01*
X0139795Y0022469D02*
X0138795Y0022469D01*
X0138795Y0023467D02*
X0139795Y0023467D01*
X0139795Y0024466D02*
X0138795Y0024466D01*
X0138795Y0027461D02*
X0139795Y0027461D01*
X0139795Y0028460D02*
X0138795Y0028460D01*
X0138795Y0029458D02*
X0139795Y0029458D01*
X0139795Y0030457D02*
X0138795Y0030457D01*
X0138795Y0031455D02*
X0139795Y0031455D01*
X0139795Y0032454D02*
X0138795Y0032454D01*
X0138795Y0033452D02*
X0139795Y0033452D01*
X0139795Y0034451D02*
X0138795Y0034451D01*
X0138795Y0035449D02*
X0139795Y0035449D01*
X0139795Y0036448D02*
X0138795Y0036448D01*
X0138795Y0037446D02*
X0139795Y0037446D01*
X0143451Y0037446D02*
X0161417Y0037446D01*
X0161417Y0036448D02*
X0145684Y0036448D01*
X0147203Y0035449D02*
X0161417Y0035449D01*
X0161417Y0034451D02*
X0148351Y0034451D01*
X0149276Y0033452D02*
X0161417Y0033452D01*
X0161417Y0032454D02*
X0150031Y0032454D01*
X0150651Y0031455D02*
X0161417Y0031455D01*
X0161417Y0030457D02*
X0151157Y0030457D01*
X0151565Y0029458D02*
X0161417Y0029458D01*
X0161417Y0028460D02*
X0151868Y0028460D01*
X0152085Y0027461D02*
X0161417Y0027461D01*
X0161417Y0026463D02*
X0152226Y0026463D01*
X0157143Y0011485D02*
X0007880Y0011485D01*
X0008676Y0010487D02*
X0156273Y0010487D01*
X0155403Y0009488D02*
X0009472Y0009488D01*
X0010721Y0008490D02*
X0154508Y0008490D01*
X0153138Y0007491D02*
X0011973Y0007491D01*
X0013225Y0006493D02*
X0151767Y0006493D01*
X0150152Y0005494D02*
X0015214Y0005494D01*
X0017288Y0004496D02*
X0147825Y0004496D01*
X0144294Y0003497D02*
X0021077Y0003497D01*
X0028220Y0012484D02*
X0136197Y0012484D01*
X0133494Y0013482D02*
X0030923Y0013482D01*
X0032595Y0014481D02*
X0131822Y0014481D01*
X0130553Y0015479D02*
X0033864Y0015479D01*
X0034845Y0016478D02*
X0129572Y0016478D01*
X0128769Y0017476D02*
X0035648Y0017476D01*
X0036309Y0018475D02*
X0128108Y0018475D01*
X0127574Y0019473D02*
X0036843Y0019473D01*
X0037267Y0020472D02*
X0127150Y0020472D01*
X0126818Y0021470D02*
X0037599Y0021470D01*
X0037849Y0022469D02*
X0126568Y0022469D01*
X0126395Y0023467D02*
X0038022Y0023467D01*
X0038120Y0024466D02*
X0126297Y0024466D01*
X0126364Y0026463D02*
X0038053Y0026463D01*
X0037911Y0027461D02*
X0087308Y0027461D01*
X0087410Y0027359D02*
X0108503Y0027359D01*
X0109499Y0028355D01*
X0111468Y0030323D01*
X0111468Y0061259D01*
X0110472Y0062255D01*
X0105998Y0066729D01*
X0110472Y0066729D01*
X0111468Y0067725D01*
X0135090Y0091347D01*
X0135090Y0144497D01*
X0142964Y0152371D01*
X0142964Y0163621D01*
X0141968Y0164617D01*
X0133121Y0173464D01*
X0133121Y0267952D01*
X0106535Y0294539D01*
X0093316Y0294539D01*
X0092320Y0293543D01*
X0091193Y0292416D01*
X0089171Y0294439D01*
X0064968Y0294439D01*
X0063068Y0296339D01*
X0060168Y0296339D01*
X0058118Y0294288D01*
X0058118Y0291389D01*
X0060168Y0289339D01*
X0063068Y0289339D01*
X0064968Y0291239D01*
X0087845Y0291239D01*
X0088930Y0290153D01*
X0086414Y0287637D01*
X0086414Y0260638D01*
X0087410Y0259643D01*
X0091884Y0255168D01*
X0085441Y0255168D01*
X0084446Y0254173D01*
X0063788Y0233515D01*
X0050008Y0233515D01*
X0049013Y0232519D01*
X0049013Y0207489D01*
X0050008Y0206493D01*
X0097790Y0206493D01*
X0084446Y0193149D01*
X0084446Y0168119D01*
X0085441Y0167123D01*
X0091884Y0160680D01*
X0057882Y0160680D01*
X0050008Y0152806D01*
X0049013Y0151810D01*
X0049013Y0132686D01*
X0060824Y0120875D01*
X0061819Y0119879D01*
X0107632Y0119879D01*
X0084446Y0096692D01*
X0084446Y0074502D01*
X0077007Y0081940D01*
X0050008Y0081940D01*
X0049013Y0080944D01*
X0049013Y0065756D01*
X0050008Y0064761D01*
X0087410Y0027359D01*
X0086309Y0028460D02*
X0037695Y0028460D01*
X0037392Y0029458D02*
X0085311Y0029458D01*
X0084312Y0030457D02*
X0036983Y0030457D01*
X0036477Y0031455D02*
X0083314Y0031455D01*
X0082315Y0032454D02*
X0035858Y0032454D01*
X0035103Y0033452D02*
X0081317Y0033452D01*
X0080318Y0034451D02*
X0034178Y0034451D01*
X0033030Y0035449D02*
X0079320Y0035449D01*
X0078321Y0036448D02*
X0031510Y0036448D01*
X0029278Y0037446D02*
X0077323Y0037446D01*
X0076324Y0038445D02*
X0003000Y0038445D01*
X0003000Y0039443D02*
X0075326Y0039443D01*
X0074327Y0040442D02*
X0003000Y0040442D01*
X0003000Y0041440D02*
X0073329Y0041440D01*
X0072330Y0042439D02*
X0003000Y0042439D01*
X0003000Y0043437D02*
X0071332Y0043437D01*
X0070333Y0044436D02*
X0003000Y0044436D01*
X0003000Y0045434D02*
X0069335Y0045434D01*
X0068336Y0046433D02*
X0003000Y0046433D01*
X0003000Y0047432D02*
X0067338Y0047432D01*
X0066339Y0048430D02*
X0003000Y0048430D01*
X0003000Y0049429D02*
X0065341Y0049429D01*
X0064342Y0050427D02*
X0003000Y0050427D01*
X0003000Y0051426D02*
X0063343Y0051426D01*
X0062345Y0052424D02*
X0041620Y0052424D01*
X0042201Y0052665D02*
X0043839Y0054303D01*
X0044726Y0056444D01*
X0044726Y0058761D01*
X0043839Y0060902D01*
X0042201Y0062540D01*
X0040060Y0063427D01*
X0037743Y0063427D01*
X0035602Y0062540D01*
X0033964Y0060902D01*
X0033077Y0058761D01*
X0033077Y0056444D01*
X0033964Y0054303D01*
X0035602Y0052665D01*
X0037743Y0051778D01*
X0040060Y0051778D01*
X0042201Y0052665D01*
X0042959Y0053423D02*
X0061346Y0053423D01*
X0060348Y0054421D02*
X0043888Y0054421D01*
X0044302Y0055420D02*
X0059349Y0055420D01*
X0058351Y0056418D02*
X0044715Y0056418D01*
X0044726Y0057417D02*
X0057352Y0057417D01*
X0056354Y0058415D02*
X0044726Y0058415D01*
X0044456Y0059414D02*
X0055355Y0059414D01*
X0054357Y0060412D02*
X0044042Y0060412D01*
X0043330Y0061411D02*
X0053358Y0061411D01*
X0052360Y0062409D02*
X0042332Y0062409D01*
X0040106Y0063408D02*
X0051361Y0063408D01*
X0050363Y0064406D02*
X0003000Y0064406D01*
X0003000Y0063408D02*
X0037697Y0063408D01*
X0035471Y0062409D02*
X0003000Y0062409D01*
X0003000Y0061411D02*
X0034473Y0061411D01*
X0033761Y0060412D02*
X0003000Y0060412D01*
X0003000Y0059414D02*
X0033348Y0059414D01*
X0033077Y0058415D02*
X0003000Y0058415D01*
X0003000Y0057417D02*
X0033077Y0057417D01*
X0033088Y0056418D02*
X0003000Y0056418D01*
X0003000Y0055420D02*
X0033501Y0055420D01*
X0033915Y0054421D02*
X0003000Y0054421D01*
X0003000Y0053423D02*
X0034844Y0053423D01*
X0036183Y0052424D02*
X0003000Y0052424D01*
X0003000Y0065405D02*
X0049364Y0065405D01*
X0049013Y0066403D02*
X0003000Y0066403D01*
X0003000Y0067402D02*
X0049013Y0067402D01*
X0049013Y0068400D02*
X0003000Y0068400D01*
X0003000Y0069399D02*
X0049013Y0069399D01*
X0049013Y0070397D02*
X0003000Y0070397D01*
X0003000Y0071396D02*
X0049013Y0071396D01*
X0049013Y0072394D02*
X0003000Y0072394D01*
X0003000Y0073393D02*
X0049013Y0073393D01*
X0049013Y0074391D02*
X0003000Y0074391D01*
X0003000Y0075390D02*
X0049013Y0075390D01*
X0049013Y0076388D02*
X0003000Y0076388D01*
X0003000Y0077387D02*
X0049013Y0077387D01*
X0049013Y0078385D02*
X0003000Y0078385D01*
X0003000Y0079384D02*
X0049013Y0079384D01*
X0049013Y0080382D02*
X0003000Y0080382D01*
X0003000Y0081381D02*
X0049449Y0081381D01*
X0056699Y0091709D02*
X0055882Y0092526D01*
X0055179Y0093443D01*
X0054601Y0094443D01*
X0054159Y0095511D01*
X0053859Y0096627D01*
X0053709Y0097773D01*
X0053709Y0097850D01*
X0062024Y0097850D01*
X0063024Y0097850D01*
X0063024Y0098850D01*
X0071339Y0098850D01*
X0071339Y0098928D01*
X0071188Y0100074D01*
X0070889Y0101190D01*
X0070446Y0102258D01*
X0069869Y0103258D01*
X0069165Y0104175D01*
X0068348Y0104992D01*
X0067431Y0105695D01*
X0066431Y0106273D01*
X0065363Y0106715D01*
X0064247Y0107015D01*
X0063101Y0107165D01*
X0063024Y0107165D01*
X0063024Y0098850D01*
X0062024Y0098850D01*
X0062024Y0097850D01*
X0062024Y0089535D01*
X0061946Y0089535D01*
X0060800Y0089686D01*
X0059684Y0089985D01*
X0058616Y0090428D01*
X0057616Y0091005D01*
X0056699Y0091709D01*
X0057146Y0091366D02*
X0003000Y0091366D01*
X0003000Y0090368D02*
X0058761Y0090368D01*
X0062024Y0090368D02*
X0063024Y0090368D01*
X0063024Y0089535D02*
X0063101Y0089535D01*
X0064247Y0089686D01*
X0065363Y0089985D01*
X0066431Y0090428D01*
X0067431Y0091005D01*
X0068348Y0091709D01*
X0069165Y0092526D01*
X0069869Y0093443D01*
X0070446Y0094443D01*
X0070889Y0095511D01*
X0071188Y0096627D01*
X0071339Y0097773D01*
X0071339Y0097850D01*
X0063024Y0097850D01*
X0063024Y0089535D01*
X0063024Y0091366D02*
X0062024Y0091366D01*
X0062024Y0092365D02*
X0063024Y0092365D01*
X0063024Y0093363D02*
X0062024Y0093363D01*
X0062024Y0094362D02*
X0063024Y0094362D01*
X0063024Y0095360D02*
X0062024Y0095360D01*
X0062024Y0096359D02*
X0063024Y0096359D01*
X0063024Y0097357D02*
X0062024Y0097357D01*
X0062024Y0098356D02*
X0003000Y0098356D01*
X0003000Y0099354D02*
X0053765Y0099354D01*
X0053709Y0098928D02*
X0053709Y0098850D01*
X0062024Y0098850D01*
X0062024Y0107165D01*
X0061946Y0107165D01*
X0060800Y0107015D01*
X0059684Y0106715D01*
X0058616Y0106273D01*
X0057616Y0105695D01*
X0056699Y0104992D01*
X0055882Y0104175D01*
X0055179Y0103258D01*
X0054601Y0102258D01*
X0054159Y0101190D01*
X0053859Y0100074D01*
X0053709Y0098928D01*
X0053934Y0100353D02*
X0003000Y0100353D01*
X0003000Y0101351D02*
X0054225Y0101351D01*
X0054654Y0102350D02*
X0003000Y0102350D01*
X0003000Y0103348D02*
X0055248Y0103348D01*
X0056054Y0104347D02*
X0003000Y0104347D01*
X0003000Y0105345D02*
X0036735Y0105345D01*
X0037743Y0104928D02*
X0040060Y0104928D01*
X0042201Y0105814D01*
X0043839Y0107453D01*
X0044726Y0109593D01*
X0044726Y0111911D01*
X0043839Y0114051D01*
X0042201Y0115690D01*
X0040060Y0116576D01*
X0037743Y0116576D01*
X0035602Y0115690D01*
X0033964Y0114051D01*
X0033077Y0111911D01*
X0033077Y0109593D01*
X0033964Y0107453D01*
X0035602Y0105814D01*
X0037743Y0104928D01*
X0035073Y0106344D02*
X0003000Y0106344D01*
X0003000Y0107342D02*
X0034074Y0107342D01*
X0033596Y0108341D02*
X0003000Y0108341D01*
X0003000Y0109339D02*
X0033182Y0109339D01*
X0033077Y0110338D02*
X0003000Y0110338D01*
X0003000Y0111336D02*
X0033077Y0111336D01*
X0033253Y0112335D02*
X0003000Y0112335D01*
X0003000Y0113333D02*
X0033666Y0113333D01*
X0034244Y0114332D02*
X0003000Y0114332D01*
X0003000Y0115330D02*
X0035243Y0115330D01*
X0037145Y0116329D02*
X0003000Y0116329D01*
X0003000Y0117327D02*
X0105081Y0117327D01*
X0106079Y0118326D02*
X0003000Y0118326D01*
X0003000Y0119324D02*
X0107078Y0119324D01*
X0104082Y0116329D02*
X0040658Y0116329D01*
X0042560Y0115330D02*
X0103084Y0115330D01*
X0102085Y0114332D02*
X0043559Y0114332D01*
X0044137Y0113333D02*
X0101087Y0113333D01*
X0100088Y0112335D02*
X0044550Y0112335D01*
X0044726Y0111336D02*
X0099090Y0111336D01*
X0098091Y0110338D02*
X0044726Y0110338D01*
X0044621Y0109339D02*
X0097093Y0109339D01*
X0096094Y0108341D02*
X0044207Y0108341D01*
X0043729Y0107342D02*
X0095096Y0107342D01*
X0094097Y0106344D02*
X0066261Y0106344D01*
X0067888Y0105345D02*
X0093099Y0105345D01*
X0092100Y0104347D02*
X0068994Y0104347D01*
X0069800Y0103348D02*
X0091101Y0103348D01*
X0090103Y0102350D02*
X0070393Y0102350D01*
X0070822Y0101351D02*
X0089104Y0101351D01*
X0088106Y0100353D02*
X0071113Y0100353D01*
X0071283Y0099354D02*
X0087107Y0099354D01*
X0086109Y0098356D02*
X0063024Y0098356D01*
X0063024Y0099354D02*
X0062024Y0099354D01*
X0062024Y0100353D02*
X0063024Y0100353D01*
X0063024Y0101351D02*
X0062024Y0101351D01*
X0062024Y0102350D02*
X0063024Y0102350D01*
X0063024Y0103348D02*
X0062024Y0103348D01*
X0062024Y0104347D02*
X0063024Y0104347D01*
X0063024Y0105345D02*
X0062024Y0105345D01*
X0062024Y0106344D02*
X0063024Y0106344D01*
X0058787Y0106344D02*
X0042730Y0106344D01*
X0041068Y0105345D02*
X0057159Y0105345D01*
X0053763Y0097357D02*
X0003000Y0097357D01*
X0003000Y0096359D02*
X0053931Y0096359D01*
X0054221Y0095360D02*
X0003000Y0095360D01*
X0003000Y0094362D02*
X0054648Y0094362D01*
X0055240Y0093363D02*
X0003000Y0093363D01*
X0003000Y0092365D02*
X0056043Y0092365D01*
X0066286Y0090368D02*
X0084446Y0090368D01*
X0084446Y0091366D02*
X0067902Y0091366D01*
X0069004Y0092365D02*
X0084446Y0092365D01*
X0084446Y0093363D02*
X0069808Y0093363D01*
X0070399Y0094362D02*
X0084446Y0094362D01*
X0084446Y0095360D02*
X0070826Y0095360D01*
X0071116Y0096359D02*
X0084446Y0096359D01*
X0085110Y0097357D02*
X0071284Y0097357D01*
X0077567Y0081381D02*
X0084446Y0081381D01*
X0084446Y0082379D02*
X0003000Y0082379D01*
X0003000Y0083378D02*
X0084446Y0083378D01*
X0084446Y0084376D02*
X0003000Y0084376D01*
X0003000Y0085375D02*
X0084446Y0085375D01*
X0084446Y0086373D02*
X0003000Y0086373D01*
X0003000Y0087372D02*
X0084446Y0087372D01*
X0084446Y0088370D02*
X0003000Y0088370D01*
X0003000Y0089369D02*
X0084446Y0089369D01*
X0084446Y0080382D02*
X0078565Y0080382D01*
X0079564Y0079384D02*
X0084446Y0079384D01*
X0084446Y0078385D02*
X0080562Y0078385D01*
X0081561Y0077387D02*
X0084446Y0077387D01*
X0084446Y0076388D02*
X0082559Y0076388D01*
X0083558Y0075390D02*
X0084446Y0075390D01*
X0106324Y0066403D02*
X0161417Y0066403D01*
X0161417Y0065405D02*
X0107322Y0065405D01*
X0108321Y0064406D02*
X0161417Y0064406D01*
X0161417Y0063408D02*
X0109319Y0063408D01*
X0110318Y0062409D02*
X0161417Y0062409D01*
X0161417Y0061411D02*
X0111316Y0061411D01*
X0111468Y0060412D02*
X0161417Y0060412D01*
X0161417Y0059414D02*
X0111468Y0059414D01*
X0111468Y0058415D02*
X0161417Y0058415D01*
X0161417Y0057417D02*
X0111468Y0057417D01*
X0111468Y0056418D02*
X0161417Y0056418D01*
X0161417Y0055420D02*
X0111468Y0055420D01*
X0111468Y0054421D02*
X0161417Y0054421D01*
X0161417Y0053423D02*
X0111468Y0053423D01*
X0111468Y0052424D02*
X0161417Y0052424D01*
X0161417Y0051426D02*
X0111468Y0051426D01*
X0111468Y0050427D02*
X0161417Y0050427D01*
X0161417Y0049429D02*
X0111468Y0049429D01*
X0111468Y0048430D02*
X0161417Y0048430D01*
X0161417Y0047432D02*
X0111468Y0047432D01*
X0111468Y0046433D02*
X0161417Y0046433D01*
X0161417Y0045434D02*
X0111468Y0045434D01*
X0111468Y0044436D02*
X0161417Y0044436D01*
X0161417Y0043437D02*
X0111468Y0043437D01*
X0111468Y0042439D02*
X0161417Y0042439D01*
X0161417Y0041440D02*
X0111468Y0041440D01*
X0111468Y0040442D02*
X0161417Y0040442D01*
X0161417Y0039443D02*
X0111468Y0039443D01*
X0111468Y0038445D02*
X0161417Y0038445D01*
X0161417Y0067402D02*
X0111144Y0067402D01*
X0112143Y0068400D02*
X0161417Y0068400D01*
X0161417Y0069399D02*
X0113142Y0069399D01*
X0114140Y0070397D02*
X0161417Y0070397D01*
X0161417Y0071396D02*
X0115139Y0071396D01*
X0116137Y0072394D02*
X0161417Y0072394D01*
X0161417Y0073393D02*
X0117136Y0073393D01*
X0118134Y0074391D02*
X0161417Y0074391D01*
X0161417Y0075390D02*
X0119133Y0075390D01*
X0120131Y0076388D02*
X0161417Y0076388D01*
X0161417Y0077387D02*
X0121130Y0077387D01*
X0122128Y0078385D02*
X0161417Y0078385D01*
X0161417Y0079384D02*
X0123127Y0079384D01*
X0124125Y0080382D02*
X0161417Y0080382D01*
X0161417Y0081381D02*
X0125124Y0081381D01*
X0126122Y0082379D02*
X0161417Y0082379D01*
X0161417Y0083378D02*
X0127121Y0083378D01*
X0128119Y0084376D02*
X0161417Y0084376D01*
X0161417Y0085375D02*
X0129118Y0085375D01*
X0130116Y0086373D02*
X0161417Y0086373D01*
X0161417Y0087372D02*
X0131115Y0087372D01*
X0132113Y0088370D02*
X0161417Y0088370D01*
X0161417Y0089369D02*
X0133112Y0089369D01*
X0134110Y0090368D02*
X0161417Y0090368D01*
X0161417Y0091366D02*
X0135090Y0091366D01*
X0135090Y0092365D02*
X0161417Y0092365D01*
X0161417Y0093363D02*
X0135090Y0093363D01*
X0135090Y0094362D02*
X0161417Y0094362D01*
X0161417Y0095360D02*
X0135090Y0095360D01*
X0135090Y0096359D02*
X0161417Y0096359D01*
X0161417Y0097357D02*
X0135090Y0097357D01*
X0135090Y0098356D02*
X0161417Y0098356D01*
X0161417Y0099354D02*
X0135090Y0099354D01*
X0135090Y0100353D02*
X0161417Y0100353D01*
X0161417Y0101351D02*
X0135090Y0101351D01*
X0135090Y0102350D02*
X0161417Y0102350D01*
X0161417Y0103348D02*
X0135090Y0103348D01*
X0135090Y0104347D02*
X0161417Y0104347D01*
X0161417Y0105345D02*
X0135090Y0105345D01*
X0135090Y0106344D02*
X0161417Y0106344D01*
X0161417Y0107342D02*
X0135090Y0107342D01*
X0135090Y0108341D02*
X0161417Y0108341D01*
X0161417Y0109339D02*
X0135090Y0109339D01*
X0135090Y0110338D02*
X0161417Y0110338D01*
X0161417Y0111336D02*
X0135090Y0111336D01*
X0135090Y0112335D02*
X0161417Y0112335D01*
X0161417Y0113333D02*
X0135090Y0113333D01*
X0135090Y0114332D02*
X0161417Y0114332D01*
X0161417Y0115330D02*
X0135090Y0115330D01*
X0135090Y0116329D02*
X0161417Y0116329D01*
X0161417Y0117327D02*
X0135090Y0117327D01*
X0135090Y0118326D02*
X0161417Y0118326D01*
X0161417Y0119324D02*
X0135090Y0119324D01*
X0135090Y0120323D02*
X0161417Y0120323D01*
X0161417Y0121321D02*
X0135090Y0121321D01*
X0135090Y0122320D02*
X0161417Y0122320D01*
X0161417Y0123318D02*
X0135090Y0123318D01*
X0135090Y0124317D02*
X0161417Y0124317D01*
X0161417Y0125315D02*
X0135090Y0125315D01*
X0135090Y0126314D02*
X0161417Y0126314D01*
X0161417Y0127312D02*
X0135090Y0127312D01*
X0135090Y0128311D02*
X0161417Y0128311D01*
X0161417Y0129309D02*
X0135090Y0129309D01*
X0135090Y0130308D02*
X0161417Y0130308D01*
X0161417Y0131306D02*
X0135090Y0131306D01*
X0135090Y0132305D02*
X0161417Y0132305D01*
X0161417Y0133303D02*
X0135090Y0133303D01*
X0135090Y0134302D02*
X0161417Y0134302D01*
X0161417Y0135301D02*
X0135090Y0135301D01*
X0135090Y0136299D02*
X0161417Y0136299D01*
X0161417Y0137298D02*
X0135090Y0137298D01*
X0135090Y0138296D02*
X0161417Y0138296D01*
X0161417Y0139295D02*
X0135090Y0139295D01*
X0135090Y0140293D02*
X0161417Y0140293D01*
X0161417Y0141292D02*
X0135090Y0141292D01*
X0135090Y0142290D02*
X0161417Y0142290D01*
X0161417Y0143289D02*
X0135090Y0143289D01*
X0135090Y0144287D02*
X0161417Y0144287D01*
X0161417Y0145286D02*
X0135879Y0145286D01*
X0136877Y0146284D02*
X0161417Y0146284D01*
X0161417Y0147283D02*
X0137876Y0147283D01*
X0138874Y0148281D02*
X0161417Y0148281D01*
X0161417Y0149280D02*
X0139873Y0149280D01*
X0140871Y0150278D02*
X0161417Y0150278D01*
X0161417Y0151277D02*
X0151468Y0151277D01*
X0151055Y0151277D02*
X0150055Y0151277D01*
X0150055Y0151222D02*
X0150055Y0158126D01*
X0143152Y0158126D01*
X0143276Y0157178D01*
X0143528Y0156240D01*
X0143899Y0155344D01*
X0144384Y0154503D01*
X0144975Y0153733D01*
X0145662Y0153046D01*
X0146432Y0152455D01*
X0147273Y0151970D01*
X0148170Y0151598D01*
X0149107Y0151347D01*
X0150055Y0151222D01*
X0149643Y0151277D02*
X0141870Y0151277D01*
X0142868Y0152275D02*
X0146744Y0152275D01*
X0145434Y0153274D02*
X0142964Y0153274D01*
X0142964Y0154272D02*
X0144561Y0154272D01*
X0143941Y0155271D02*
X0142964Y0155271D01*
X0142964Y0156269D02*
X0143520Y0156269D01*
X0143265Y0157268D02*
X0142964Y0157268D01*
X0142964Y0158266D02*
X0150055Y0158266D01*
X0150055Y0158126D02*
X0150055Y0159126D01*
X0143152Y0159126D01*
X0143276Y0160074D01*
X0143528Y0161012D01*
X0143899Y0161908D01*
X0144384Y0162749D01*
X0144975Y0163519D01*
X0145662Y0164206D01*
X0146432Y0164797D01*
X0147273Y0165282D01*
X0148170Y0165654D01*
X0149107Y0165905D01*
X0150055Y0166030D01*
X0150055Y0159126D01*
X0151055Y0159126D01*
X0151055Y0166030D01*
X0152003Y0165905D01*
X0152941Y0165654D01*
X0153838Y0165282D01*
X0154678Y0164797D01*
X0155448Y0164206D01*
X0156135Y0163519D01*
X0156726Y0162749D01*
X0157211Y0161908D01*
X0157583Y0161012D01*
X0157834Y0160074D01*
X0157959Y0159126D01*
X0151055Y0159126D01*
X0151055Y0158126D01*
X0151055Y0151222D01*
X0152003Y0151347D01*
X0152941Y0151598D01*
X0153838Y0151970D01*
X0154678Y0152455D01*
X0155448Y0153046D01*
X0156135Y0153733D01*
X0156726Y0154503D01*
X0157211Y0155344D01*
X0157583Y0156240D01*
X0157834Y0157178D01*
X0157959Y0158126D01*
X0151055Y0158126D01*
X0150055Y0158126D01*
X0150055Y0157268D02*
X0151055Y0157268D01*
X0151055Y0158266D02*
X0161417Y0158266D01*
X0161417Y0157268D02*
X0157846Y0157268D01*
X0157590Y0156269D02*
X0161417Y0156269D01*
X0161417Y0155271D02*
X0157169Y0155271D01*
X0156549Y0154272D02*
X0161417Y0154272D01*
X0161417Y0153274D02*
X0155676Y0153274D01*
X0154366Y0152275D02*
X0161417Y0152275D01*
X0161417Y0159265D02*
X0157940Y0159265D01*
X0157783Y0160263D02*
X0161417Y0160263D01*
X0161417Y0161262D02*
X0157479Y0161262D01*
X0157008Y0162260D02*
X0161417Y0162260D01*
X0161417Y0163259D02*
X0156335Y0163259D01*
X0155381Y0164257D02*
X0161417Y0164257D01*
X0161417Y0165256D02*
X0153883Y0165256D01*
X0151055Y0165256D02*
X0150055Y0165256D01*
X0150055Y0164257D02*
X0151055Y0164257D01*
X0151055Y0163259D02*
X0150055Y0163259D01*
X0150055Y0162260D02*
X0151055Y0162260D01*
X0151055Y0161262D02*
X0150055Y0161262D01*
X0150055Y0160263D02*
X0151055Y0160263D01*
X0151055Y0159265D02*
X0150055Y0159265D01*
X0150055Y0156269D02*
X0151055Y0156269D01*
X0151055Y0155271D02*
X0150055Y0155271D01*
X0150055Y0154272D02*
X0151055Y0154272D01*
X0151055Y0153274D02*
X0150055Y0153274D01*
X0150055Y0152275D02*
X0151055Y0152275D01*
X0143170Y0159265D02*
X0142964Y0159265D01*
X0142964Y0160263D02*
X0143327Y0160263D01*
X0143631Y0161262D02*
X0142964Y0161262D01*
X0142964Y0162260D02*
X0144102Y0162260D01*
X0144776Y0163259D02*
X0142964Y0163259D01*
X0142328Y0164257D02*
X0145729Y0164257D01*
X0147227Y0165256D02*
X0141329Y0165256D01*
X0141968Y0164617D02*
X0141968Y0164617D01*
X0140331Y0166254D02*
X0161417Y0166254D01*
X0161417Y0167253D02*
X0139332Y0167253D01*
X0138334Y0168251D02*
X0161417Y0168251D01*
X0161417Y0169250D02*
X0137335Y0169250D01*
X0136337Y0170248D02*
X0161417Y0170248D01*
X0161417Y0171247D02*
X0135338Y0171247D01*
X0134340Y0172245D02*
X0161417Y0172245D01*
X0161417Y0173244D02*
X0133341Y0173244D01*
X0133121Y0174242D02*
X0161417Y0174242D01*
X0161417Y0175241D02*
X0133121Y0175241D01*
X0133121Y0176239D02*
X0161417Y0176239D01*
X0161417Y0177238D02*
X0133121Y0177238D01*
X0133121Y0178237D02*
X0161417Y0178237D01*
X0161417Y0179235D02*
X0133121Y0179235D01*
X0133121Y0180234D02*
X0161417Y0180234D01*
X0161417Y0181232D02*
X0133121Y0181232D01*
X0133121Y0182231D02*
X0161417Y0182231D01*
X0161417Y0183229D02*
X0133121Y0183229D01*
X0133121Y0184228D02*
X0161417Y0184228D01*
X0161417Y0185226D02*
X0133121Y0185226D01*
X0133121Y0186225D02*
X0161417Y0186225D01*
X0161417Y0187223D02*
X0133121Y0187223D01*
X0133121Y0188222D02*
X0161417Y0188222D01*
X0161417Y0189220D02*
X0133121Y0189220D01*
X0133121Y0190219D02*
X0161417Y0190219D01*
X0161417Y0191217D02*
X0133121Y0191217D01*
X0133121Y0192216D02*
X0161417Y0192216D01*
X0161417Y0193214D02*
X0133121Y0193214D01*
X0133121Y0194213D02*
X0161417Y0194213D01*
X0161417Y0195211D02*
X0133121Y0195211D01*
X0133121Y0196210D02*
X0161417Y0196210D01*
X0161417Y0197208D02*
X0133121Y0197208D01*
X0133121Y0198207D02*
X0161417Y0198207D01*
X0161417Y0199205D02*
X0133121Y0199205D01*
X0133121Y0200204D02*
X0161417Y0200204D01*
X0161417Y0201202D02*
X0133121Y0201202D01*
X0133121Y0202201D02*
X0161417Y0202201D01*
X0161417Y0203199D02*
X0133121Y0203199D01*
X0133121Y0204198D02*
X0161417Y0204198D01*
X0161417Y0205196D02*
X0133121Y0205196D01*
X0133121Y0206195D02*
X0161417Y0206195D01*
X0161417Y0207193D02*
X0133121Y0207193D01*
X0133121Y0208192D02*
X0161417Y0208192D01*
X0161417Y0209190D02*
X0133121Y0209190D01*
X0133121Y0210189D02*
X0161417Y0210189D01*
X0161417Y0211187D02*
X0133121Y0211187D01*
X0133121Y0212186D02*
X0161417Y0212186D01*
X0161417Y0213184D02*
X0133121Y0213184D01*
X0133121Y0214183D02*
X0161417Y0214183D01*
X0161417Y0215181D02*
X0133121Y0215181D01*
X0133121Y0216180D02*
X0161417Y0216180D01*
X0161417Y0217178D02*
X0133121Y0217178D01*
X0133121Y0218177D02*
X0161417Y0218177D01*
X0161417Y0219175D02*
X0133121Y0219175D01*
X0133121Y0220174D02*
X0161417Y0220174D01*
X0161417Y0221172D02*
X0133121Y0221172D01*
X0133121Y0222171D02*
X0161417Y0222171D01*
X0161417Y0223170D02*
X0133121Y0223170D01*
X0133121Y0224168D02*
X0161417Y0224168D01*
X0161417Y0225167D02*
X0133121Y0225167D01*
X0133121Y0226165D02*
X0161417Y0226165D01*
X0161417Y0227164D02*
X0133121Y0227164D01*
X0133121Y0228162D02*
X0161417Y0228162D01*
X0161417Y0229161D02*
X0133121Y0229161D01*
X0133121Y0230159D02*
X0161417Y0230159D01*
X0161417Y0231158D02*
X0133121Y0231158D01*
X0133121Y0232156D02*
X0161417Y0232156D01*
X0161417Y0233155D02*
X0133121Y0233155D01*
X0133121Y0234153D02*
X0161417Y0234153D01*
X0161417Y0235152D02*
X0133121Y0235152D01*
X0133121Y0236150D02*
X0161417Y0236150D01*
X0161417Y0237149D02*
X0133121Y0237149D01*
X0133121Y0238147D02*
X0161417Y0238147D01*
X0161417Y0239146D02*
X0133121Y0239146D01*
X0133121Y0240144D02*
X0161417Y0240144D01*
X0161417Y0241143D02*
X0133121Y0241143D01*
X0133121Y0242141D02*
X0161417Y0242141D01*
X0161417Y0243140D02*
X0133121Y0243140D01*
X0133121Y0244138D02*
X0161417Y0244138D01*
X0161417Y0245137D02*
X0133121Y0245137D01*
X0133121Y0246135D02*
X0161417Y0246135D01*
X0161417Y0247134D02*
X0133121Y0247134D01*
X0133121Y0248132D02*
X0161417Y0248132D01*
X0161417Y0249131D02*
X0133121Y0249131D01*
X0133121Y0250129D02*
X0161417Y0250129D01*
X0161417Y0251128D02*
X0133121Y0251128D01*
X0133121Y0252126D02*
X0161417Y0252126D01*
X0161417Y0253125D02*
X0133121Y0253125D01*
X0133121Y0254123D02*
X0161417Y0254123D01*
X0161417Y0255122D02*
X0133121Y0255122D01*
X0133121Y0256120D02*
X0161417Y0256120D01*
X0161417Y0257119D02*
X0133121Y0257119D01*
X0133121Y0258117D02*
X0161417Y0258117D01*
X0161417Y0259116D02*
X0133121Y0259116D01*
X0133121Y0260114D02*
X0161417Y0260114D01*
X0161417Y0261113D02*
X0133121Y0261113D01*
X0133121Y0262111D02*
X0161417Y0262111D01*
X0161417Y0263110D02*
X0133121Y0263110D01*
X0133121Y0264108D02*
X0161417Y0264108D01*
X0161417Y0265107D02*
X0133121Y0265107D01*
X0133121Y0266105D02*
X0161417Y0266105D01*
X0161417Y0267104D02*
X0133121Y0267104D01*
X0132971Y0268103D02*
X0161417Y0268103D01*
X0161417Y0269101D02*
X0131972Y0269101D01*
X0130974Y0270100D02*
X0161417Y0270100D01*
X0161417Y0271098D02*
X0129975Y0271098D01*
X0128977Y0272097D02*
X0161417Y0272097D01*
X0161417Y0273095D02*
X0127978Y0273095D01*
X0126980Y0274094D02*
X0161417Y0274094D01*
X0161417Y0275092D02*
X0125981Y0275092D01*
X0124983Y0276091D02*
X0161417Y0276091D01*
X0161417Y0277089D02*
X0123984Y0277089D01*
X0122986Y0278088D02*
X0161417Y0278088D01*
X0161417Y0279086D02*
X0121987Y0279086D01*
X0120989Y0280085D02*
X0136778Y0280085D01*
X0137385Y0279964D02*
X0138657Y0279839D01*
X0138795Y0279839D01*
X0138795Y0292339D01*
X0126295Y0292339D01*
X0126295Y0292200D01*
X0126420Y0290929D01*
X0126670Y0289676D01*
X0127040Y0288454D01*
X0127529Y0287274D01*
X0128131Y0286147D01*
X0128841Y0285085D01*
X0129651Y0284098D01*
X0130554Y0283195D01*
X0131542Y0282384D01*
X0132604Y0281675D01*
X0133730Y0281073D01*
X0134910Y0280584D01*
X0136133Y0280213D01*
X0137385Y0279964D01*
X0138795Y0280085D02*
X0139795Y0280085D01*
X0139795Y0279839D02*
X0139934Y0279839D01*
X0141205Y0279964D01*
X0142458Y0280213D01*
X0143680Y0280584D01*
X0144860Y0281073D01*
X0145987Y0281675D01*
X0147049Y0282384D01*
X0148036Y0283195D01*
X0148939Y0284098D01*
X0149750Y0285085D01*
X0150459Y0286147D01*
X0151061Y0287274D01*
X0151550Y0288454D01*
X0151921Y0289676D01*
X0152170Y0290929D01*
X0152295Y0292200D01*
X0152295Y0292339D01*
X0139795Y0292339D01*
X0139795Y0293339D01*
X0138795Y0293339D01*
X0138795Y0305839D01*
X0138657Y0305839D01*
X0137385Y0305713D01*
X0136133Y0305464D01*
X0134910Y0305093D01*
X0133730Y0304605D01*
X0132604Y0304002D01*
X0131542Y0303293D01*
X0130554Y0302483D01*
X0129651Y0301579D01*
X0128841Y0300592D01*
X0128131Y0299530D01*
X0127529Y0298403D01*
X0127040Y0297223D01*
X0126670Y0296001D01*
X0126420Y0294748D01*
X0126295Y0293477D01*
X0126295Y0293339D01*
X0138795Y0293339D01*
X0138795Y0292339D01*
X0139795Y0292339D01*
X0139795Y0279839D01*
X0139795Y0281083D02*
X0138795Y0281083D01*
X0138795Y0282082D02*
X0139795Y0282082D01*
X0139795Y0283080D02*
X0138795Y0283080D01*
X0138795Y0284079D02*
X0139795Y0284079D01*
X0139795Y0285077D02*
X0138795Y0285077D01*
X0138795Y0286076D02*
X0139795Y0286076D01*
X0139795Y0287074D02*
X0138795Y0287074D01*
X0138795Y0288073D02*
X0139795Y0288073D01*
X0139795Y0289071D02*
X0138795Y0289071D01*
X0138795Y0290070D02*
X0139795Y0290070D01*
X0139795Y0291068D02*
X0138795Y0291068D01*
X0138795Y0292067D02*
X0139795Y0292067D01*
X0139795Y0293065D02*
X0161384Y0293065D01*
X0161400Y0292067D02*
X0152282Y0292067D01*
X0152184Y0291068D02*
X0161416Y0291068D01*
X0161417Y0290070D02*
X0151999Y0290070D01*
X0151737Y0289071D02*
X0161417Y0289071D01*
X0161417Y0288073D02*
X0151392Y0288073D01*
X0150955Y0287074D02*
X0161417Y0287074D01*
X0161417Y0286076D02*
X0150411Y0286076D01*
X0149743Y0285077D02*
X0161417Y0285077D01*
X0161417Y0284079D02*
X0148920Y0284079D01*
X0147897Y0283080D02*
X0161417Y0283080D01*
X0161417Y0282082D02*
X0146596Y0282082D01*
X0144880Y0281083D02*
X0161417Y0281083D01*
X0161417Y0280085D02*
X0141813Y0280085D01*
X0138795Y0293065D02*
X0108008Y0293065D01*
X0109007Y0292067D02*
X0126308Y0292067D01*
X0126407Y0291068D02*
X0110005Y0291068D01*
X0111004Y0290070D02*
X0126591Y0290070D01*
X0126853Y0289071D02*
X0112002Y0289071D01*
X0113001Y0288073D02*
X0127198Y0288073D01*
X0127636Y0287074D02*
X0113999Y0287074D01*
X0114998Y0286076D02*
X0128179Y0286076D01*
X0128847Y0285077D02*
X0115996Y0285077D01*
X0116995Y0284079D02*
X0129670Y0284079D01*
X0130694Y0283080D02*
X0117993Y0283080D01*
X0118992Y0282082D02*
X0131995Y0282082D01*
X0133710Y0281083D02*
X0119990Y0281083D01*
X0126353Y0294064D02*
X0107010Y0294064D01*
X0097957Y0283390D02*
X0088508Y0292839D01*
X0061618Y0292839D01*
X0064344Y0295062D02*
X0126483Y0295062D01*
X0126688Y0296061D02*
X0063346Y0296061D01*
X0064798Y0291068D02*
X0088015Y0291068D01*
X0088847Y0290070D02*
X0063799Y0290070D01*
X0062210Y0286526D02*
X0061703Y0286661D01*
X0060449Y0286661D01*
X0060449Y0283480D01*
X0063433Y0283480D01*
X0063433Y0284932D01*
X0063297Y0285438D01*
X0063035Y0285892D01*
X0062664Y0286263D01*
X0062210Y0286526D01*
X0062852Y0286076D02*
X0086414Y0286076D01*
X0086414Y0287074D02*
X0054803Y0287074D01*
X0054872Y0287005D02*
X0053218Y0288659D01*
X0053218Y0289489D01*
X0055118Y0291389D01*
X0055118Y0294288D01*
X0053068Y0296339D01*
X0050168Y0296339D01*
X0048118Y0294288D01*
X0048118Y0291389D01*
X0050018Y0289489D01*
X0050018Y0287333D01*
X0051113Y0286239D01*
X0050203Y0285329D01*
X0050203Y0280663D01*
X0051136Y0279731D01*
X0055408Y0279731D01*
X0056340Y0280663D01*
X0056340Y0285329D01*
X0055408Y0286261D01*
X0054872Y0286261D01*
X0054872Y0287005D01*
X0055593Y0286076D02*
X0057077Y0286076D01*
X0056894Y0285892D02*
X0056632Y0285438D01*
X0056496Y0284932D01*
X0056496Y0283480D01*
X0059480Y0283480D01*
X0059480Y0282512D01*
X0056496Y0282512D01*
X0056496Y0281061D01*
X0056632Y0280554D01*
X0056894Y0280100D01*
X0057265Y0279729D01*
X0057719Y0279466D01*
X0058226Y0279331D01*
X0059480Y0279331D01*
X0059480Y0282512D01*
X0060449Y0282512D01*
X0060449Y0283480D01*
X0059480Y0283480D01*
X0059480Y0286661D01*
X0058226Y0286661D01*
X0057719Y0286526D01*
X0057265Y0286263D01*
X0056894Y0285892D01*
X0056535Y0285077D02*
X0056340Y0285077D01*
X0056340Y0284079D02*
X0056496Y0284079D01*
X0056340Y0283080D02*
X0059480Y0283080D01*
X0060449Y0283080D02*
X0086414Y0283080D01*
X0086414Y0282082D02*
X0063433Y0282082D01*
X0063433Y0282512D02*
X0060449Y0282512D01*
X0060449Y0279331D01*
X0061703Y0279331D01*
X0062210Y0279466D01*
X0062664Y0279729D01*
X0063035Y0280100D01*
X0063297Y0280554D01*
X0063433Y0281061D01*
X0063433Y0282512D01*
X0063433Y0281083D02*
X0086414Y0281083D01*
X0086414Y0280085D02*
X0063020Y0280085D01*
X0060449Y0280085D02*
X0059480Y0280085D01*
X0059480Y0281083D02*
X0060449Y0281083D01*
X0060449Y0282082D02*
X0059480Y0282082D01*
X0059480Y0284079D02*
X0060449Y0284079D01*
X0060449Y0285077D02*
X0059480Y0285077D01*
X0059480Y0286076D02*
X0060449Y0286076D01*
X0063394Y0285077D02*
X0086414Y0285077D01*
X0086414Y0284079D02*
X0063433Y0284079D01*
X0059437Y0290070D02*
X0053799Y0290070D01*
X0053218Y0289071D02*
X0087848Y0289071D01*
X0086850Y0288073D02*
X0053804Y0288073D01*
X0053272Y0286343D02*
X0051618Y0287996D01*
X0051618Y0292839D01*
X0054344Y0295062D02*
X0058892Y0295062D01*
X0058118Y0294064D02*
X0055118Y0294064D01*
X0055118Y0293065D02*
X0058118Y0293065D01*
X0058118Y0292067D02*
X0055118Y0292067D01*
X0054798Y0291068D02*
X0058439Y0291068D01*
X0059891Y0296061D02*
X0053346Y0296061D01*
X0049891Y0296061D02*
X0037730Y0296061D01*
X0037748Y0296001D02*
X0037377Y0297223D01*
X0036888Y0298403D01*
X0036286Y0299530D01*
X0035576Y0300592D01*
X0034766Y0301579D01*
X0033863Y0302483D01*
X0032875Y0303293D01*
X0031813Y0304002D01*
X0030687Y0304605D01*
X0029507Y0305093D01*
X0028285Y0305464D01*
X0027032Y0305713D01*
X0025761Y0305839D01*
X0025622Y0305839D01*
X0025622Y0293339D01*
X0024622Y0293339D01*
X0024622Y0305839D01*
X0024483Y0305839D01*
X0023212Y0305713D01*
X0021959Y0305464D01*
X0020737Y0305093D01*
X0019557Y0304605D01*
X0018431Y0304002D01*
X0017369Y0303293D01*
X0016381Y0302483D01*
X0015478Y0301579D01*
X0014668Y0300592D01*
X0013958Y0299530D01*
X0013356Y0298403D01*
X0012867Y0297223D01*
X0012496Y0296001D01*
X0012247Y0294748D01*
X0012122Y0293477D01*
X0012122Y0293339D01*
X0024622Y0293339D01*
X0024622Y0292339D01*
X0012122Y0292339D01*
X0012122Y0292200D01*
X0012247Y0290929D01*
X0012496Y0289676D01*
X0012867Y0288454D01*
X0013356Y0287274D01*
X0013958Y0286147D01*
X0014668Y0285085D01*
X0015478Y0284098D01*
X0016381Y0283195D01*
X0017369Y0282384D01*
X0018431Y0281675D01*
X0019557Y0281073D01*
X0020737Y0280584D01*
X0021959Y0280213D01*
X0023212Y0279964D01*
X0024483Y0279839D01*
X0024622Y0279839D01*
X0024622Y0292339D01*
X0025622Y0292339D01*
X0025622Y0293339D01*
X0038122Y0293339D01*
X0038122Y0293477D01*
X0037997Y0294748D01*
X0037748Y0296001D01*
X0037934Y0295062D02*
X0048892Y0295062D01*
X0048118Y0294064D02*
X0038064Y0294064D01*
X0038122Y0292339D02*
X0025622Y0292339D01*
X0025622Y0279839D01*
X0025761Y0279839D01*
X0027032Y0279964D01*
X0028285Y0280213D01*
X0029507Y0280584D01*
X0030687Y0281073D01*
X0031813Y0281675D01*
X0032875Y0282384D01*
X0033863Y0283195D01*
X0034766Y0284098D01*
X0035576Y0285085D01*
X0036286Y0286147D01*
X0036888Y0287274D01*
X0037377Y0288454D01*
X0037748Y0289676D01*
X0037997Y0290929D01*
X0038122Y0292200D01*
X0038122Y0292339D01*
X0038109Y0292067D02*
X0048118Y0292067D01*
X0048118Y0293065D02*
X0025622Y0293065D01*
X0025622Y0292067D02*
X0024622Y0292067D01*
X0024622Y0293065D02*
X0003013Y0293065D01*
X0003000Y0292067D02*
X0012135Y0292067D01*
X0012234Y0291068D02*
X0003000Y0291068D01*
X0003000Y0290070D02*
X0012418Y0290070D01*
X0012680Y0289071D02*
X0003000Y0289071D01*
X0003000Y0288073D02*
X0013025Y0288073D01*
X0013463Y0287074D02*
X0003000Y0287074D01*
X0003000Y0286076D02*
X0014006Y0286076D01*
X0014674Y0285077D02*
X0003000Y0285077D01*
X0003000Y0284079D02*
X0015497Y0284079D01*
X0016521Y0283080D02*
X0003000Y0283080D01*
X0003000Y0282082D02*
X0017821Y0282082D01*
X0019537Y0281083D02*
X0003000Y0281083D01*
X0003000Y0280085D02*
X0022605Y0280085D01*
X0024622Y0280085D02*
X0025622Y0280085D01*
X0025622Y0281083D02*
X0024622Y0281083D01*
X0024622Y0282082D02*
X0025622Y0282082D01*
X0025622Y0283080D02*
X0024622Y0283080D01*
X0024622Y0284079D02*
X0025622Y0284079D01*
X0025622Y0285077D02*
X0024622Y0285077D01*
X0024622Y0286076D02*
X0025622Y0286076D01*
X0025622Y0287074D02*
X0024622Y0287074D01*
X0024622Y0288073D02*
X0025622Y0288073D01*
X0025622Y0289071D02*
X0024622Y0289071D01*
X0024622Y0290070D02*
X0025622Y0290070D01*
X0025622Y0291068D02*
X0024622Y0291068D01*
X0024622Y0294064D02*
X0025622Y0294064D01*
X0025622Y0295062D02*
X0024622Y0295062D01*
X0024622Y0296061D02*
X0025622Y0296061D01*
X0025622Y0297059D02*
X0024622Y0297059D01*
X0024622Y0298058D02*
X0025622Y0298058D01*
X0025622Y0299056D02*
X0024622Y0299056D01*
X0024622Y0300055D02*
X0025622Y0300055D01*
X0025622Y0301053D02*
X0024622Y0301053D01*
X0024622Y0302052D02*
X0025622Y0302052D01*
X0025622Y0303050D02*
X0024622Y0303050D01*
X0024622Y0304049D02*
X0025622Y0304049D01*
X0025622Y0305047D02*
X0024622Y0305047D01*
X0020626Y0305047D02*
X0006741Y0305047D01*
X0006121Y0304049D02*
X0018518Y0304049D01*
X0017073Y0303050D02*
X0005641Y0303050D01*
X0005160Y0302052D02*
X0015951Y0302052D01*
X0015046Y0301053D02*
X0004679Y0301053D01*
X0004221Y0300055D02*
X0014309Y0300055D01*
X0013705Y0299056D02*
X0003993Y0299056D01*
X0003765Y0298058D02*
X0013213Y0298058D01*
X0012817Y0297059D02*
X0003537Y0297059D01*
X0003309Y0296061D02*
X0012515Y0296061D01*
X0012310Y0295062D02*
X0003125Y0295062D01*
X0003069Y0294064D02*
X0012180Y0294064D01*
X0007537Y0306046D02*
X0156401Y0306046D01*
X0155668Y0307044D02*
X0008334Y0307044D01*
X0009130Y0308043D02*
X0154723Y0308043D01*
X0153569Y0309041D02*
X0010182Y0309041D01*
X0011434Y0310040D02*
X0152414Y0310040D01*
X0151180Y0311039D02*
X0012686Y0311039D01*
X0014322Y0312037D02*
X0149303Y0312037D01*
X0147425Y0313036D02*
X0016396Y0313036D01*
X0019195Y0314034D02*
X0144325Y0314034D01*
X0142458Y0305464D02*
X0141205Y0305713D01*
X0139934Y0305839D01*
X0139795Y0305839D01*
X0139795Y0293339D01*
X0152295Y0293339D01*
X0152295Y0293477D01*
X0152170Y0294748D01*
X0151921Y0296001D01*
X0151550Y0297223D01*
X0151061Y0298403D01*
X0150459Y0299530D01*
X0149750Y0300592D01*
X0148939Y0301579D01*
X0148036Y0302483D01*
X0147049Y0303293D01*
X0145987Y0304002D01*
X0144860Y0304605D01*
X0143680Y0305093D01*
X0142458Y0305464D01*
X0143791Y0305047D02*
X0157134Y0305047D01*
X0157867Y0304049D02*
X0145900Y0304049D01*
X0147344Y0303050D02*
X0158505Y0303050D01*
X0158938Y0302052D02*
X0148467Y0302052D01*
X0149371Y0301053D02*
X0159370Y0301053D01*
X0159803Y0300055D02*
X0150108Y0300055D01*
X0150712Y0299056D02*
X0160235Y0299056D01*
X0160531Y0298058D02*
X0151204Y0298058D01*
X0151600Y0297059D02*
X0160717Y0297059D01*
X0160903Y0296061D02*
X0151903Y0296061D01*
X0152108Y0295062D02*
X0161090Y0295062D01*
X0161276Y0294064D02*
X0152238Y0294064D01*
X0139795Y0294064D02*
X0138795Y0294064D01*
X0138795Y0295062D02*
X0139795Y0295062D01*
X0139795Y0296061D02*
X0138795Y0296061D01*
X0138795Y0297059D02*
X0139795Y0297059D01*
X0139795Y0298058D02*
X0138795Y0298058D01*
X0138795Y0299056D02*
X0139795Y0299056D01*
X0139795Y0300055D02*
X0138795Y0300055D01*
X0138795Y0301053D02*
X0139795Y0301053D01*
X0139795Y0302052D02*
X0138795Y0302052D01*
X0138795Y0303050D02*
X0139795Y0303050D01*
X0139795Y0304049D02*
X0138795Y0304049D01*
X0138795Y0305047D02*
X0139795Y0305047D01*
X0134799Y0305047D02*
X0029618Y0305047D01*
X0031727Y0304049D02*
X0132691Y0304049D01*
X0131246Y0303050D02*
X0033171Y0303050D01*
X0034293Y0302052D02*
X0130124Y0302052D01*
X0129220Y0301053D02*
X0035198Y0301053D01*
X0035935Y0300055D02*
X0128482Y0300055D01*
X0127878Y0299056D02*
X0036539Y0299056D01*
X0037031Y0298058D02*
X0127386Y0298058D01*
X0126991Y0297059D02*
X0037427Y0297059D01*
X0038011Y0291068D02*
X0048439Y0291068D01*
X0049437Y0290070D02*
X0037826Y0290070D01*
X0037564Y0289071D02*
X0050018Y0289071D01*
X0050018Y0288073D02*
X0037219Y0288073D01*
X0036781Y0287074D02*
X0050277Y0287074D01*
X0050950Y0286076D02*
X0036238Y0286076D01*
X0035570Y0285077D02*
X0050203Y0285077D01*
X0050203Y0284079D02*
X0034747Y0284079D01*
X0033723Y0283080D02*
X0050203Y0283080D01*
X0050203Y0282082D02*
X0032423Y0282082D01*
X0030707Y0281083D02*
X0050203Y0281083D01*
X0050782Y0280085D02*
X0027640Y0280085D01*
X0035602Y0265296D02*
X0033964Y0263658D01*
X0033077Y0261517D01*
X0033077Y0259200D01*
X0033964Y0257059D01*
X0035602Y0255421D01*
X0037743Y0254534D01*
X0040060Y0254534D01*
X0042201Y0255421D01*
X0043839Y0257059D01*
X0044726Y0259200D01*
X0044726Y0261517D01*
X0043839Y0263658D01*
X0042201Y0265296D01*
X0040060Y0266183D01*
X0037743Y0266183D01*
X0035602Y0265296D01*
X0035413Y0265107D02*
X0003000Y0265107D01*
X0003000Y0266105D02*
X0037557Y0266105D01*
X0040246Y0266105D02*
X0086414Y0266105D01*
X0086414Y0265107D02*
X0042390Y0265107D01*
X0043388Y0264108D02*
X0086414Y0264108D01*
X0086414Y0263110D02*
X0044066Y0263110D01*
X0044480Y0262111D02*
X0086414Y0262111D01*
X0086414Y0261113D02*
X0044726Y0261113D01*
X0044726Y0260114D02*
X0086938Y0260114D01*
X0087937Y0259116D02*
X0044691Y0259116D01*
X0044278Y0258117D02*
X0088935Y0258117D01*
X0089934Y0257119D02*
X0043864Y0257119D01*
X0042901Y0256120D02*
X0059198Y0256120D01*
X0059684Y0256322D02*
X0058616Y0255880D01*
X0057616Y0255302D01*
X0056699Y0254598D01*
X0055882Y0253781D01*
X0055179Y0252865D01*
X0054601Y0251864D01*
X0054159Y0250796D01*
X0053859Y0249680D01*
X0053709Y0248534D01*
X0053709Y0248457D01*
X0062024Y0248457D01*
X0062024Y0256772D01*
X0061946Y0256772D01*
X0060800Y0256621D01*
X0059684Y0256322D01*
X0057381Y0255122D02*
X0041480Y0255122D01*
X0036323Y0255122D02*
X0003000Y0255122D01*
X0003000Y0256120D02*
X0034902Y0256120D01*
X0033939Y0257119D02*
X0003000Y0257119D01*
X0003000Y0258117D02*
X0033525Y0258117D01*
X0033112Y0259116D02*
X0003000Y0259116D01*
X0003000Y0260114D02*
X0033077Y0260114D01*
X0033077Y0261113D02*
X0003000Y0261113D01*
X0003000Y0262111D02*
X0033323Y0262111D01*
X0033737Y0263110D02*
X0003000Y0263110D01*
X0003000Y0264108D02*
X0034415Y0264108D01*
X0049648Y0233155D02*
X0003000Y0233155D01*
X0003000Y0234153D02*
X0064426Y0234153D01*
X0065425Y0235152D02*
X0003000Y0235152D01*
X0003000Y0236150D02*
X0066423Y0236150D01*
X0067422Y0237149D02*
X0003000Y0237149D01*
X0003000Y0238147D02*
X0068420Y0238147D01*
X0069419Y0239146D02*
X0063131Y0239146D01*
X0063101Y0239142D02*
X0064247Y0239293D01*
X0065363Y0239592D01*
X0066431Y0240034D01*
X0067431Y0240612D01*
X0068348Y0241315D01*
X0069165Y0242132D01*
X0069869Y0243049D01*
X0070446Y0244050D01*
X0070889Y0245117D01*
X0071188Y0246233D01*
X0071339Y0247379D01*
X0071339Y0247457D01*
X0063024Y0247457D01*
X0063024Y0248457D01*
X0071339Y0248457D01*
X0071339Y0248534D01*
X0071188Y0249680D01*
X0070889Y0250796D01*
X0070446Y0251864D01*
X0069869Y0252865D01*
X0069165Y0253781D01*
X0068348Y0254598D01*
X0067431Y0255302D01*
X0066431Y0255880D01*
X0065363Y0256322D01*
X0064247Y0256621D01*
X0063101Y0256772D01*
X0063024Y0256772D01*
X0063024Y0248457D01*
X0062024Y0248457D01*
X0062024Y0247457D01*
X0053709Y0247457D01*
X0053709Y0247379D01*
X0053859Y0246233D01*
X0054159Y0245117D01*
X0054601Y0244050D01*
X0055179Y0243049D01*
X0055882Y0242132D01*
X0056699Y0241315D01*
X0057616Y0240612D01*
X0058616Y0240034D01*
X0059684Y0239592D01*
X0060800Y0239293D01*
X0061946Y0239142D01*
X0062024Y0239142D01*
X0062024Y0247457D01*
X0063024Y0247457D01*
X0063024Y0239142D01*
X0063101Y0239142D01*
X0063024Y0239146D02*
X0062024Y0239146D01*
X0061916Y0239146D02*
X0003000Y0239146D01*
X0003000Y0240144D02*
X0058425Y0240144D01*
X0056924Y0241143D02*
X0003000Y0241143D01*
X0003000Y0242141D02*
X0055875Y0242141D01*
X0055126Y0243140D02*
X0003000Y0243140D01*
X0003000Y0244138D02*
X0054564Y0244138D01*
X0054153Y0245137D02*
X0003000Y0245137D01*
X0003000Y0246135D02*
X0053886Y0246135D01*
X0053741Y0247134D02*
X0003000Y0247134D01*
X0003000Y0248132D02*
X0062024Y0248132D01*
X0062024Y0247134D02*
X0063024Y0247134D01*
X0063024Y0248132D02*
X0078405Y0248132D01*
X0077407Y0247134D02*
X0071306Y0247134D01*
X0071161Y0246135D02*
X0076408Y0246135D01*
X0075410Y0245137D02*
X0070894Y0245137D01*
X0070483Y0244138D02*
X0074411Y0244138D01*
X0073413Y0243140D02*
X0069921Y0243140D01*
X0069172Y0242141D02*
X0072414Y0242141D01*
X0071416Y0241143D02*
X0068124Y0241143D01*
X0066622Y0240144D02*
X0070417Y0240144D01*
X0071260Y0249131D02*
X0079404Y0249131D01*
X0080402Y0250129D02*
X0071067Y0250129D01*
X0070751Y0251128D02*
X0081401Y0251128D01*
X0082399Y0252126D02*
X0070295Y0252126D01*
X0069669Y0253125D02*
X0083398Y0253125D01*
X0084396Y0254123D02*
X0068823Y0254123D01*
X0067666Y0255122D02*
X0085395Y0255122D01*
X0090932Y0256120D02*
X0065849Y0256120D01*
X0063024Y0256120D02*
X0062024Y0256120D01*
X0062024Y0255122D02*
X0063024Y0255122D01*
X0063024Y0254123D02*
X0062024Y0254123D01*
X0062024Y0253125D02*
X0063024Y0253125D01*
X0063024Y0252126D02*
X0062024Y0252126D01*
X0062024Y0251128D02*
X0063024Y0251128D01*
X0063024Y0250129D02*
X0062024Y0250129D01*
X0062024Y0249131D02*
X0063024Y0249131D01*
X0063024Y0246135D02*
X0062024Y0246135D01*
X0062024Y0245137D02*
X0063024Y0245137D01*
X0063024Y0244138D02*
X0062024Y0244138D01*
X0062024Y0243140D02*
X0063024Y0243140D01*
X0063024Y0242141D02*
X0062024Y0242141D01*
X0062024Y0241143D02*
X0063024Y0241143D01*
X0063024Y0240144D02*
X0062024Y0240144D01*
X0055378Y0253125D02*
X0003000Y0253125D01*
X0003000Y0254123D02*
X0056224Y0254123D01*
X0054752Y0252126D02*
X0003000Y0252126D01*
X0003000Y0251128D02*
X0054296Y0251128D01*
X0053980Y0250129D02*
X0003000Y0250129D01*
X0003000Y0249131D02*
X0053787Y0249131D01*
X0049013Y0232156D02*
X0003000Y0232156D01*
X0003000Y0231158D02*
X0049013Y0231158D01*
X0049013Y0230159D02*
X0003000Y0230159D01*
X0003000Y0229161D02*
X0049013Y0229161D01*
X0049013Y0228162D02*
X0003000Y0228162D01*
X0003000Y0227164D02*
X0049013Y0227164D01*
X0049013Y0226165D02*
X0003000Y0226165D01*
X0003000Y0225167D02*
X0049013Y0225167D01*
X0049013Y0224168D02*
X0003000Y0224168D01*
X0003000Y0223170D02*
X0049013Y0223170D01*
X0049013Y0222171D02*
X0003000Y0222171D01*
X0003000Y0221172D02*
X0049013Y0221172D01*
X0049013Y0220174D02*
X0003000Y0220174D01*
X0003000Y0219175D02*
X0049013Y0219175D01*
X0049013Y0218177D02*
X0003000Y0218177D01*
X0003000Y0217178D02*
X0049013Y0217178D01*
X0049013Y0216180D02*
X0003000Y0216180D01*
X0003000Y0215181D02*
X0049013Y0215181D01*
X0049013Y0214183D02*
X0003000Y0214183D01*
X0003000Y0213184D02*
X0049013Y0213184D01*
X0049013Y0212186D02*
X0042105Y0212186D01*
X0042201Y0212146D02*
X0040060Y0213033D01*
X0037743Y0213033D01*
X0035602Y0212146D01*
X0033964Y0210508D01*
X0033077Y0208367D01*
X0033077Y0206050D01*
X0033964Y0203909D01*
X0035602Y0202271D01*
X0037743Y0201384D01*
X0040060Y0201384D01*
X0042201Y0202271D01*
X0043839Y0203909D01*
X0044726Y0206050D01*
X0044726Y0208367D01*
X0043839Y0210508D01*
X0042201Y0212146D01*
X0043160Y0211187D02*
X0049013Y0211187D01*
X0049013Y0210189D02*
X0043971Y0210189D01*
X0044385Y0209190D02*
X0049013Y0209190D01*
X0049013Y0208192D02*
X0044726Y0208192D01*
X0044726Y0207193D02*
X0049308Y0207193D01*
X0044726Y0206195D02*
X0097491Y0206195D01*
X0096493Y0205196D02*
X0044372Y0205196D01*
X0043959Y0204198D02*
X0095494Y0204198D01*
X0094496Y0203199D02*
X0043129Y0203199D01*
X0042031Y0202201D02*
X0093497Y0202201D01*
X0092499Y0201202D02*
X0003000Y0201202D01*
X0003000Y0200204D02*
X0091500Y0200204D01*
X0090502Y0199205D02*
X0003000Y0199205D01*
X0003000Y0198207D02*
X0089503Y0198207D01*
X0088505Y0197208D02*
X0003000Y0197208D01*
X0003000Y0196210D02*
X0087506Y0196210D01*
X0086508Y0195211D02*
X0003000Y0195211D01*
X0003000Y0194213D02*
X0085509Y0194213D01*
X0084511Y0193214D02*
X0003000Y0193214D01*
X0003000Y0192216D02*
X0084446Y0192216D01*
X0084446Y0191217D02*
X0040452Y0191217D01*
X0040060Y0191380D02*
X0037743Y0191380D01*
X0035602Y0190493D01*
X0033964Y0188854D01*
X0033077Y0186714D01*
X0033077Y0184397D01*
X0033964Y0182256D01*
X0035602Y0180617D01*
X0037743Y0179731D01*
X0040060Y0179731D01*
X0042201Y0180617D01*
X0043839Y0182256D01*
X0044726Y0184397D01*
X0044726Y0186714D01*
X0043839Y0188854D01*
X0042201Y0190493D01*
X0040060Y0191380D01*
X0042475Y0190219D02*
X0084446Y0190219D01*
X0084446Y0189220D02*
X0043474Y0189220D01*
X0044101Y0188222D02*
X0084446Y0188222D01*
X0084446Y0187223D02*
X0044515Y0187223D01*
X0044726Y0186225D02*
X0084446Y0186225D01*
X0084446Y0185226D02*
X0044726Y0185226D01*
X0044656Y0184228D02*
X0084446Y0184228D01*
X0084446Y0183229D02*
X0044242Y0183229D01*
X0043814Y0182231D02*
X0084446Y0182231D01*
X0084446Y0181232D02*
X0066055Y0181232D01*
X0066431Y0181076D02*
X0065363Y0181519D01*
X0064247Y0181818D01*
X0063101Y0181968D01*
X0063024Y0181968D01*
X0063024Y0173654D01*
X0062024Y0173654D01*
X0062024Y0181968D01*
X0061946Y0181968D01*
X0060800Y0181818D01*
X0059684Y0181519D01*
X0058616Y0181076D01*
X0057616Y0180499D01*
X0056699Y0179795D01*
X0055882Y0178978D01*
X0055179Y0178061D01*
X0054601Y0177061D01*
X0054159Y0175993D01*
X0053859Y0174877D01*
X0053709Y0173731D01*
X0053709Y0173654D01*
X0062024Y0173654D01*
X0062024Y0172654D01*
X0053709Y0172654D01*
X0053709Y0172576D01*
X0053859Y0171430D01*
X0054159Y0170314D01*
X0054601Y0169246D01*
X0055179Y0168246D01*
X0055882Y0167329D01*
X0056699Y0166512D01*
X0057616Y0165808D01*
X0058616Y0165231D01*
X0059684Y0164788D01*
X0060800Y0164489D01*
X0061946Y0164339D01*
X0062024Y0164339D01*
X0062024Y0172653D01*
X0063024Y0172653D01*
X0063024Y0172654D02*
X0063024Y0173654D01*
X0071339Y0173654D01*
X0071339Y0173731D01*
X0071188Y0174877D01*
X0070889Y0175993D01*
X0070446Y0177061D01*
X0069869Y0178061D01*
X0069165Y0178978D01*
X0068348Y0179795D01*
X0067431Y0180499D01*
X0066431Y0181076D01*
X0067777Y0180234D02*
X0084446Y0180234D01*
X0084446Y0179235D02*
X0068908Y0179235D01*
X0069734Y0178237D02*
X0084446Y0178237D01*
X0084446Y0177238D02*
X0070344Y0177238D01*
X0070787Y0176239D02*
X0084446Y0176239D01*
X0084446Y0175241D02*
X0071090Y0175241D01*
X0071271Y0174242D02*
X0084446Y0174242D01*
X0084446Y0173244D02*
X0063024Y0173244D01*
X0063024Y0172654D02*
X0071339Y0172654D01*
X0071339Y0172576D01*
X0071188Y0171430D01*
X0070889Y0170314D01*
X0070446Y0169246D01*
X0069869Y0168246D01*
X0069165Y0167329D01*
X0068348Y0166512D01*
X0067431Y0165808D01*
X0066431Y0165231D01*
X0065363Y0164788D01*
X0064247Y0164489D01*
X0063101Y0164339D01*
X0063024Y0164339D01*
X0063024Y0172653D01*
X0063024Y0172245D02*
X0062024Y0172245D01*
X0062024Y0171247D02*
X0063024Y0171247D01*
X0063024Y0170248D02*
X0062024Y0170248D01*
X0062024Y0169250D02*
X0063024Y0169250D01*
X0063024Y0168251D02*
X0062024Y0168251D01*
X0062024Y0167253D02*
X0063024Y0167253D01*
X0063024Y0166254D02*
X0062024Y0166254D01*
X0062024Y0165256D02*
X0063024Y0165256D01*
X0066474Y0165256D02*
X0087308Y0165256D01*
X0086310Y0166254D02*
X0068013Y0166254D01*
X0069089Y0167253D02*
X0085311Y0167253D01*
X0084446Y0168251D02*
X0069872Y0168251D01*
X0070448Y0169250D02*
X0084446Y0169250D01*
X0084446Y0170248D02*
X0070862Y0170248D01*
X0071139Y0171247D02*
X0084446Y0171247D01*
X0084446Y0172245D02*
X0071295Y0172245D01*
X0063024Y0174242D02*
X0062024Y0174242D01*
X0062024Y0173244D02*
X0003000Y0173244D01*
X0003000Y0174242D02*
X0053776Y0174242D01*
X0053957Y0175241D02*
X0003000Y0175241D01*
X0003000Y0176239D02*
X0054261Y0176239D01*
X0054703Y0177238D02*
X0003000Y0177238D01*
X0003000Y0178237D02*
X0055313Y0178237D01*
X0056139Y0179235D02*
X0003000Y0179235D01*
X0003000Y0180234D02*
X0036529Y0180234D01*
X0034988Y0181232D02*
X0003000Y0181232D01*
X0003000Y0182231D02*
X0033989Y0182231D01*
X0033561Y0183229D02*
X0003000Y0183229D01*
X0003000Y0184228D02*
X0033147Y0184228D01*
X0033077Y0185226D02*
X0003000Y0185226D01*
X0003000Y0186225D02*
X0033077Y0186225D01*
X0033288Y0187223D02*
X0003000Y0187223D01*
X0003000Y0188222D02*
X0033702Y0188222D01*
X0034330Y0189220D02*
X0003000Y0189220D01*
X0003000Y0190219D02*
X0035328Y0190219D01*
X0037351Y0191217D02*
X0003000Y0191217D01*
X0003000Y0202201D02*
X0035772Y0202201D01*
X0034674Y0203199D02*
X0003000Y0203199D01*
X0003000Y0204198D02*
X0033844Y0204198D01*
X0033431Y0205196D02*
X0003000Y0205196D01*
X0003000Y0206195D02*
X0033077Y0206195D01*
X0033077Y0207193D02*
X0003000Y0207193D01*
X0003000Y0208192D02*
X0033077Y0208192D01*
X0033418Y0209190D02*
X0003000Y0209190D01*
X0003000Y0210189D02*
X0033832Y0210189D01*
X0034643Y0211187D02*
X0003000Y0211187D01*
X0003000Y0212186D02*
X0035698Y0212186D01*
X0042815Y0181232D02*
X0058992Y0181232D01*
X0057270Y0180234D02*
X0041274Y0180234D01*
X0053752Y0172245D02*
X0003000Y0172245D01*
X0003000Y0171247D02*
X0053909Y0171247D01*
X0054186Y0170248D02*
X0003000Y0170248D01*
X0003000Y0169250D02*
X0054599Y0169250D01*
X0055175Y0168251D02*
X0003000Y0168251D01*
X0003000Y0167253D02*
X0055958Y0167253D01*
X0057035Y0166254D02*
X0003000Y0166254D01*
X0003000Y0165256D02*
X0058573Y0165256D01*
X0057465Y0160263D02*
X0003000Y0160263D01*
X0003000Y0159265D02*
X0056467Y0159265D01*
X0055468Y0158266D02*
X0003000Y0158266D01*
X0003000Y0157268D02*
X0054470Y0157268D01*
X0053471Y0156269D02*
X0003000Y0156269D01*
X0003000Y0155271D02*
X0052473Y0155271D01*
X0051474Y0154272D02*
X0003000Y0154272D01*
X0003000Y0153274D02*
X0050476Y0153274D01*
X0049477Y0152275D02*
X0003000Y0152275D01*
X0003000Y0151277D02*
X0049013Y0151277D01*
X0049013Y0150278D02*
X0003000Y0150278D01*
X0003000Y0149280D02*
X0049013Y0149280D01*
X0049013Y0148281D02*
X0003000Y0148281D01*
X0003000Y0147283D02*
X0049013Y0147283D01*
X0049013Y0146284D02*
X0003000Y0146284D01*
X0003000Y0145286D02*
X0049013Y0145286D01*
X0049013Y0144287D02*
X0003000Y0144287D01*
X0003000Y0143289D02*
X0049013Y0143289D01*
X0049013Y0142290D02*
X0003000Y0142290D01*
X0003000Y0141292D02*
X0049013Y0141292D01*
X0049013Y0140293D02*
X0003000Y0140293D01*
X0003000Y0139295D02*
X0049013Y0139295D01*
X0049013Y0138296D02*
X0003000Y0138296D01*
X0003000Y0137298D02*
X0035557Y0137298D01*
X0035602Y0137343D02*
X0033964Y0135705D01*
X0033077Y0133564D01*
X0033077Y0131247D01*
X0033964Y0129106D01*
X0035602Y0127468D01*
X0037743Y0126581D01*
X0040060Y0126581D01*
X0042201Y0127468D01*
X0043839Y0129106D01*
X0044726Y0131247D01*
X0044726Y0133564D01*
X0043839Y0135705D01*
X0042201Y0137343D01*
X0040060Y0138230D01*
X0037743Y0138230D01*
X0035602Y0137343D01*
X0034558Y0136299D02*
X0003000Y0136299D01*
X0003000Y0135301D02*
X0033796Y0135301D01*
X0033383Y0134302D02*
X0003000Y0134302D01*
X0003000Y0133303D02*
X0033077Y0133303D01*
X0033077Y0132305D02*
X0003000Y0132305D01*
X0003000Y0131306D02*
X0033077Y0131306D01*
X0033466Y0130308D02*
X0003000Y0130308D01*
X0003000Y0129309D02*
X0033880Y0129309D01*
X0034759Y0128311D02*
X0003000Y0128311D01*
X0003000Y0127312D02*
X0035977Y0127312D01*
X0041826Y0127312D02*
X0054386Y0127312D01*
X0055384Y0126314D02*
X0003000Y0126314D01*
X0003000Y0125315D02*
X0056383Y0125315D01*
X0057381Y0124317D02*
X0003000Y0124317D01*
X0003000Y0123318D02*
X0058380Y0123318D01*
X0059378Y0122320D02*
X0003000Y0122320D01*
X0003000Y0121321D02*
X0060377Y0121321D01*
X0061375Y0120323D02*
X0003000Y0120323D01*
X0003000Y0161262D02*
X0091303Y0161262D01*
X0090304Y0162260D02*
X0003000Y0162260D01*
X0003000Y0163259D02*
X0089305Y0163259D01*
X0088307Y0164257D02*
X0003000Y0164257D01*
X0042246Y0137298D02*
X0049013Y0137298D01*
X0049013Y0136299D02*
X0043245Y0136299D01*
X0044007Y0135301D02*
X0049013Y0135301D01*
X0049013Y0134302D02*
X0044420Y0134302D01*
X0044726Y0133303D02*
X0049013Y0133303D01*
X0049393Y0132305D02*
X0044726Y0132305D01*
X0044726Y0131306D02*
X0050392Y0131306D01*
X0051390Y0130308D02*
X0044337Y0130308D01*
X0043923Y0129309D02*
X0052389Y0129309D01*
X0053387Y0128311D02*
X0043044Y0128311D01*
X0062024Y0175241D02*
X0063024Y0175241D01*
X0063024Y0176239D02*
X0062024Y0176239D01*
X0062024Y0177238D02*
X0063024Y0177238D01*
X0063024Y0178237D02*
X0062024Y0178237D01*
X0062024Y0179235D02*
X0063024Y0179235D01*
X0063024Y0180234D02*
X0062024Y0180234D01*
X0062024Y0181232D02*
X0063024Y0181232D01*
X0086414Y0267104D02*
X0003000Y0267104D01*
X0003000Y0268103D02*
X0086414Y0268103D01*
X0086414Y0269101D02*
X0003000Y0269101D01*
X0003000Y0270100D02*
X0086414Y0270100D01*
X0086414Y0271098D02*
X0003000Y0271098D01*
X0003000Y0272097D02*
X0086414Y0272097D01*
X0086414Y0273095D02*
X0003000Y0273095D01*
X0003000Y0274094D02*
X0086414Y0274094D01*
X0086414Y0275092D02*
X0003000Y0275092D01*
X0003000Y0276091D02*
X0086414Y0276091D01*
X0086414Y0277089D02*
X0003000Y0277089D01*
X0003000Y0278088D02*
X0086414Y0278088D01*
X0086414Y0279086D02*
X0003000Y0279086D01*
X0053272Y0282996D02*
X0053272Y0286343D01*
X0056340Y0282082D02*
X0056496Y0282082D01*
X0056496Y0281083D02*
X0056340Y0281083D01*
X0056909Y0280085D02*
X0055761Y0280085D01*
X0089545Y0294064D02*
X0092841Y0294064D01*
X0091842Y0293065D02*
X0090544Y0293065D01*
X0111468Y0037446D02*
X0135140Y0037446D01*
X0132907Y0036448D02*
X0111468Y0036448D01*
X0111468Y0035449D02*
X0131387Y0035449D01*
X0130239Y0034451D02*
X0111468Y0034451D01*
X0111468Y0033452D02*
X0129314Y0033452D01*
X0128559Y0032454D02*
X0111468Y0032454D01*
X0111468Y0031455D02*
X0127940Y0031455D01*
X0127434Y0030457D02*
X0111468Y0030457D01*
X0110603Y0029458D02*
X0127026Y0029458D01*
X0126723Y0028460D02*
X0109604Y0028460D01*
X0108606Y0027461D02*
X0126506Y0027461D01*
D20*
X0111736Y0064492D03*
X0099925Y0115673D03*
X0082209Y0080240D03*
X0070398Y0115673D03*
X0056618Y0054650D03*
X0058587Y0025122D03*
X0097957Y0009374D03*
X0025122Y0101894D03*
X0017248Y0155043D03*
X0025122Y0200319D03*
X0013311Y0241657D03*
X0066461Y0282996D03*
X0072366Y0296776D03*
X0086146Y0286933D03*
X0101894Y0306618D03*
X0086146Y0257406D03*
X0092051Y0204256D03*
X0137327Y0249531D03*
X0149138Y0216067D03*
M02*
