G75*
%MOIN*%
%OFA0B0*%
%FSLAX25Y25*%
%IPPOS*%
%LPD*%
%AMOC8*
5,1,8,0,0,1.08239X$1,22.5*
%
%ADD10C,0.00000*%
%ADD11OC8,0.04800*%
%ADD12C,0.11220*%
%ADD13C,0.23000*%
%ADD14C,0.11811*%
%ADD15C,0.09449*%
%ADD16C,0.14630*%
%ADD17C,0.01000*%
%ADD18C,0.01200*%
%ADD19C,0.00600*%
%ADD20C,0.02578*%
D10*
X0001500Y0025122D02*
X0001500Y0292839D01*
X0001507Y0293410D01*
X0001528Y0293980D01*
X0001562Y0294550D01*
X0001610Y0295119D01*
X0001672Y0295686D01*
X0001748Y0296252D01*
X0001837Y0296816D01*
X0001940Y0297377D01*
X0002057Y0297936D01*
X0002186Y0298492D01*
X0002330Y0299045D01*
X0002486Y0299594D01*
X0002656Y0300139D01*
X0002839Y0300679D01*
X0003035Y0301215D01*
X0003244Y0301747D01*
X0003466Y0302273D01*
X0003700Y0302793D01*
X0003947Y0303308D01*
X0004206Y0303817D01*
X0004477Y0304319D01*
X0004761Y0304814D01*
X0005056Y0305303D01*
X0005363Y0305784D01*
X0005681Y0306258D01*
X0006011Y0306724D01*
X0006352Y0307181D01*
X0006705Y0307631D01*
X0007067Y0308071D01*
X0007441Y0308503D01*
X0007824Y0308926D01*
X0008218Y0309339D01*
X0008622Y0309743D01*
X0009035Y0310137D01*
X0009458Y0310520D01*
X0009890Y0310894D01*
X0010330Y0311256D01*
X0010780Y0311609D01*
X0011237Y0311950D01*
X0011703Y0312280D01*
X0012177Y0312598D01*
X0012658Y0312905D01*
X0013147Y0313200D01*
X0013642Y0313484D01*
X0014144Y0313755D01*
X0014653Y0314014D01*
X0015168Y0314261D01*
X0015688Y0314495D01*
X0016214Y0314717D01*
X0016746Y0314926D01*
X0017282Y0315122D01*
X0017822Y0315305D01*
X0018367Y0315475D01*
X0018916Y0315631D01*
X0019469Y0315775D01*
X0020025Y0315904D01*
X0020584Y0316021D01*
X0021145Y0316124D01*
X0021709Y0316213D01*
X0022275Y0316289D01*
X0022842Y0316351D01*
X0023411Y0316399D01*
X0023981Y0316433D01*
X0024551Y0316454D01*
X0025122Y0316461D01*
X0139295Y0316461D01*
X0139295Y0316460D02*
X0139890Y0316429D01*
X0140483Y0316384D01*
X0141075Y0316324D01*
X0141666Y0316250D01*
X0142254Y0316162D01*
X0142840Y0316060D01*
X0143424Y0315943D01*
X0144004Y0315813D01*
X0144582Y0315668D01*
X0145155Y0315510D01*
X0145725Y0315337D01*
X0146290Y0315151D01*
X0146851Y0314952D01*
X0147406Y0314739D01*
X0147957Y0314512D01*
X0148502Y0314273D01*
X0149040Y0314020D01*
X0149573Y0313754D01*
X0150099Y0313476D01*
X0150618Y0313184D01*
X0151129Y0312881D01*
X0151634Y0312565D01*
X0152130Y0312237D01*
X0152619Y0311897D01*
X0153099Y0311545D01*
X0153571Y0311182D01*
X0154033Y0310808D01*
X0154487Y0310423D01*
X0154930Y0310026D01*
X0155365Y0309619D01*
X0155789Y0309202D01*
X0156203Y0308775D01*
X0156607Y0308337D01*
X0157000Y0307891D01*
X0157382Y0307434D01*
X0157753Y0306969D01*
X0158112Y0306495D01*
X0158460Y0306012D01*
X0158796Y0305521D01*
X0159121Y0305022D01*
X0159433Y0304515D01*
X0159733Y0304001D01*
X0160020Y0303480D01*
X0160294Y0302952D01*
X0160556Y0302418D01*
X0160805Y0301877D01*
X0161041Y0301331D01*
X0161263Y0300779D01*
X0161472Y0300221D01*
X0161667Y0299659D01*
X0161849Y0299093D01*
X0162017Y0298522D01*
X0162171Y0297947D01*
X0162312Y0297369D01*
X0162438Y0296787D01*
X0162550Y0296203D01*
X0162648Y0295616D01*
X0162732Y0295026D01*
X0162801Y0294435D01*
X0162857Y0293843D01*
X0162897Y0293249D01*
X0162924Y0292655D01*
X0162936Y0292060D01*
X0162934Y0291465D01*
X0162917Y0290870D01*
X0162917Y0023154D01*
X0162918Y0023154D02*
X0162887Y0022607D01*
X0162844Y0022061D01*
X0162787Y0021517D01*
X0162717Y0020974D01*
X0162634Y0020432D01*
X0162538Y0019893D01*
X0162429Y0019357D01*
X0162307Y0018823D01*
X0162172Y0018292D01*
X0162024Y0017765D01*
X0161864Y0017241D01*
X0161691Y0016722D01*
X0161506Y0016207D01*
X0161308Y0015696D01*
X0161098Y0015190D01*
X0160875Y0014690D01*
X0160641Y0014195D01*
X0160395Y0013706D01*
X0160137Y0013223D01*
X0159867Y0012746D01*
X0159586Y0012276D01*
X0159294Y0011813D01*
X0158991Y0011357D01*
X0158676Y0010909D01*
X0158351Y0010468D01*
X0158016Y0010036D01*
X0157670Y0009611D01*
X0157314Y0009195D01*
X0156948Y0008788D01*
X0156572Y0008390D01*
X0156187Y0008001D01*
X0155792Y0007621D01*
X0155388Y0007251D01*
X0154976Y0006891D01*
X0154555Y0006541D01*
X0154125Y0006201D01*
X0153688Y0005872D01*
X0153243Y0005553D01*
X0152790Y0005245D01*
X0152330Y0004948D01*
X0151862Y0004663D01*
X0151388Y0004389D01*
X0150908Y0004126D01*
X0150421Y0003875D01*
X0149929Y0003636D01*
X0149430Y0003409D01*
X0148927Y0003194D01*
X0148418Y0002991D01*
X0147905Y0002800D01*
X0147387Y0002622D01*
X0146865Y0002457D01*
X0146339Y0002304D01*
X0145810Y0002164D01*
X0145277Y0002037D01*
X0144742Y0001923D01*
X0144204Y0001821D01*
X0143663Y0001733D01*
X0143121Y0001658D01*
X0142577Y0001596D01*
X0142032Y0001547D01*
X0141485Y0001511D01*
X0140938Y0001489D01*
X0140391Y0001479D01*
X0139843Y0001483D01*
X0139296Y0001500D01*
X0139295Y0001500D02*
X0025122Y0001500D01*
X0024551Y0001507D01*
X0023981Y0001528D01*
X0023411Y0001562D01*
X0022842Y0001610D01*
X0022275Y0001672D01*
X0021709Y0001748D01*
X0021145Y0001837D01*
X0020584Y0001940D01*
X0020025Y0002057D01*
X0019469Y0002186D01*
X0018916Y0002330D01*
X0018367Y0002486D01*
X0017822Y0002656D01*
X0017282Y0002839D01*
X0016746Y0003035D01*
X0016214Y0003244D01*
X0015688Y0003466D01*
X0015168Y0003700D01*
X0014653Y0003947D01*
X0014144Y0004206D01*
X0013642Y0004477D01*
X0013147Y0004761D01*
X0012658Y0005056D01*
X0012177Y0005363D01*
X0011703Y0005681D01*
X0011237Y0006011D01*
X0010780Y0006352D01*
X0010330Y0006705D01*
X0009890Y0007067D01*
X0009458Y0007441D01*
X0009035Y0007824D01*
X0008622Y0008218D01*
X0008218Y0008622D01*
X0007824Y0009035D01*
X0007441Y0009458D01*
X0007067Y0009890D01*
X0006705Y0010330D01*
X0006352Y0010780D01*
X0006011Y0011237D01*
X0005681Y0011703D01*
X0005363Y0012177D01*
X0005056Y0012658D01*
X0004761Y0013147D01*
X0004477Y0013642D01*
X0004206Y0014144D01*
X0003947Y0014653D01*
X0003700Y0015168D01*
X0003466Y0015688D01*
X0003244Y0016214D01*
X0003035Y0016746D01*
X0002839Y0017282D01*
X0002656Y0017822D01*
X0002486Y0018367D01*
X0002330Y0018916D01*
X0002186Y0019469D01*
X0002057Y0020025D01*
X0001940Y0020584D01*
X0001837Y0021145D01*
X0001748Y0021709D01*
X0001672Y0022275D01*
X0001610Y0022842D01*
X0001562Y0023411D01*
X0001528Y0023981D01*
X0001507Y0024551D01*
X0001500Y0025122D01*
D11*
X0051618Y0292839D03*
X0061618Y0292839D03*
D12*
X0097957Y0283390D03*
X0097957Y0261736D03*
X0097957Y0245201D03*
X0097957Y0223547D03*
X0097957Y0188902D03*
X0097957Y0167248D03*
X0097957Y0150713D03*
X0097957Y0129059D03*
X0097524Y0096421D03*
X0097524Y0074768D03*
X0097524Y0058232D03*
X0097524Y0036579D03*
D13*
X0139295Y0025122D03*
X0025122Y0025122D03*
X0025122Y0292839D03*
X0139295Y0292839D03*
D14*
X0130555Y0158626D03*
X0150555Y0158626D03*
D15*
X0038902Y0132406D03*
X0038902Y0110752D03*
X0038902Y0057602D03*
X0038902Y0185555D03*
X0038902Y0207209D03*
X0038902Y0260358D03*
D16*
X0062524Y0247957D03*
X0062524Y0219610D03*
X0062524Y0173154D03*
X0062524Y0144807D03*
X0062524Y0098350D03*
X0062524Y0070004D03*
D17*
X0062524Y0121579D02*
X0050713Y0133390D01*
X0050713Y0157012D01*
X0090083Y0157012D01*
X0092051Y0158980D01*
X0107799Y0158980D01*
X0109768Y0157012D01*
X0109768Y0123547D01*
X0107799Y0121579D01*
X0062524Y0121579D01*
X0061782Y0122320D02*
X0095647Y0122320D01*
X0095666Y0122312D02*
X0096567Y0122070D01*
X0097457Y0121953D01*
X0097457Y0128559D01*
X0098457Y0128559D01*
X0098457Y0129559D01*
X0105062Y0129559D01*
X0104945Y0130449D01*
X0104704Y0131349D01*
X0104347Y0132211D01*
X0103881Y0133018D01*
X0103314Y0133757D01*
X0102655Y0134416D01*
X0101915Y0134984D01*
X0101108Y0135450D01*
X0100247Y0135806D01*
X0099347Y0136048D01*
X0098457Y0136165D01*
X0098457Y0129559D01*
X0097457Y0129559D01*
X0097457Y0136165D01*
X0096567Y0136048D01*
X0095666Y0135806D01*
X0094805Y0135450D01*
X0093998Y0134984D01*
X0093259Y0134416D01*
X0092599Y0133757D01*
X0092032Y0133018D01*
X0091566Y0132211D01*
X0091209Y0131349D01*
X0090968Y0130449D01*
X0090851Y0129559D01*
X0097457Y0129559D01*
X0097457Y0128559D01*
X0090851Y0128559D01*
X0090968Y0127669D01*
X0091209Y0126769D01*
X0091566Y0125908D01*
X0092032Y0125100D01*
X0092599Y0124361D01*
X0093259Y0123702D01*
X0093998Y0123134D01*
X0094805Y0122668D01*
X0095666Y0122312D01*
X0097457Y0122320D02*
X0098457Y0122320D01*
X0098457Y0121953D02*
X0099347Y0122070D01*
X0100247Y0122312D01*
X0101108Y0122668D01*
X0101915Y0123134D01*
X0102655Y0123702D01*
X0103314Y0124361D01*
X0103881Y0125100D01*
X0104347Y0125908D01*
X0104704Y0126769D01*
X0104945Y0127669D01*
X0105062Y0128559D01*
X0098457Y0128559D01*
X0098457Y0121953D01*
X0098457Y0123318D02*
X0097457Y0123318D01*
X0097457Y0124317D02*
X0098457Y0124317D01*
X0098457Y0125315D02*
X0097457Y0125315D01*
X0097457Y0126314D02*
X0098457Y0126314D01*
X0098457Y0127312D02*
X0097457Y0127312D01*
X0097457Y0128311D02*
X0098457Y0128311D01*
X0098457Y0129309D02*
X0109768Y0129309D01*
X0109768Y0128311D02*
X0105030Y0128311D01*
X0104850Y0127312D02*
X0109768Y0127312D01*
X0109768Y0126314D02*
X0104516Y0126314D01*
X0104005Y0125315D02*
X0109768Y0125315D01*
X0109768Y0124317D02*
X0103270Y0124317D01*
X0102155Y0123318D02*
X0109539Y0123318D01*
X0108540Y0122320D02*
X0100267Y0122320D01*
X0097457Y0129309D02*
X0054793Y0129309D01*
X0055791Y0128311D02*
X0090884Y0128311D01*
X0091064Y0127312D02*
X0056790Y0127312D01*
X0057788Y0126314D02*
X0091398Y0126314D01*
X0091908Y0125315D02*
X0058787Y0125315D01*
X0059785Y0124317D02*
X0092643Y0124317D01*
X0093758Y0123318D02*
X0060784Y0123318D01*
X0053794Y0130308D02*
X0090950Y0130308D01*
X0091198Y0131306D02*
X0052796Y0131306D01*
X0051797Y0132305D02*
X0091621Y0132305D01*
X0092251Y0133303D02*
X0050799Y0133303D01*
X0050713Y0134302D02*
X0093144Y0134302D01*
X0094547Y0135301D02*
X0050713Y0135301D01*
X0050713Y0136299D02*
X0060218Y0136299D01*
X0059684Y0136442D02*
X0060800Y0136143D01*
X0061946Y0135992D01*
X0062024Y0135992D01*
X0062024Y0144307D01*
X0063024Y0144307D01*
X0063024Y0145307D01*
X0071339Y0145307D01*
X0071339Y0145385D01*
X0071188Y0146530D01*
X0070889Y0147647D01*
X0070446Y0148714D01*
X0069869Y0149715D01*
X0069165Y0150632D01*
X0068348Y0151449D01*
X0067431Y0152152D01*
X0066431Y0152730D01*
X0065363Y0153172D01*
X0064247Y0153471D01*
X0063101Y0153622D01*
X0063024Y0153622D01*
X0063024Y0145307D01*
X0062024Y0145307D01*
X0062024Y0153622D01*
X0061946Y0153622D01*
X0060800Y0153471D01*
X0059684Y0153172D01*
X0058616Y0152730D01*
X0057616Y0152152D01*
X0056699Y0151449D01*
X0055882Y0150632D01*
X0055179Y0149715D01*
X0054601Y0148714D01*
X0054159Y0147647D01*
X0053859Y0146530D01*
X0053709Y0145385D01*
X0053709Y0145307D01*
X0062024Y0145307D01*
X0062024Y0144307D01*
X0053709Y0144307D01*
X0053709Y0144229D01*
X0053859Y0143084D01*
X0054159Y0141968D01*
X0054601Y0140900D01*
X0055179Y0139899D01*
X0055882Y0138983D01*
X0056699Y0138165D01*
X0057616Y0137462D01*
X0058616Y0136884D01*
X0059684Y0136442D01*
X0057901Y0137298D02*
X0050713Y0137298D01*
X0050713Y0138296D02*
X0056568Y0138296D01*
X0055643Y0139295D02*
X0050713Y0139295D01*
X0050713Y0140293D02*
X0054951Y0140293D01*
X0054439Y0141292D02*
X0050713Y0141292D01*
X0050713Y0142290D02*
X0054072Y0142290D01*
X0053833Y0143289D02*
X0050713Y0143289D01*
X0050713Y0144287D02*
X0053709Y0144287D01*
X0053827Y0146284D02*
X0050713Y0146284D01*
X0050713Y0145286D02*
X0062024Y0145286D01*
X0062024Y0146284D02*
X0063024Y0146284D01*
X0063024Y0145286D02*
X0093349Y0145286D01*
X0093259Y0145355D02*
X0093998Y0144788D01*
X0094805Y0144322D01*
X0095666Y0143965D01*
X0096567Y0143724D01*
X0097457Y0143607D01*
X0097457Y0150213D01*
X0090851Y0150213D01*
X0090968Y0149322D01*
X0091209Y0148422D01*
X0091566Y0147561D01*
X0092032Y0146754D01*
X0092599Y0146014D01*
X0093259Y0145355D01*
X0092392Y0146284D02*
X0071220Y0146284D01*
X0070986Y0147283D02*
X0091727Y0147283D01*
X0091268Y0148281D02*
X0070626Y0148281D01*
X0070120Y0149280D02*
X0090980Y0149280D01*
X0090851Y0151213D02*
X0097457Y0151213D01*
X0097457Y0157818D01*
X0096567Y0157701D01*
X0095666Y0157460D01*
X0094805Y0157103D01*
X0093998Y0156637D01*
X0093259Y0156070D01*
X0092599Y0155411D01*
X0092032Y0154671D01*
X0091566Y0153864D01*
X0091209Y0153003D01*
X0090968Y0152103D01*
X0090851Y0151213D01*
X0090859Y0151277D02*
X0068520Y0151277D01*
X0069437Y0150278D02*
X0097457Y0150278D01*
X0097457Y0150213D02*
X0097457Y0151213D01*
X0098457Y0151213D01*
X0098457Y0157818D01*
X0099347Y0157701D01*
X0100247Y0157460D01*
X0101108Y0157103D01*
X0101915Y0156637D01*
X0102655Y0156070D01*
X0103314Y0155411D01*
X0103881Y0154671D01*
X0104347Y0153864D01*
X0104704Y0153003D01*
X0104945Y0152103D01*
X0105062Y0151213D01*
X0098457Y0151213D01*
X0098457Y0150213D01*
X0105062Y0150213D01*
X0104945Y0149322D01*
X0104704Y0148422D01*
X0104347Y0147561D01*
X0103881Y0146754D01*
X0103314Y0146014D01*
X0102655Y0145355D01*
X0101915Y0144788D01*
X0101108Y0144322D01*
X0100247Y0143965D01*
X0099347Y0143724D01*
X0098457Y0143607D01*
X0098457Y0150213D01*
X0097457Y0150213D01*
X0097457Y0149280D02*
X0098457Y0149280D01*
X0098457Y0150278D02*
X0109768Y0150278D01*
X0109768Y0149280D02*
X0104934Y0149280D01*
X0104646Y0148281D02*
X0109768Y0148281D01*
X0109768Y0147283D02*
X0104187Y0147283D01*
X0103521Y0146284D02*
X0109768Y0146284D01*
X0109768Y0145286D02*
X0102564Y0145286D01*
X0101024Y0144287D02*
X0109768Y0144287D01*
X0109768Y0143289D02*
X0071215Y0143289D01*
X0071188Y0143084D02*
X0071339Y0144229D01*
X0071339Y0144307D01*
X0063024Y0144307D01*
X0063024Y0135992D01*
X0063101Y0135992D01*
X0064247Y0136143D01*
X0065363Y0136442D01*
X0066431Y0136884D01*
X0067431Y0137462D01*
X0068348Y0138165D01*
X0069165Y0138983D01*
X0069869Y0139899D01*
X0070446Y0140900D01*
X0070889Y0141968D01*
X0071188Y0143084D01*
X0070975Y0142290D02*
X0109768Y0142290D01*
X0109768Y0141292D02*
X0070609Y0141292D01*
X0070096Y0140293D02*
X0109768Y0140293D01*
X0109768Y0139295D02*
X0069405Y0139295D01*
X0068479Y0138296D02*
X0109768Y0138296D01*
X0109768Y0137298D02*
X0067147Y0137298D01*
X0064830Y0136299D02*
X0109768Y0136299D01*
X0109768Y0135301D02*
X0101367Y0135301D01*
X0102769Y0134302D02*
X0109768Y0134302D01*
X0109768Y0133303D02*
X0103662Y0133303D01*
X0104293Y0132305D02*
X0109768Y0132305D01*
X0109768Y0131306D02*
X0104716Y0131306D01*
X0104964Y0130308D02*
X0109768Y0130308D01*
X0098457Y0130308D02*
X0097457Y0130308D01*
X0097457Y0131306D02*
X0098457Y0131306D01*
X0098457Y0132305D02*
X0097457Y0132305D01*
X0097457Y0133303D02*
X0098457Y0133303D01*
X0098457Y0134302D02*
X0097457Y0134302D01*
X0097457Y0135301D02*
X0098457Y0135301D01*
X0098457Y0144287D02*
X0097457Y0144287D01*
X0097457Y0145286D02*
X0098457Y0145286D01*
X0098457Y0146284D02*
X0097457Y0146284D01*
X0097457Y0147283D02*
X0098457Y0147283D01*
X0098457Y0148281D02*
X0097457Y0148281D01*
X0097457Y0151277D02*
X0098457Y0151277D01*
X0098457Y0152275D02*
X0097457Y0152275D01*
X0097457Y0153274D02*
X0098457Y0153274D01*
X0098457Y0154272D02*
X0097457Y0154272D01*
X0097457Y0155271D02*
X0098457Y0155271D01*
X0098457Y0156269D02*
X0097457Y0156269D01*
X0097457Y0157268D02*
X0098457Y0157268D01*
X0100711Y0157268D02*
X0109512Y0157268D01*
X0109768Y0156269D02*
X0102395Y0156269D01*
X0103421Y0155271D02*
X0109768Y0155271D01*
X0109768Y0154272D02*
X0104112Y0154272D01*
X0104592Y0153274D02*
X0109768Y0153274D01*
X0109768Y0152275D02*
X0104899Y0152275D01*
X0105054Y0151277D02*
X0109768Y0151277D01*
X0108513Y0158266D02*
X0091337Y0158266D01*
X0090339Y0157268D02*
X0095202Y0157268D01*
X0093518Y0156269D02*
X0050713Y0156269D01*
X0050713Y0155271D02*
X0092492Y0155271D01*
X0091802Y0154272D02*
X0050713Y0154272D01*
X0050713Y0153274D02*
X0060063Y0153274D01*
X0062024Y0153274D02*
X0063024Y0153274D01*
X0063024Y0152275D02*
X0062024Y0152275D01*
X0062024Y0151277D02*
X0063024Y0151277D01*
X0063024Y0150278D02*
X0062024Y0150278D01*
X0062024Y0149280D02*
X0063024Y0149280D01*
X0063024Y0148281D02*
X0062024Y0148281D01*
X0062024Y0147283D02*
X0063024Y0147283D01*
X0063024Y0144287D02*
X0062024Y0144287D01*
X0062024Y0143289D02*
X0063024Y0143289D01*
X0063024Y0142290D02*
X0062024Y0142290D01*
X0062024Y0141292D02*
X0063024Y0141292D01*
X0063024Y0140293D02*
X0062024Y0140293D01*
X0062024Y0139295D02*
X0063024Y0139295D01*
X0063024Y0138296D02*
X0062024Y0138296D01*
X0062024Y0137298D02*
X0063024Y0137298D01*
X0063024Y0136299D02*
X0062024Y0136299D01*
X0054927Y0149280D02*
X0050713Y0149280D01*
X0050713Y0150278D02*
X0055611Y0150278D01*
X0056527Y0151277D02*
X0050713Y0151277D01*
X0050713Y0152275D02*
X0057829Y0152275D01*
X0054421Y0148281D02*
X0050713Y0148281D01*
X0050713Y0147283D02*
X0054061Y0147283D01*
X0064984Y0153274D02*
X0091321Y0153274D01*
X0091014Y0152275D02*
X0067218Y0152275D01*
X0071339Y0144287D02*
X0094889Y0144287D01*
D18*
X0097957Y0208193D02*
X0050713Y0208193D01*
X0050713Y0231815D01*
X0066461Y0231815D01*
X0088114Y0253469D01*
X0103862Y0253469D01*
X0109768Y0247563D01*
X0109768Y0220004D01*
X0097957Y0208193D01*
X0098606Y0208842D02*
X0050713Y0208842D01*
X0050713Y0210041D02*
X0099805Y0210041D01*
X0101003Y0211239D02*
X0065611Y0211239D01*
X0065395Y0211150D02*
X0066475Y0211597D01*
X0067487Y0212182D01*
X0068414Y0212893D01*
X0069241Y0213720D01*
X0069952Y0214647D01*
X0070536Y0215659D01*
X0070984Y0216738D01*
X0071286Y0217867D01*
X0071437Y0219010D01*
X0063124Y0219010D01*
X0063124Y0220210D01*
X0071437Y0220210D01*
X0071286Y0221353D01*
X0070984Y0222482D01*
X0070536Y0223562D01*
X0069952Y0224574D01*
X0069241Y0225501D01*
X0068414Y0226327D01*
X0067487Y0227039D01*
X0066475Y0227623D01*
X0065395Y0228070D01*
X0064267Y0228373D01*
X0063124Y0228523D01*
X0063124Y0220210D01*
X0061924Y0220210D01*
X0061924Y0228523D01*
X0060781Y0228373D01*
X0059652Y0228070D01*
X0058572Y0227623D01*
X0057560Y0227039D01*
X0056633Y0226327D01*
X0055807Y0225501D01*
X0055095Y0224574D01*
X0054511Y0223562D01*
X0054064Y0222482D01*
X0053761Y0221353D01*
X0053611Y0220210D01*
X0061924Y0220210D01*
X0061924Y0219010D01*
X0063124Y0219010D01*
X0063124Y0210697D01*
X0064267Y0210848D01*
X0065395Y0211150D01*
X0067821Y0212438D02*
X0102202Y0212438D01*
X0103400Y0213637D02*
X0069158Y0213637D01*
X0070061Y0214835D02*
X0104599Y0214835D01*
X0105797Y0216034D02*
X0070692Y0216034D01*
X0071116Y0217232D02*
X0094474Y0217232D01*
X0094761Y0217067D02*
X0095634Y0216705D01*
X0096547Y0216460D01*
X0097357Y0216354D01*
X0097357Y0222947D01*
X0098557Y0222947D01*
X0098557Y0224147D01*
X0105150Y0224147D01*
X0105044Y0224957D01*
X0104799Y0225870D01*
X0104437Y0226743D01*
X0103965Y0227562D01*
X0103389Y0228311D01*
X0102721Y0228980D01*
X0101971Y0229555D01*
X0101153Y0230028D01*
X0100279Y0230389D01*
X0099366Y0230634D01*
X0098557Y0230741D01*
X0098557Y0224147D01*
X0097357Y0224147D01*
X0097357Y0222947D01*
X0090763Y0222947D01*
X0090870Y0222138D01*
X0091114Y0221225D01*
X0091476Y0220351D01*
X0091949Y0219533D01*
X0092524Y0218783D01*
X0093192Y0218115D01*
X0093942Y0217539D01*
X0094761Y0217067D01*
X0092877Y0218431D02*
X0071360Y0218431D01*
X0071355Y0220828D02*
X0091279Y0220828D01*
X0090900Y0222026D02*
X0071106Y0222026D01*
X0070676Y0223225D02*
X0097357Y0223225D01*
X0097357Y0224147D02*
X0090763Y0224147D01*
X0090870Y0224957D01*
X0091114Y0225870D01*
X0091476Y0226743D01*
X0091949Y0227562D01*
X0092524Y0228311D01*
X0093192Y0228980D01*
X0093942Y0229555D01*
X0094761Y0230028D01*
X0095634Y0230389D01*
X0096547Y0230634D01*
X0097357Y0230741D01*
X0097357Y0224147D01*
X0097357Y0224423D02*
X0098557Y0224423D01*
X0098557Y0223225D02*
X0109768Y0223225D01*
X0109768Y0224423D02*
X0105114Y0224423D01*
X0104865Y0225622D02*
X0109768Y0225622D01*
X0109768Y0226820D02*
X0104393Y0226820D01*
X0103614Y0228019D02*
X0109768Y0228019D01*
X0109768Y0229217D02*
X0102412Y0229217D01*
X0100182Y0230416D02*
X0109768Y0230416D01*
X0109768Y0231614D02*
X0050713Y0231614D01*
X0050713Y0230416D02*
X0095732Y0230416D01*
X0097357Y0230416D02*
X0098557Y0230416D01*
X0098557Y0229217D02*
X0097357Y0229217D01*
X0097357Y0228019D02*
X0098557Y0228019D01*
X0098557Y0226820D02*
X0097357Y0226820D01*
X0097357Y0225622D02*
X0098557Y0225622D01*
X0098557Y0222947D02*
X0105150Y0222947D01*
X0105044Y0222138D01*
X0104799Y0221225D01*
X0104437Y0220351D01*
X0103965Y0219533D01*
X0103389Y0218783D01*
X0102721Y0218115D01*
X0101971Y0217539D01*
X0101153Y0217067D01*
X0100279Y0216705D01*
X0099366Y0216460D01*
X0098557Y0216354D01*
X0098557Y0222947D01*
X0098557Y0222026D02*
X0097357Y0222026D01*
X0097357Y0220828D02*
X0098557Y0220828D01*
X0098557Y0219629D02*
X0097357Y0219629D01*
X0097357Y0218431D02*
X0098557Y0218431D01*
X0098557Y0217232D02*
X0097357Y0217232D01*
X0101439Y0217232D02*
X0106996Y0217232D01*
X0108194Y0218431D02*
X0103037Y0218431D01*
X0104020Y0219629D02*
X0109393Y0219629D01*
X0109768Y0220828D02*
X0104634Y0220828D01*
X0105014Y0222026D02*
X0109768Y0222026D01*
X0109768Y0232813D02*
X0067458Y0232813D01*
X0068657Y0234011D02*
X0109768Y0234011D01*
X0109768Y0235210D02*
X0069855Y0235210D01*
X0071054Y0236408D02*
X0109768Y0236408D01*
X0109768Y0237607D02*
X0072252Y0237607D01*
X0073451Y0238805D02*
X0094614Y0238805D01*
X0094761Y0238720D02*
X0095634Y0238359D01*
X0096547Y0238114D01*
X0097357Y0238007D01*
X0097357Y0244601D01*
X0098557Y0244601D01*
X0098557Y0245801D01*
X0105150Y0245801D01*
X0105044Y0246610D01*
X0104799Y0247523D01*
X0104437Y0248397D01*
X0103965Y0249215D01*
X0103389Y0249965D01*
X0102721Y0250633D01*
X0101971Y0251209D01*
X0101153Y0251681D01*
X0100279Y0252043D01*
X0099366Y0252288D01*
X0098557Y0252394D01*
X0098557Y0245801D01*
X0097357Y0245801D01*
X0097357Y0252394D01*
X0096547Y0252288D01*
X0095634Y0252043D01*
X0094761Y0251681D01*
X0093942Y0251209D01*
X0093192Y0250633D01*
X0092524Y0249965D01*
X0091949Y0249215D01*
X0091476Y0248397D01*
X0091114Y0247523D01*
X0090870Y0246610D01*
X0090763Y0245801D01*
X0097357Y0245801D01*
X0097357Y0244601D01*
X0090763Y0244601D01*
X0090870Y0243791D01*
X0091114Y0242878D01*
X0091476Y0242005D01*
X0091949Y0241186D01*
X0092524Y0240437D01*
X0093192Y0239768D01*
X0093942Y0239193D01*
X0094761Y0238720D01*
X0092957Y0240004D02*
X0074649Y0240004D01*
X0075848Y0241202D02*
X0091940Y0241202D01*
X0091312Y0242401D02*
X0077046Y0242401D01*
X0078245Y0243599D02*
X0090921Y0243599D01*
X0090789Y0245996D02*
X0080642Y0245996D01*
X0079443Y0244798D02*
X0097357Y0244798D01*
X0097357Y0245996D02*
X0098557Y0245996D01*
X0098557Y0244798D02*
X0109768Y0244798D01*
X0109768Y0245996D02*
X0105124Y0245996D01*
X0104887Y0247195D02*
X0109768Y0247195D01*
X0108937Y0248393D02*
X0104439Y0248393D01*
X0103676Y0249592D02*
X0107739Y0249592D01*
X0106540Y0250790D02*
X0102516Y0250790D01*
X0100410Y0251989D02*
X0105342Y0251989D01*
X0104143Y0253187D02*
X0087833Y0253187D01*
X0086635Y0251989D02*
X0095503Y0251989D01*
X0097357Y0251989D02*
X0098557Y0251989D01*
X0098557Y0250790D02*
X0097357Y0250790D01*
X0097357Y0249592D02*
X0098557Y0249592D01*
X0098557Y0248393D02*
X0097357Y0248393D01*
X0097357Y0247195D02*
X0098557Y0247195D01*
X0098557Y0244601D02*
X0105150Y0244601D01*
X0105044Y0243791D01*
X0104799Y0242878D01*
X0104437Y0242005D01*
X0103965Y0241186D01*
X0103389Y0240437D01*
X0102721Y0239768D01*
X0101971Y0239193D01*
X0101153Y0238720D01*
X0100279Y0238359D01*
X0099366Y0238114D01*
X0098557Y0238007D01*
X0098557Y0244601D01*
X0098557Y0243599D02*
X0097357Y0243599D01*
X0097357Y0242401D02*
X0098557Y0242401D01*
X0098557Y0241202D02*
X0097357Y0241202D01*
X0097357Y0240004D02*
X0098557Y0240004D01*
X0098557Y0238805D02*
X0097357Y0238805D01*
X0101300Y0238805D02*
X0109768Y0238805D01*
X0109768Y0240004D02*
X0102956Y0240004D01*
X0103974Y0241202D02*
X0109768Y0241202D01*
X0109768Y0242401D02*
X0104601Y0242401D01*
X0104992Y0243599D02*
X0109768Y0243599D01*
X0093397Y0250790D02*
X0085436Y0250790D01*
X0084238Y0249592D02*
X0092238Y0249592D01*
X0091475Y0248393D02*
X0083039Y0248393D01*
X0081840Y0247195D02*
X0091026Y0247195D01*
X0093502Y0229217D02*
X0050713Y0229217D01*
X0050713Y0228019D02*
X0059527Y0228019D01*
X0057275Y0226820D02*
X0050713Y0226820D01*
X0050713Y0225622D02*
X0055927Y0225622D01*
X0055008Y0224423D02*
X0050713Y0224423D01*
X0050713Y0223225D02*
X0054371Y0223225D01*
X0053942Y0222026D02*
X0050713Y0222026D01*
X0050713Y0220828D02*
X0053692Y0220828D01*
X0053611Y0219010D02*
X0053761Y0217867D01*
X0054064Y0216738D01*
X0054511Y0215659D01*
X0055095Y0214647D01*
X0055807Y0213720D01*
X0056633Y0212893D01*
X0057560Y0212182D01*
X0058572Y0211597D01*
X0059652Y0211150D01*
X0060781Y0210848D01*
X0061924Y0210697D01*
X0061924Y0219010D01*
X0053611Y0219010D01*
X0053687Y0218431D02*
X0050713Y0218431D01*
X0050713Y0219629D02*
X0061924Y0219629D01*
X0061924Y0218431D02*
X0063124Y0218431D01*
X0063124Y0219629D02*
X0091893Y0219629D01*
X0090800Y0224423D02*
X0070039Y0224423D01*
X0069120Y0225622D02*
X0091048Y0225622D01*
X0091521Y0226820D02*
X0067772Y0226820D01*
X0065520Y0228019D02*
X0092299Y0228019D01*
X0063124Y0228019D02*
X0061924Y0228019D01*
X0061924Y0226820D02*
X0063124Y0226820D01*
X0063124Y0225622D02*
X0061924Y0225622D01*
X0061924Y0224423D02*
X0063124Y0224423D01*
X0063124Y0223225D02*
X0061924Y0223225D01*
X0061924Y0222026D02*
X0063124Y0222026D01*
X0063124Y0220828D02*
X0061924Y0220828D01*
X0061924Y0217232D02*
X0063124Y0217232D01*
X0063124Y0216034D02*
X0061924Y0216034D01*
X0061924Y0214835D02*
X0063124Y0214835D01*
X0063124Y0213637D02*
X0061924Y0213637D01*
X0061924Y0212438D02*
X0063124Y0212438D01*
X0063124Y0211239D02*
X0061924Y0211239D01*
X0059436Y0211239D02*
X0050713Y0211239D01*
X0050713Y0212438D02*
X0057226Y0212438D01*
X0055890Y0213637D02*
X0050713Y0213637D01*
X0050713Y0214835D02*
X0054986Y0214835D01*
X0054356Y0216034D02*
X0050713Y0216034D01*
X0050713Y0217232D02*
X0053931Y0217232D01*
X0050713Y0080240D02*
X0074335Y0080240D01*
X0088114Y0066461D01*
X0105831Y0066461D01*
X0109768Y0062524D01*
X0109768Y0031028D01*
X0107799Y0029059D01*
X0088114Y0029059D01*
X0050713Y0066461D01*
X0050713Y0080240D01*
X0050713Y0079403D02*
X0075172Y0079403D01*
X0076370Y0078205D02*
X0066021Y0078205D01*
X0066475Y0078017D02*
X0065395Y0078464D01*
X0064267Y0078766D01*
X0063124Y0078917D01*
X0063124Y0070604D01*
X0071437Y0070604D01*
X0071286Y0071747D01*
X0070984Y0072876D01*
X0070536Y0073955D01*
X0069952Y0074967D01*
X0069241Y0075895D01*
X0068414Y0076721D01*
X0067487Y0077432D01*
X0066475Y0078017D01*
X0068042Y0077006D02*
X0077569Y0077006D01*
X0078767Y0075808D02*
X0069307Y0075808D01*
X0070159Y0074609D02*
X0079966Y0074609D01*
X0081164Y0073411D02*
X0070762Y0073411D01*
X0071161Y0072212D02*
X0082363Y0072212D01*
X0083561Y0071014D02*
X0071383Y0071014D01*
X0071437Y0069404D02*
X0063124Y0069404D01*
X0063124Y0070604D01*
X0061924Y0070604D01*
X0061924Y0078917D01*
X0060781Y0078766D01*
X0059652Y0078464D01*
X0058572Y0078017D01*
X0057560Y0077432D01*
X0056633Y0076721D01*
X0055807Y0075895D01*
X0055095Y0074967D01*
X0054511Y0073955D01*
X0054064Y0072876D01*
X0053761Y0071747D01*
X0053611Y0070604D01*
X0061924Y0070604D01*
X0061924Y0069404D01*
X0063124Y0069404D01*
X0063124Y0061091D01*
X0064267Y0061242D01*
X0065395Y0061544D01*
X0066475Y0061991D01*
X0067487Y0062576D01*
X0068414Y0063287D01*
X0069241Y0064113D01*
X0069952Y0065040D01*
X0070536Y0066052D01*
X0070984Y0067132D01*
X0071286Y0068261D01*
X0071437Y0069404D01*
X0071333Y0068617D02*
X0085958Y0068617D01*
X0084760Y0069815D02*
X0063124Y0069815D01*
X0063124Y0068617D02*
X0061924Y0068617D01*
X0061924Y0069404D02*
X0061924Y0061091D01*
X0060781Y0061242D01*
X0059652Y0061544D01*
X0058572Y0061991D01*
X0057560Y0062576D01*
X0056633Y0063287D01*
X0055807Y0064113D01*
X0055095Y0065040D01*
X0054511Y0066052D01*
X0054064Y0067132D01*
X0053761Y0068261D01*
X0053611Y0069404D01*
X0061924Y0069404D01*
X0061924Y0069815D02*
X0050713Y0069815D01*
X0050713Y0068617D02*
X0053714Y0068617D01*
X0053987Y0067418D02*
X0050713Y0067418D01*
X0050954Y0066220D02*
X0054442Y0066220D01*
X0055110Y0065021D02*
X0052152Y0065021D01*
X0053351Y0063823D02*
X0056097Y0063823D01*
X0057497Y0062624D02*
X0054549Y0062624D01*
X0055748Y0061426D02*
X0060094Y0061426D01*
X0061924Y0061426D02*
X0063124Y0061426D01*
X0063124Y0062624D02*
X0061924Y0062624D01*
X0061924Y0063823D02*
X0063124Y0063823D01*
X0063124Y0065021D02*
X0061924Y0065021D01*
X0061924Y0066220D02*
X0063124Y0066220D01*
X0063124Y0067418D02*
X0061924Y0067418D01*
X0061924Y0071014D02*
X0063124Y0071014D01*
X0063124Y0072212D02*
X0061924Y0072212D01*
X0061924Y0073411D02*
X0063124Y0073411D01*
X0063124Y0074609D02*
X0061924Y0074609D01*
X0061924Y0075808D02*
X0063124Y0075808D01*
X0063124Y0077006D02*
X0061924Y0077006D01*
X0061924Y0078205D02*
X0063124Y0078205D01*
X0059026Y0078205D02*
X0050713Y0078205D01*
X0050713Y0077006D02*
X0057005Y0077006D01*
X0055740Y0075808D02*
X0050713Y0075808D01*
X0050713Y0074609D02*
X0054888Y0074609D01*
X0054285Y0073411D02*
X0050713Y0073411D01*
X0050713Y0072212D02*
X0053886Y0072212D01*
X0053665Y0071014D02*
X0050713Y0071014D01*
X0056946Y0060227D02*
X0090594Y0060227D01*
X0090681Y0060555D02*
X0090437Y0059642D01*
X0090330Y0058832D01*
X0096924Y0058832D01*
X0096924Y0057632D01*
X0098124Y0057632D01*
X0098124Y0058832D01*
X0104717Y0058832D01*
X0104610Y0059642D01*
X0104366Y0060555D01*
X0104004Y0061428D01*
X0103532Y0062247D01*
X0102956Y0062997D01*
X0102288Y0063665D01*
X0101538Y0064240D01*
X0100719Y0064713D01*
X0099846Y0065075D01*
X0098933Y0065319D01*
X0098124Y0065426D01*
X0098124Y0058832D01*
X0096924Y0058832D01*
X0096924Y0065426D01*
X0096114Y0065319D01*
X0095201Y0065075D01*
X0094328Y0064713D01*
X0093509Y0064240D01*
X0092759Y0063665D01*
X0092091Y0062997D01*
X0091516Y0062247D01*
X0091043Y0061428D01*
X0090681Y0060555D01*
X0091042Y0061426D02*
X0064953Y0061426D01*
X0067550Y0062624D02*
X0091805Y0062624D01*
X0092965Y0063823D02*
X0068950Y0063823D01*
X0069937Y0065021D02*
X0095072Y0065021D01*
X0096924Y0065021D02*
X0098124Y0065021D01*
X0098124Y0063823D02*
X0096924Y0063823D01*
X0096924Y0062624D02*
X0098124Y0062624D01*
X0098124Y0061426D02*
X0096924Y0061426D01*
X0096924Y0060227D02*
X0098124Y0060227D01*
X0098124Y0059029D02*
X0096924Y0059029D01*
X0096924Y0057830D02*
X0059343Y0057830D01*
X0058145Y0059029D02*
X0090356Y0059029D01*
X0090330Y0057632D02*
X0090437Y0056823D01*
X0090681Y0055910D01*
X0091043Y0055036D01*
X0091516Y0054218D01*
X0092091Y0053468D01*
X0092759Y0052800D01*
X0093509Y0052224D01*
X0094328Y0051752D01*
X0095201Y0051390D01*
X0096114Y0051145D01*
X0096924Y0051039D01*
X0096924Y0057632D01*
X0090330Y0057632D01*
X0090488Y0056632D02*
X0060542Y0056632D01*
X0061740Y0055433D02*
X0090879Y0055433D01*
X0091506Y0054234D02*
X0062939Y0054234D01*
X0064137Y0053036D02*
X0092523Y0053036D01*
X0094179Y0051837D02*
X0065336Y0051837D01*
X0066534Y0050639D02*
X0109768Y0050639D01*
X0109768Y0051837D02*
X0100868Y0051837D01*
X0100719Y0051752D02*
X0101538Y0052224D01*
X0102288Y0052800D01*
X0102956Y0053468D01*
X0103532Y0054218D01*
X0104004Y0055036D01*
X0104366Y0055910D01*
X0104610Y0056823D01*
X0104717Y0057632D01*
X0098124Y0057632D01*
X0098124Y0051039D01*
X0098933Y0051145D01*
X0099846Y0051390D01*
X0100719Y0051752D01*
X0102524Y0053036D02*
X0109768Y0053036D01*
X0109768Y0054234D02*
X0103541Y0054234D01*
X0104168Y0055433D02*
X0109768Y0055433D01*
X0109768Y0056632D02*
X0104559Y0056632D01*
X0104691Y0059029D02*
X0109768Y0059029D01*
X0109768Y0060227D02*
X0104454Y0060227D01*
X0104005Y0061426D02*
X0109768Y0061426D01*
X0109667Y0062624D02*
X0103242Y0062624D01*
X0102082Y0063823D02*
X0108469Y0063823D01*
X0107270Y0065021D02*
X0099975Y0065021D01*
X0098124Y0057830D02*
X0109768Y0057830D01*
X0106072Y0066220D02*
X0070606Y0066220D01*
X0071060Y0067418D02*
X0087157Y0067418D01*
X0096924Y0056632D02*
X0098124Y0056632D01*
X0098124Y0055433D02*
X0096924Y0055433D01*
X0096924Y0054234D02*
X0098124Y0054234D01*
X0098124Y0053036D02*
X0096924Y0053036D01*
X0096924Y0051837D02*
X0098124Y0051837D01*
X0098124Y0043772D02*
X0098124Y0037179D01*
X0104717Y0037179D01*
X0104610Y0037988D01*
X0104366Y0038901D01*
X0104004Y0039775D01*
X0103532Y0040593D01*
X0102956Y0041343D01*
X0102288Y0042011D01*
X0101538Y0042587D01*
X0100719Y0043059D01*
X0099846Y0043421D01*
X0098933Y0043666D01*
X0098124Y0043772D01*
X0098124Y0043448D02*
X0096924Y0043448D01*
X0096924Y0043772D02*
X0096114Y0043666D01*
X0095201Y0043421D01*
X0094328Y0043059D01*
X0093509Y0042587D01*
X0092759Y0042011D01*
X0092091Y0041343D01*
X0091516Y0040593D01*
X0091043Y0039775D01*
X0090681Y0038901D01*
X0090437Y0037988D01*
X0090330Y0037179D01*
X0096924Y0037179D01*
X0096924Y0043772D01*
X0096924Y0042249D02*
X0098124Y0042249D01*
X0098124Y0041051D02*
X0096924Y0041051D01*
X0096924Y0039852D02*
X0098124Y0039852D01*
X0098124Y0038654D02*
X0096924Y0038654D01*
X0096924Y0037455D02*
X0098124Y0037455D01*
X0098124Y0037179D02*
X0096924Y0037179D01*
X0096924Y0035979D01*
X0098124Y0035979D01*
X0098124Y0037179D01*
X0098124Y0036257D02*
X0109768Y0036257D01*
X0109768Y0037455D02*
X0104681Y0037455D01*
X0104432Y0038654D02*
X0109768Y0038654D01*
X0109768Y0039852D02*
X0103959Y0039852D01*
X0103180Y0041051D02*
X0109768Y0041051D01*
X0109768Y0042249D02*
X0101978Y0042249D01*
X0099746Y0043448D02*
X0109768Y0043448D01*
X0109768Y0044646D02*
X0072527Y0044646D01*
X0073725Y0043448D02*
X0095302Y0043448D01*
X0093070Y0042249D02*
X0074924Y0042249D01*
X0076122Y0041051D02*
X0091867Y0041051D01*
X0091088Y0039852D02*
X0077321Y0039852D01*
X0078519Y0038654D02*
X0090615Y0038654D01*
X0090367Y0037455D02*
X0079718Y0037455D01*
X0080916Y0036257D02*
X0096924Y0036257D01*
X0096924Y0035979D02*
X0090330Y0035979D01*
X0090437Y0035169D01*
X0090681Y0034256D01*
X0091043Y0033383D01*
X0091516Y0032564D01*
X0092091Y0031814D01*
X0092759Y0031146D01*
X0093509Y0030571D01*
X0094328Y0030098D01*
X0095201Y0029737D01*
X0096114Y0029492D01*
X0096924Y0029385D01*
X0096924Y0035979D01*
X0096924Y0035058D02*
X0098124Y0035058D01*
X0098124Y0035979D02*
X0098124Y0029385D01*
X0098933Y0029492D01*
X0099846Y0029737D01*
X0100719Y0030098D01*
X0101538Y0030571D01*
X0102288Y0031146D01*
X0102956Y0031814D01*
X0103532Y0032564D01*
X0104004Y0033383D01*
X0104366Y0034256D01*
X0104610Y0035169D01*
X0104717Y0035979D01*
X0098124Y0035979D01*
X0098124Y0033860D02*
X0096924Y0033860D01*
X0096924Y0032661D02*
X0098124Y0032661D01*
X0098124Y0031463D02*
X0096924Y0031463D01*
X0096924Y0030264D02*
X0098124Y0030264D01*
X0101007Y0030264D02*
X0109004Y0030264D01*
X0109768Y0031463D02*
X0102604Y0031463D01*
X0103588Y0032661D02*
X0109768Y0032661D01*
X0109768Y0033860D02*
X0104202Y0033860D01*
X0104581Y0035058D02*
X0109768Y0035058D01*
X0107806Y0029066D02*
X0088107Y0029066D01*
X0086909Y0030264D02*
X0094040Y0030264D01*
X0092443Y0031463D02*
X0085710Y0031463D01*
X0084512Y0032661D02*
X0091460Y0032661D01*
X0090846Y0033860D02*
X0083313Y0033860D01*
X0082115Y0035058D02*
X0090466Y0035058D01*
X0071328Y0045845D02*
X0109768Y0045845D01*
X0109768Y0047043D02*
X0070130Y0047043D01*
X0068931Y0048242D02*
X0109768Y0048242D01*
X0109768Y0049440D02*
X0067733Y0049440D01*
D19*
X0009338Y0009338D02*
X0006221Y0013246D01*
X0004053Y0017750D01*
X0002940Y0022623D01*
X0002800Y0025122D01*
X0002800Y0292839D01*
X0002940Y0295338D01*
X0004053Y0300211D01*
X0006221Y0304715D01*
X0009338Y0308623D01*
X0013246Y0311739D01*
X0013246Y0311739D01*
X0017750Y0313908D01*
X0022623Y0315020D01*
X0025122Y0315161D01*
X0139254Y0315161D01*
X0141847Y0314911D01*
X0146889Y0313546D01*
X0151501Y0311093D01*
X0155451Y0307676D01*
X0158542Y0303465D01*
X0160618Y0298672D01*
X0161576Y0293537D01*
X0161617Y0290986D01*
X0161617Y0290896D01*
X0161597Y0290384D01*
X0161617Y0290362D01*
X0161617Y0023198D01*
X0161380Y0020827D01*
X0160115Y0016214D01*
X0157854Y0011999D01*
X0154712Y0008393D01*
X0150847Y0005576D01*
X0146452Y0003690D01*
X0141747Y0002829D01*
X0139449Y0002800D01*
X0139323Y0002800D01*
X0138814Y0002822D01*
X0138790Y0002800D01*
X0025122Y0002800D01*
X0022623Y0002940D01*
X0017750Y0004053D01*
X0013246Y0006221D01*
X0009338Y0009338D01*
X0009410Y0009281D02*
X0155486Y0009281D01*
X0156007Y0009879D02*
X0008906Y0009879D01*
X0008429Y0010478D02*
X0156529Y0010478D01*
X0157050Y0011076D02*
X0007952Y0011076D01*
X0007474Y0011675D02*
X0157572Y0011675D01*
X0158001Y0012273D02*
X0006997Y0012273D01*
X0006520Y0012872D02*
X0021411Y0012872D01*
X0022008Y0012691D02*
X0020805Y0013056D01*
X0019643Y0013537D01*
X0018534Y0014130D01*
X0017488Y0014829D01*
X0016516Y0015626D01*
X0015626Y0016516D01*
X0014829Y0017488D01*
X0014130Y0018534D01*
X0013537Y0019643D01*
X0013056Y0020805D01*
X0012691Y0022008D01*
X0012445Y0023242D01*
X0012322Y0024493D01*
X0012322Y0024822D01*
X0024822Y0024822D01*
X0025422Y0024822D01*
X0025422Y0012322D01*
X0025751Y0012322D01*
X0027002Y0012445D01*
X0028236Y0012691D01*
X0029439Y0013056D01*
X0030601Y0013537D01*
X0031710Y0014130D01*
X0032756Y0014829D01*
X0033728Y0015626D01*
X0034618Y0016516D01*
X0035415Y0017488D01*
X0036114Y0018534D01*
X0036707Y0019643D01*
X0037188Y0020805D01*
X0037553Y0022008D01*
X0037799Y0023242D01*
X0037922Y0024493D01*
X0037922Y0024822D01*
X0025422Y0024822D01*
X0025422Y0025422D01*
X0037922Y0025422D01*
X0037922Y0025751D01*
X0037799Y0027002D01*
X0037553Y0028236D01*
X0037188Y0029439D01*
X0036707Y0030601D01*
X0036114Y0031710D01*
X0035415Y0032756D01*
X0034618Y0033728D01*
X0033728Y0034618D01*
X0032756Y0035415D01*
X0031710Y0036114D01*
X0030601Y0036707D01*
X0029439Y0037188D01*
X0028236Y0037553D01*
X0027002Y0037799D01*
X0025751Y0037922D01*
X0025422Y0037922D01*
X0025422Y0025422D01*
X0024822Y0025422D01*
X0024822Y0024822D01*
X0024822Y0012322D01*
X0024493Y0012322D01*
X0023242Y0012445D01*
X0022008Y0012691D01*
X0024822Y0012872D02*
X0025422Y0012872D01*
X0025422Y0013470D02*
X0024822Y0013470D01*
X0024822Y0014069D02*
X0025422Y0014069D01*
X0025422Y0014667D02*
X0024822Y0014667D01*
X0024822Y0015266D02*
X0025422Y0015266D01*
X0025422Y0015864D02*
X0024822Y0015864D01*
X0024822Y0016463D02*
X0025422Y0016463D01*
X0025422Y0017061D02*
X0024822Y0017061D01*
X0024822Y0017660D02*
X0025422Y0017660D01*
X0025422Y0018258D02*
X0024822Y0018258D01*
X0024822Y0018857D02*
X0025422Y0018857D01*
X0025422Y0019455D02*
X0024822Y0019455D01*
X0024822Y0020054D02*
X0025422Y0020054D01*
X0025422Y0020652D02*
X0024822Y0020652D01*
X0024822Y0021251D02*
X0025422Y0021251D01*
X0025422Y0021849D02*
X0024822Y0021849D01*
X0024822Y0022448D02*
X0025422Y0022448D01*
X0025422Y0023046D02*
X0024822Y0023046D01*
X0024822Y0023645D02*
X0025422Y0023645D01*
X0025422Y0024243D02*
X0024822Y0024243D01*
X0024822Y0024842D02*
X0002816Y0024842D01*
X0002800Y0025440D02*
X0012322Y0025440D01*
X0012322Y0025422D02*
X0012322Y0025751D01*
X0012445Y0027002D01*
X0012691Y0028236D01*
X0013056Y0029439D01*
X0013537Y0030601D01*
X0014130Y0031710D01*
X0014829Y0032756D01*
X0015626Y0033728D01*
X0016516Y0034618D01*
X0017488Y0035415D01*
X0018534Y0036114D01*
X0019643Y0036707D01*
X0020805Y0037188D01*
X0022008Y0037553D01*
X0023242Y0037799D01*
X0024493Y0037922D01*
X0024822Y0037922D01*
X0024822Y0025422D01*
X0012322Y0025422D01*
X0012350Y0026039D02*
X0002800Y0026039D01*
X0002800Y0026637D02*
X0012409Y0026637D01*
X0012492Y0027236D02*
X0002800Y0027236D01*
X0002800Y0027834D02*
X0012611Y0027834D01*
X0012750Y0028433D02*
X0002800Y0028433D01*
X0002800Y0029032D02*
X0012932Y0029032D01*
X0013135Y0029630D02*
X0002800Y0029630D01*
X0002800Y0030229D02*
X0013383Y0030229D01*
X0013658Y0030827D02*
X0002800Y0030827D01*
X0002800Y0031426D02*
X0013978Y0031426D01*
X0014339Y0032024D02*
X0002800Y0032024D01*
X0002800Y0032623D02*
X0014739Y0032623D01*
X0015210Y0033221D02*
X0002800Y0033221D01*
X0002800Y0033820D02*
X0015718Y0033820D01*
X0016316Y0034418D02*
X0002800Y0034418D01*
X0002800Y0035017D02*
X0017002Y0035017D01*
X0017787Y0035615D02*
X0002800Y0035615D01*
X0002800Y0036214D02*
X0018720Y0036214D01*
X0019897Y0036812D02*
X0002800Y0036812D01*
X0002800Y0037411D02*
X0021538Y0037411D01*
X0024822Y0037411D02*
X0025422Y0037411D01*
X0025422Y0036812D02*
X0024822Y0036812D01*
X0024822Y0036214D02*
X0025422Y0036214D01*
X0025422Y0035615D02*
X0024822Y0035615D01*
X0024822Y0035017D02*
X0025422Y0035017D01*
X0025422Y0034418D02*
X0024822Y0034418D01*
X0024822Y0033820D02*
X0025422Y0033820D01*
X0025422Y0033221D02*
X0024822Y0033221D01*
X0024822Y0032623D02*
X0025422Y0032623D01*
X0025422Y0032024D02*
X0024822Y0032024D01*
X0024822Y0031426D02*
X0025422Y0031426D01*
X0025422Y0030827D02*
X0024822Y0030827D01*
X0024822Y0030229D02*
X0025422Y0030229D01*
X0025422Y0029630D02*
X0024822Y0029630D01*
X0024822Y0029032D02*
X0025422Y0029032D01*
X0025422Y0028433D02*
X0024822Y0028433D01*
X0024822Y0027834D02*
X0025422Y0027834D01*
X0025422Y0027236D02*
X0024822Y0027236D01*
X0024822Y0026637D02*
X0025422Y0026637D01*
X0025422Y0026039D02*
X0024822Y0026039D01*
X0024822Y0025440D02*
X0025422Y0025440D01*
X0025422Y0024842D02*
X0138995Y0024842D01*
X0138995Y0024822D02*
X0126495Y0024822D01*
X0126495Y0024493D01*
X0126619Y0023242D01*
X0126864Y0022008D01*
X0127229Y0020805D01*
X0127710Y0019643D01*
X0128303Y0018534D01*
X0129002Y0017488D01*
X0129800Y0016516D01*
X0130689Y0015626D01*
X0131661Y0014829D01*
X0132707Y0014130D01*
X0133816Y0013537D01*
X0134978Y0013056D01*
X0136181Y0012691D01*
X0137415Y0012445D01*
X0138666Y0012322D01*
X0138995Y0012322D01*
X0138995Y0024822D01*
X0138995Y0025422D01*
X0126495Y0025422D01*
X0126495Y0025751D01*
X0126619Y0027002D01*
X0126864Y0028236D01*
X0127229Y0029439D01*
X0127710Y0030601D01*
X0128303Y0031710D01*
X0129002Y0032756D01*
X0129800Y0033728D01*
X0130689Y0034618D01*
X0131661Y0035415D01*
X0132707Y0036114D01*
X0133816Y0036707D01*
X0134978Y0037188D01*
X0136181Y0037553D01*
X0137415Y0037799D01*
X0138666Y0037922D01*
X0138995Y0037922D01*
X0138995Y0025422D01*
X0139595Y0025422D01*
X0139595Y0037922D01*
X0139924Y0037922D01*
X0141176Y0037799D01*
X0142409Y0037553D01*
X0143613Y0037188D01*
X0144775Y0036707D01*
X0145884Y0036114D01*
X0146929Y0035415D01*
X0147902Y0034618D01*
X0148791Y0033728D01*
X0149589Y0032756D01*
X0150287Y0031710D01*
X0150880Y0030601D01*
X0151362Y0029439D01*
X0151727Y0028236D01*
X0151972Y0027002D01*
X0152095Y0025751D01*
X0152095Y0025422D01*
X0139595Y0025422D01*
X0139595Y0024822D01*
X0139595Y0012322D01*
X0139924Y0012322D01*
X0141176Y0012445D01*
X0142409Y0012691D01*
X0143613Y0013056D01*
X0144775Y0013537D01*
X0145884Y0014130D01*
X0146929Y0014829D01*
X0147902Y0015626D01*
X0148791Y0016516D01*
X0149589Y0017488D01*
X0150287Y0018534D01*
X0150880Y0019643D01*
X0151362Y0020805D01*
X0151727Y0022008D01*
X0151972Y0023242D01*
X0152095Y0024493D01*
X0152095Y0024822D01*
X0139595Y0024822D01*
X0138995Y0024822D01*
X0138995Y0024243D02*
X0139595Y0024243D01*
X0139595Y0023645D02*
X0138995Y0023645D01*
X0138995Y0023046D02*
X0139595Y0023046D01*
X0139595Y0022448D02*
X0138995Y0022448D01*
X0138995Y0021849D02*
X0139595Y0021849D01*
X0139595Y0021251D02*
X0138995Y0021251D01*
X0138995Y0020652D02*
X0139595Y0020652D01*
X0139595Y0020054D02*
X0138995Y0020054D01*
X0138995Y0019455D02*
X0139595Y0019455D01*
X0139595Y0018857D02*
X0138995Y0018857D01*
X0138995Y0018258D02*
X0139595Y0018258D01*
X0139595Y0017660D02*
X0138995Y0017660D01*
X0138995Y0017061D02*
X0139595Y0017061D01*
X0139595Y0016463D02*
X0138995Y0016463D01*
X0138995Y0015864D02*
X0139595Y0015864D01*
X0139595Y0015266D02*
X0138995Y0015266D01*
X0138995Y0014667D02*
X0139595Y0014667D01*
X0139595Y0014069D02*
X0138995Y0014069D01*
X0138995Y0013470D02*
X0139595Y0013470D01*
X0139595Y0012872D02*
X0138995Y0012872D01*
X0135585Y0012872D02*
X0028833Y0012872D01*
X0030440Y0013470D02*
X0133977Y0013470D01*
X0132821Y0014069D02*
X0031596Y0014069D01*
X0032515Y0014667D02*
X0131903Y0014667D01*
X0131128Y0015266D02*
X0033289Y0015266D01*
X0033966Y0015864D02*
X0130451Y0015864D01*
X0129853Y0016463D02*
X0034565Y0016463D01*
X0035065Y0017061D02*
X0129352Y0017061D01*
X0128887Y0017660D02*
X0035530Y0017660D01*
X0035930Y0018258D02*
X0128487Y0018258D01*
X0128130Y0018857D02*
X0036287Y0018857D01*
X0036607Y0019455D02*
X0127810Y0019455D01*
X0127540Y0020054D02*
X0036877Y0020054D01*
X0037125Y0020652D02*
X0127292Y0020652D01*
X0127094Y0021251D02*
X0037324Y0021251D01*
X0037505Y0021849D02*
X0126912Y0021849D01*
X0126776Y0022448D02*
X0037641Y0022448D01*
X0037760Y0023046D02*
X0126657Y0023046D01*
X0126579Y0023645D02*
X0037838Y0023645D01*
X0037897Y0024243D02*
X0126520Y0024243D01*
X0126495Y0025440D02*
X0037922Y0025440D01*
X0037894Y0026039D02*
X0126524Y0026039D01*
X0126583Y0026637D02*
X0037835Y0026637D01*
X0037752Y0027236D02*
X0126665Y0027236D01*
X0126784Y0027834D02*
X0108696Y0027834D01*
X0108421Y0027559D02*
X0109299Y0028438D01*
X0111268Y0030406D01*
X0111268Y0063145D01*
X0110389Y0064024D01*
X0106452Y0067961D01*
X0088735Y0067961D01*
X0074956Y0081740D01*
X0050091Y0081740D01*
X0049213Y0080861D01*
X0049213Y0065839D01*
X0050091Y0064961D01*
X0052060Y0062992D01*
X0087493Y0027559D01*
X0108421Y0027559D01*
X0109294Y0028433D02*
X0126924Y0028433D01*
X0127105Y0029032D02*
X0109893Y0029032D01*
X0110492Y0029630D02*
X0127308Y0029630D01*
X0127556Y0030229D02*
X0111090Y0030229D01*
X0111268Y0030827D02*
X0127831Y0030827D01*
X0128151Y0031426D02*
X0111268Y0031426D01*
X0111268Y0032024D02*
X0128513Y0032024D01*
X0128913Y0032623D02*
X0111268Y0032623D01*
X0111268Y0033221D02*
X0129383Y0033221D01*
X0129891Y0033820D02*
X0111268Y0033820D01*
X0111268Y0034418D02*
X0130489Y0034418D01*
X0131175Y0035017D02*
X0111268Y0035017D01*
X0111268Y0035615D02*
X0131960Y0035615D01*
X0132893Y0036214D02*
X0111268Y0036214D01*
X0111268Y0036812D02*
X0134070Y0036812D01*
X0135711Y0037411D02*
X0111268Y0037411D01*
X0111268Y0038009D02*
X0161617Y0038009D01*
X0161617Y0037411D02*
X0142880Y0037411D01*
X0144521Y0036812D02*
X0161617Y0036812D01*
X0161617Y0036214D02*
X0145698Y0036214D01*
X0146631Y0035615D02*
X0161617Y0035615D01*
X0161617Y0035017D02*
X0147415Y0035017D01*
X0148101Y0034418D02*
X0161617Y0034418D01*
X0161617Y0033820D02*
X0148700Y0033820D01*
X0149207Y0033221D02*
X0161617Y0033221D01*
X0161617Y0032623D02*
X0149678Y0032623D01*
X0150078Y0032024D02*
X0161617Y0032024D01*
X0161617Y0031426D02*
X0150440Y0031426D01*
X0150760Y0030827D02*
X0161617Y0030827D01*
X0161617Y0030229D02*
X0151035Y0030229D01*
X0151283Y0029630D02*
X0161617Y0029630D01*
X0161617Y0029032D02*
X0151485Y0029032D01*
X0151667Y0028433D02*
X0161617Y0028433D01*
X0161617Y0027834D02*
X0151806Y0027834D01*
X0151926Y0027236D02*
X0161617Y0027236D01*
X0161617Y0026637D02*
X0152008Y0026637D01*
X0152067Y0026039D02*
X0161617Y0026039D01*
X0161617Y0025440D02*
X0152095Y0025440D01*
X0152071Y0024243D02*
X0161617Y0024243D01*
X0161617Y0023645D02*
X0152012Y0023645D01*
X0151933Y0023046D02*
X0161602Y0023046D01*
X0161542Y0022448D02*
X0151814Y0022448D01*
X0151678Y0021849D02*
X0161483Y0021849D01*
X0161423Y0021251D02*
X0151497Y0021251D01*
X0151298Y0020652D02*
X0161333Y0020652D01*
X0161168Y0020054D02*
X0151051Y0020054D01*
X0150780Y0019455D02*
X0161004Y0019455D01*
X0160840Y0018857D02*
X0150460Y0018857D01*
X0150103Y0018258D02*
X0160676Y0018258D01*
X0160511Y0017660D02*
X0149704Y0017660D01*
X0149239Y0017061D02*
X0160347Y0017061D01*
X0160183Y0016463D02*
X0148738Y0016463D01*
X0148139Y0015864D02*
X0159927Y0015864D01*
X0159606Y0015266D02*
X0147462Y0015266D01*
X0146688Y0014667D02*
X0159285Y0014667D01*
X0158964Y0014069D02*
X0145769Y0014069D01*
X0144613Y0013470D02*
X0158643Y0013470D01*
X0158322Y0012872D02*
X0143006Y0012872D01*
X0144297Y0003296D02*
X0021067Y0003296D01*
X0018444Y0003894D02*
X0146928Y0003894D01*
X0148322Y0004493D02*
X0016836Y0004493D01*
X0015593Y0005091D02*
X0149717Y0005091D01*
X0151003Y0005690D02*
X0014350Y0005690D01*
X0013162Y0006288D02*
X0151824Y0006288D01*
X0152646Y0006887D02*
X0012412Y0006887D01*
X0011661Y0007485D02*
X0153467Y0007485D01*
X0154288Y0008084D02*
X0010911Y0008084D01*
X0010160Y0008682D02*
X0154965Y0008682D01*
X0161617Y0024842D02*
X0139595Y0024842D01*
X0139595Y0025440D02*
X0138995Y0025440D01*
X0138995Y0026039D02*
X0139595Y0026039D01*
X0139595Y0026637D02*
X0138995Y0026637D01*
X0138995Y0027236D02*
X0139595Y0027236D01*
X0139595Y0027834D02*
X0138995Y0027834D01*
X0138995Y0028433D02*
X0139595Y0028433D01*
X0139595Y0029032D02*
X0138995Y0029032D01*
X0138995Y0029630D02*
X0139595Y0029630D01*
X0139595Y0030229D02*
X0138995Y0030229D01*
X0138995Y0030827D02*
X0139595Y0030827D01*
X0139595Y0031426D02*
X0138995Y0031426D01*
X0138995Y0032024D02*
X0139595Y0032024D01*
X0139595Y0032623D02*
X0138995Y0032623D01*
X0138995Y0033221D02*
X0139595Y0033221D01*
X0139595Y0033820D02*
X0138995Y0033820D01*
X0138995Y0034418D02*
X0139595Y0034418D01*
X0139595Y0035017D02*
X0138995Y0035017D01*
X0138995Y0035615D02*
X0139595Y0035615D01*
X0139595Y0036214D02*
X0138995Y0036214D01*
X0138995Y0036812D02*
X0139595Y0036812D01*
X0139595Y0037411D02*
X0138995Y0037411D01*
X0161617Y0038608D02*
X0111268Y0038608D01*
X0111268Y0039206D02*
X0161617Y0039206D01*
X0161617Y0039805D02*
X0111268Y0039805D01*
X0111268Y0040403D02*
X0161617Y0040403D01*
X0161617Y0041002D02*
X0111268Y0041002D01*
X0111268Y0041600D02*
X0161617Y0041600D01*
X0161617Y0042199D02*
X0111268Y0042199D01*
X0111268Y0042797D02*
X0161617Y0042797D01*
X0161617Y0043396D02*
X0111268Y0043396D01*
X0111268Y0043994D02*
X0161617Y0043994D01*
X0161617Y0044593D02*
X0111268Y0044593D01*
X0111268Y0045191D02*
X0161617Y0045191D01*
X0161617Y0045790D02*
X0111268Y0045790D01*
X0111268Y0046388D02*
X0161617Y0046388D01*
X0161617Y0046987D02*
X0111268Y0046987D01*
X0111268Y0047585D02*
X0161617Y0047585D01*
X0161617Y0048184D02*
X0111268Y0048184D01*
X0111268Y0048782D02*
X0161617Y0048782D01*
X0161617Y0049381D02*
X0111268Y0049381D01*
X0111268Y0049979D02*
X0161617Y0049979D01*
X0161617Y0050578D02*
X0111268Y0050578D01*
X0111268Y0051176D02*
X0161617Y0051176D01*
X0161617Y0051775D02*
X0111268Y0051775D01*
X0111268Y0052373D02*
X0161617Y0052373D01*
X0161617Y0052972D02*
X0111268Y0052972D01*
X0111268Y0053570D02*
X0161617Y0053570D01*
X0161617Y0054169D02*
X0111268Y0054169D01*
X0111268Y0054768D02*
X0161617Y0054768D01*
X0161617Y0055366D02*
X0111268Y0055366D01*
X0111268Y0055965D02*
X0161617Y0055965D01*
X0161617Y0056563D02*
X0111268Y0056563D01*
X0111268Y0057162D02*
X0161617Y0057162D01*
X0161617Y0057760D02*
X0111268Y0057760D01*
X0111268Y0058359D02*
X0161617Y0058359D01*
X0161617Y0058957D02*
X0111268Y0058957D01*
X0111268Y0059556D02*
X0161617Y0059556D01*
X0161617Y0060154D02*
X0111268Y0060154D01*
X0111268Y0060753D02*
X0161617Y0060753D01*
X0161617Y0061351D02*
X0111268Y0061351D01*
X0111268Y0061950D02*
X0161617Y0061950D01*
X0161617Y0062548D02*
X0111268Y0062548D01*
X0111266Y0063147D02*
X0161617Y0063147D01*
X0161617Y0063745D02*
X0110667Y0063745D01*
X0110069Y0064344D02*
X0161617Y0064344D01*
X0161617Y0064942D02*
X0109470Y0064942D01*
X0108872Y0065541D02*
X0161617Y0065541D01*
X0161617Y0066139D02*
X0108273Y0066139D01*
X0107675Y0066738D02*
X0161617Y0066738D01*
X0161617Y0067336D02*
X0107076Y0067336D01*
X0106478Y0067935D02*
X0161617Y0067935D01*
X0161617Y0068533D02*
X0099484Y0068533D01*
X0098819Y0068257D02*
X0101211Y0069249D01*
X0103043Y0071080D01*
X0104034Y0073473D01*
X0104034Y0076063D01*
X0103043Y0078455D01*
X0101211Y0080287D01*
X0098819Y0081278D01*
X0096229Y0081278D01*
X0093836Y0080287D01*
X0092005Y0078455D01*
X0091013Y0076063D01*
X0091013Y0073473D01*
X0092005Y0071080D01*
X0093836Y0069249D01*
X0096229Y0068257D01*
X0098819Y0068257D01*
X0100929Y0069132D02*
X0161617Y0069132D01*
X0161617Y0069730D02*
X0101693Y0069730D01*
X0102292Y0070329D02*
X0161617Y0070329D01*
X0161617Y0070927D02*
X0102890Y0070927D01*
X0103227Y0071526D02*
X0161617Y0071526D01*
X0161617Y0072124D02*
X0103475Y0072124D01*
X0103723Y0072723D02*
X0161617Y0072723D01*
X0161617Y0073321D02*
X0103971Y0073321D01*
X0104034Y0073920D02*
X0161617Y0073920D01*
X0161617Y0074518D02*
X0104034Y0074518D01*
X0104034Y0075117D02*
X0161617Y0075117D01*
X0161617Y0075715D02*
X0104034Y0075715D01*
X0103930Y0076314D02*
X0161617Y0076314D01*
X0161617Y0076912D02*
X0103682Y0076912D01*
X0103434Y0077511D02*
X0161617Y0077511D01*
X0161617Y0078109D02*
X0103186Y0078109D01*
X0102790Y0078708D02*
X0161617Y0078708D01*
X0161617Y0079306D02*
X0102192Y0079306D01*
X0101593Y0079905D02*
X0161617Y0079905D01*
X0161617Y0080503D02*
X0100688Y0080503D01*
X0099243Y0081102D02*
X0161617Y0081102D01*
X0161617Y0081701D02*
X0074996Y0081701D01*
X0075594Y0081102D02*
X0095804Y0081102D01*
X0094359Y0080503D02*
X0076193Y0080503D01*
X0076791Y0079905D02*
X0093454Y0079905D01*
X0092856Y0079306D02*
X0077390Y0079306D01*
X0077988Y0078708D02*
X0092257Y0078708D01*
X0091861Y0078109D02*
X0078587Y0078109D01*
X0079185Y0077511D02*
X0091613Y0077511D01*
X0091365Y0076912D02*
X0079784Y0076912D01*
X0080382Y0076314D02*
X0091117Y0076314D01*
X0091013Y0075715D02*
X0080981Y0075715D01*
X0081579Y0075117D02*
X0091013Y0075117D01*
X0091013Y0074518D02*
X0082178Y0074518D01*
X0082776Y0073920D02*
X0091013Y0073920D01*
X0091076Y0073321D02*
X0083375Y0073321D01*
X0083973Y0072723D02*
X0091324Y0072723D01*
X0091572Y0072124D02*
X0084572Y0072124D01*
X0085170Y0071526D02*
X0091820Y0071526D01*
X0092157Y0070927D02*
X0085769Y0070927D01*
X0086367Y0070329D02*
X0092756Y0070329D01*
X0093354Y0069730D02*
X0086966Y0069730D01*
X0087564Y0069132D02*
X0094118Y0069132D01*
X0095563Y0068533D02*
X0088163Y0068533D01*
X0096229Y0089911D02*
X0093836Y0090902D01*
X0092005Y0092734D01*
X0091013Y0095126D01*
X0091013Y0097716D01*
X0092005Y0100109D01*
X0093836Y0101940D01*
X0096229Y0102931D01*
X0098819Y0102931D01*
X0101211Y0101940D01*
X0103043Y0100109D01*
X0104034Y0097716D01*
X0104034Y0095126D01*
X0103043Y0092734D01*
X0101211Y0090902D01*
X0098819Y0089911D01*
X0096229Y0089911D01*
X0095821Y0090080D02*
X0064943Y0090080D01*
X0065299Y0090175D02*
X0066342Y0090607D01*
X0067320Y0091172D01*
X0068216Y0091859D01*
X0069015Y0092658D01*
X0069702Y0093554D01*
X0070267Y0094532D01*
X0070699Y0095575D01*
X0070991Y0096666D01*
X0071139Y0097786D01*
X0071139Y0098050D01*
X0062824Y0098050D01*
X0062824Y0098650D01*
X0071139Y0098650D01*
X0071139Y0098915D01*
X0070991Y0100035D01*
X0070699Y0101126D01*
X0070267Y0102169D01*
X0069702Y0103147D01*
X0069015Y0104043D01*
X0068216Y0104841D01*
X0067320Y0105529D01*
X0066342Y0106093D01*
X0065299Y0106526D01*
X0064208Y0106818D01*
X0063088Y0106965D01*
X0062824Y0106965D01*
X0062824Y0098650D01*
X0062224Y0098650D01*
X0062224Y0098050D01*
X0062824Y0098050D01*
X0062824Y0089735D01*
X0063088Y0089735D01*
X0064208Y0089883D01*
X0065299Y0090175D01*
X0066465Y0090678D02*
X0094377Y0090678D01*
X0093461Y0091277D02*
X0067457Y0091277D01*
X0068232Y0091875D02*
X0092863Y0091875D01*
X0092264Y0092474D02*
X0068830Y0092474D01*
X0069332Y0093072D02*
X0091864Y0093072D01*
X0091616Y0093671D02*
X0069770Y0093671D01*
X0070115Y0094269D02*
X0091368Y0094269D01*
X0091120Y0094868D02*
X0070406Y0094868D01*
X0070654Y0095466D02*
X0091013Y0095466D01*
X0091013Y0096065D02*
X0070830Y0096065D01*
X0070990Y0096663D02*
X0091013Y0096663D01*
X0091013Y0097262D02*
X0071070Y0097262D01*
X0071139Y0097860D02*
X0091073Y0097860D01*
X0091321Y0098459D02*
X0062824Y0098459D01*
X0062824Y0099057D02*
X0062224Y0099057D01*
X0062224Y0098650D02*
X0062224Y0106965D01*
X0061959Y0106965D01*
X0060839Y0106818D01*
X0059748Y0106526D01*
X0058705Y0106093D01*
X0057727Y0105529D01*
X0056831Y0104841D01*
X0056033Y0104043D01*
X0055345Y0103147D01*
X0054781Y0102169D01*
X0054348Y0101126D01*
X0054056Y0100035D01*
X0053909Y0098915D01*
X0053909Y0098650D01*
X0062224Y0098650D01*
X0062224Y0098459D02*
X0002800Y0098459D01*
X0002800Y0099057D02*
X0053927Y0099057D01*
X0054006Y0099656D02*
X0002800Y0099656D01*
X0002800Y0100254D02*
X0054115Y0100254D01*
X0054275Y0100853D02*
X0002800Y0100853D01*
X0002800Y0101451D02*
X0054483Y0101451D01*
X0054731Y0102050D02*
X0002800Y0102050D01*
X0002800Y0102648D02*
X0055057Y0102648D01*
X0055422Y0103247D02*
X0002800Y0103247D01*
X0002800Y0103845D02*
X0055881Y0103845D01*
X0056434Y0104444D02*
X0002800Y0104444D01*
X0002800Y0105042D02*
X0057093Y0105042D01*
X0057921Y0105641D02*
X0041260Y0105641D01*
X0042088Y0105984D02*
X0040020Y0105128D01*
X0037783Y0105128D01*
X0035716Y0105984D01*
X0034133Y0107566D01*
X0033277Y0109633D01*
X0033277Y0111871D01*
X0034133Y0113938D01*
X0035716Y0115520D01*
X0037783Y0116376D01*
X0040020Y0116376D01*
X0042088Y0115520D01*
X0043670Y0113938D01*
X0044526Y0111871D01*
X0044526Y0109633D01*
X0043670Y0107566D01*
X0042088Y0105984D01*
X0042343Y0106239D02*
X0059058Y0106239D01*
X0060992Y0106838D02*
X0042942Y0106838D01*
X0043540Y0107437D02*
X0161617Y0107437D01*
X0161617Y0108035D02*
X0043864Y0108035D01*
X0044112Y0108634D02*
X0161617Y0108634D01*
X0161617Y0109232D02*
X0044360Y0109232D01*
X0044526Y0109831D02*
X0161617Y0109831D01*
X0161617Y0110429D02*
X0044526Y0110429D01*
X0044526Y0111028D02*
X0161617Y0111028D01*
X0161617Y0111626D02*
X0044526Y0111626D01*
X0044379Y0112225D02*
X0161617Y0112225D01*
X0161617Y0112823D02*
X0044131Y0112823D01*
X0043884Y0113422D02*
X0161617Y0113422D01*
X0161617Y0114020D02*
X0043588Y0114020D01*
X0042989Y0114619D02*
X0161617Y0114619D01*
X0161617Y0115217D02*
X0042390Y0115217D01*
X0041374Y0115816D02*
X0161617Y0115816D01*
X0161617Y0116414D02*
X0002800Y0116414D01*
X0002800Y0115816D02*
X0036429Y0115816D01*
X0035413Y0115217D02*
X0002800Y0115217D01*
X0002800Y0114619D02*
X0034814Y0114619D01*
X0034216Y0114020D02*
X0002800Y0114020D01*
X0002800Y0113422D02*
X0033920Y0113422D01*
X0033672Y0112823D02*
X0002800Y0112823D01*
X0002800Y0112225D02*
X0033424Y0112225D01*
X0033277Y0111626D02*
X0002800Y0111626D01*
X0002800Y0111028D02*
X0033277Y0111028D01*
X0033277Y0110429D02*
X0002800Y0110429D01*
X0002800Y0109831D02*
X0033277Y0109831D01*
X0033443Y0109232D02*
X0002800Y0109232D01*
X0002800Y0108634D02*
X0033691Y0108634D01*
X0033939Y0108035D02*
X0002800Y0108035D01*
X0002800Y0107437D02*
X0034263Y0107437D01*
X0034861Y0106838D02*
X0002800Y0106838D01*
X0002800Y0106239D02*
X0035460Y0106239D01*
X0036543Y0105641D02*
X0002800Y0105641D01*
X0002800Y0097860D02*
X0053909Y0097860D01*
X0053909Y0097786D02*
X0054056Y0096666D01*
X0054348Y0095575D01*
X0054781Y0094532D01*
X0055345Y0093554D01*
X0056033Y0092658D01*
X0056831Y0091859D01*
X0057727Y0091172D01*
X0058705Y0090607D01*
X0059748Y0090175D01*
X0060839Y0089883D01*
X0061959Y0089735D01*
X0062224Y0089735D01*
X0062224Y0098050D01*
X0053909Y0098050D01*
X0053909Y0097786D01*
X0053978Y0097262D02*
X0002800Y0097262D01*
X0002800Y0096663D02*
X0054057Y0096663D01*
X0054217Y0096065D02*
X0002800Y0096065D01*
X0002800Y0095466D02*
X0054393Y0095466D01*
X0054641Y0094868D02*
X0002800Y0094868D01*
X0002800Y0094269D02*
X0054932Y0094269D01*
X0055278Y0093671D02*
X0002800Y0093671D01*
X0002800Y0093072D02*
X0055715Y0093072D01*
X0056217Y0092474D02*
X0002800Y0092474D01*
X0002800Y0091875D02*
X0056815Y0091875D01*
X0057591Y0091277D02*
X0002800Y0091277D01*
X0002800Y0090678D02*
X0058582Y0090678D01*
X0060105Y0090080D02*
X0002800Y0090080D01*
X0002800Y0089481D02*
X0161617Y0089481D01*
X0161617Y0088883D02*
X0002800Y0088883D01*
X0002800Y0088284D02*
X0161617Y0088284D01*
X0161617Y0087686D02*
X0002800Y0087686D01*
X0002800Y0087087D02*
X0161617Y0087087D01*
X0161617Y0086489D02*
X0002800Y0086489D01*
X0002800Y0085890D02*
X0161617Y0085890D01*
X0161617Y0085292D02*
X0002800Y0085292D01*
X0002800Y0084693D02*
X0161617Y0084693D01*
X0161617Y0084095D02*
X0002800Y0084095D01*
X0002800Y0083496D02*
X0161617Y0083496D01*
X0161617Y0082898D02*
X0002800Y0082898D01*
X0002800Y0082299D02*
X0161617Y0082299D01*
X0161617Y0090080D02*
X0099226Y0090080D01*
X0100671Y0090678D02*
X0161617Y0090678D01*
X0161617Y0091277D02*
X0101586Y0091277D01*
X0102184Y0091875D02*
X0161617Y0091875D01*
X0161617Y0092474D02*
X0102783Y0092474D01*
X0103183Y0093072D02*
X0161617Y0093072D01*
X0161617Y0093671D02*
X0103431Y0093671D01*
X0103679Y0094269D02*
X0161617Y0094269D01*
X0161617Y0094868D02*
X0103927Y0094868D01*
X0104034Y0095466D02*
X0161617Y0095466D01*
X0161617Y0096065D02*
X0104034Y0096065D01*
X0104034Y0096663D02*
X0161617Y0096663D01*
X0161617Y0097262D02*
X0104034Y0097262D01*
X0103974Y0097860D02*
X0161617Y0097860D01*
X0161617Y0098459D02*
X0103726Y0098459D01*
X0103478Y0099057D02*
X0161617Y0099057D01*
X0161617Y0099656D02*
X0103230Y0099656D01*
X0102897Y0100254D02*
X0161617Y0100254D01*
X0161617Y0100853D02*
X0102299Y0100853D01*
X0101700Y0101451D02*
X0161617Y0101451D01*
X0161617Y0102050D02*
X0100947Y0102050D01*
X0099502Y0102648D02*
X0161617Y0102648D01*
X0161617Y0103247D02*
X0069625Y0103247D01*
X0069990Y0102648D02*
X0095545Y0102648D01*
X0094100Y0102050D02*
X0070316Y0102050D01*
X0070564Y0101451D02*
X0093347Y0101451D01*
X0092748Y0100853D02*
X0070772Y0100853D01*
X0070932Y0100254D02*
X0092150Y0100254D01*
X0091817Y0099656D02*
X0071041Y0099656D01*
X0071120Y0099057D02*
X0091569Y0099057D01*
X0108379Y0120179D02*
X0109199Y0120999D01*
X0111168Y0122967D01*
X0111168Y0157592D01*
X0110348Y0158412D01*
X0108379Y0160380D01*
X0091471Y0160380D01*
X0090651Y0159560D01*
X0089503Y0158412D01*
X0050133Y0158412D01*
X0049313Y0157592D01*
X0049313Y0132810D01*
X0050133Y0131990D01*
X0061944Y0120179D01*
X0108379Y0120179D01*
X0108804Y0120604D02*
X0161617Y0120604D01*
X0161617Y0121202D02*
X0109403Y0121202D01*
X0110001Y0121801D02*
X0161617Y0121801D01*
X0161617Y0122399D02*
X0110600Y0122399D01*
X0111168Y0122998D02*
X0161617Y0122998D01*
X0161617Y0123596D02*
X0111168Y0123596D01*
X0111168Y0124195D02*
X0161617Y0124195D01*
X0161617Y0124793D02*
X0111168Y0124793D01*
X0111168Y0125392D02*
X0161617Y0125392D01*
X0161617Y0125990D02*
X0111168Y0125990D01*
X0111168Y0126589D02*
X0161617Y0126589D01*
X0161617Y0127187D02*
X0111168Y0127187D01*
X0111168Y0127786D02*
X0161617Y0127786D01*
X0161617Y0128384D02*
X0111168Y0128384D01*
X0111168Y0128983D02*
X0161617Y0128983D01*
X0161617Y0129581D02*
X0111168Y0129581D01*
X0111168Y0130180D02*
X0161617Y0130180D01*
X0161617Y0130778D02*
X0111168Y0130778D01*
X0111168Y0131377D02*
X0161617Y0131377D01*
X0161617Y0131975D02*
X0111168Y0131975D01*
X0111168Y0132574D02*
X0161617Y0132574D01*
X0161617Y0133172D02*
X0111168Y0133172D01*
X0111168Y0133771D02*
X0161617Y0133771D01*
X0161617Y0134370D02*
X0111168Y0134370D01*
X0111168Y0134968D02*
X0161617Y0134968D01*
X0161617Y0135567D02*
X0111168Y0135567D01*
X0111168Y0136165D02*
X0161617Y0136165D01*
X0161617Y0136764D02*
X0111168Y0136764D01*
X0111168Y0137362D02*
X0161617Y0137362D01*
X0161617Y0137961D02*
X0111168Y0137961D01*
X0111168Y0138559D02*
X0161617Y0138559D01*
X0161617Y0139158D02*
X0111168Y0139158D01*
X0111168Y0139756D02*
X0161617Y0139756D01*
X0161617Y0140355D02*
X0111168Y0140355D01*
X0111168Y0140953D02*
X0161617Y0140953D01*
X0161617Y0141552D02*
X0111168Y0141552D01*
X0111168Y0142150D02*
X0161617Y0142150D01*
X0161617Y0142749D02*
X0111168Y0142749D01*
X0111168Y0143347D02*
X0161617Y0143347D01*
X0161617Y0143946D02*
X0111168Y0143946D01*
X0111168Y0144544D02*
X0161617Y0144544D01*
X0161617Y0145143D02*
X0111168Y0145143D01*
X0111168Y0145741D02*
X0161617Y0145741D01*
X0161617Y0146340D02*
X0111168Y0146340D01*
X0111168Y0146938D02*
X0161617Y0146938D01*
X0161617Y0147537D02*
X0111168Y0147537D01*
X0111168Y0148135D02*
X0161617Y0148135D01*
X0161617Y0148734D02*
X0111168Y0148734D01*
X0111168Y0149332D02*
X0161617Y0149332D01*
X0161617Y0149931D02*
X0111168Y0149931D01*
X0111168Y0150529D02*
X0161617Y0150529D01*
X0161617Y0151128D02*
X0111168Y0151128D01*
X0111168Y0151726D02*
X0148465Y0151726D01*
X0148234Y0151788D02*
X0149146Y0151544D01*
X0150083Y0151420D01*
X0150255Y0151420D01*
X0150255Y0158326D01*
X0143350Y0158326D01*
X0143350Y0158154D01*
X0143473Y0157217D01*
X0143717Y0156305D01*
X0144079Y0155432D01*
X0144551Y0154614D01*
X0145126Y0153865D01*
X0145794Y0153197D01*
X0146543Y0152622D01*
X0147361Y0152150D01*
X0148234Y0151788D01*
X0147058Y0152325D02*
X0133127Y0152325D01*
X0131909Y0151820D02*
X0134410Y0152857D01*
X0136325Y0154771D01*
X0137361Y0157272D01*
X0137361Y0159980D01*
X0136325Y0162481D01*
X0134410Y0164395D01*
X0131909Y0165431D01*
X0129201Y0165431D01*
X0126700Y0164395D01*
X0124786Y0162481D01*
X0123750Y0159980D01*
X0123750Y0157272D01*
X0124786Y0154771D01*
X0126700Y0152857D01*
X0129201Y0151820D01*
X0131909Y0151820D01*
X0134477Y0152923D02*
X0146151Y0152923D01*
X0145469Y0153522D02*
X0135075Y0153522D01*
X0135674Y0154120D02*
X0144930Y0154120D01*
X0144491Y0154719D02*
X0136272Y0154719D01*
X0136551Y0155317D02*
X0144145Y0155317D01*
X0143878Y0155916D02*
X0136799Y0155916D01*
X0137047Y0156514D02*
X0143661Y0156514D01*
X0143501Y0157113D02*
X0137295Y0157113D01*
X0137361Y0157711D02*
X0143408Y0157711D01*
X0143350Y0158310D02*
X0137361Y0158310D01*
X0137361Y0158908D02*
X0150255Y0158908D01*
X0150255Y0158926D02*
X0150255Y0158326D01*
X0150855Y0158326D01*
X0150855Y0151420D01*
X0151027Y0151420D01*
X0151964Y0151544D01*
X0152876Y0151788D01*
X0153749Y0152150D01*
X0154567Y0152622D01*
X0155316Y0153197D01*
X0155984Y0153865D01*
X0156559Y0154614D01*
X0157031Y0155432D01*
X0157393Y0156305D01*
X0157637Y0157217D01*
X0157761Y0158154D01*
X0157761Y0158326D01*
X0150855Y0158326D01*
X0150855Y0158926D01*
X0150255Y0158926D01*
X0143350Y0158926D01*
X0143350Y0159098D01*
X0143473Y0160035D01*
X0143717Y0160947D01*
X0144079Y0161820D01*
X0144551Y0162638D01*
X0145126Y0163387D01*
X0145794Y0164055D01*
X0146543Y0164630D01*
X0147361Y0165102D01*
X0148234Y0165464D01*
X0149146Y0165708D01*
X0150083Y0165831D01*
X0150255Y0165831D01*
X0150255Y0158926D01*
X0150255Y0159507D02*
X0150855Y0159507D01*
X0150855Y0158926D02*
X0150855Y0165831D01*
X0151027Y0165831D01*
X0151964Y0165708D01*
X0152876Y0165464D01*
X0153749Y0165102D01*
X0154567Y0164630D01*
X0155316Y0164055D01*
X0155984Y0163387D01*
X0156559Y0162638D01*
X0157031Y0161820D01*
X0157393Y0160947D01*
X0157637Y0160035D01*
X0157761Y0159098D01*
X0157761Y0158926D01*
X0150855Y0158926D01*
X0150855Y0158908D02*
X0161617Y0158908D01*
X0161617Y0158310D02*
X0157761Y0158310D01*
X0157702Y0157711D02*
X0161617Y0157711D01*
X0161617Y0157113D02*
X0157609Y0157113D01*
X0157449Y0156514D02*
X0161617Y0156514D01*
X0161617Y0155916D02*
X0157232Y0155916D01*
X0156965Y0155317D02*
X0161617Y0155317D01*
X0161617Y0154719D02*
X0156620Y0154719D01*
X0156180Y0154120D02*
X0161617Y0154120D01*
X0161617Y0153522D02*
X0155641Y0153522D01*
X0154960Y0152923D02*
X0161617Y0152923D01*
X0161617Y0152325D02*
X0154052Y0152325D01*
X0152645Y0151726D02*
X0161617Y0151726D01*
X0161617Y0159507D02*
X0157707Y0159507D01*
X0157618Y0160105D02*
X0161617Y0160105D01*
X0161617Y0160704D02*
X0157458Y0160704D01*
X0157246Y0161303D02*
X0161617Y0161303D01*
X0161617Y0161901D02*
X0156984Y0161901D01*
X0156639Y0162500D02*
X0161617Y0162500D01*
X0161617Y0163098D02*
X0156206Y0163098D01*
X0155675Y0163697D02*
X0161617Y0163697D01*
X0161617Y0164295D02*
X0155003Y0164295D01*
X0154110Y0164894D02*
X0161617Y0164894D01*
X0161617Y0165492D02*
X0152770Y0165492D01*
X0150855Y0165492D02*
X0150255Y0165492D01*
X0150255Y0164894D02*
X0150855Y0164894D01*
X0150855Y0164295D02*
X0150255Y0164295D01*
X0150255Y0163697D02*
X0150855Y0163697D01*
X0150855Y0163098D02*
X0150255Y0163098D01*
X0150255Y0162500D02*
X0150855Y0162500D01*
X0150855Y0161901D02*
X0150255Y0161901D01*
X0150255Y0161303D02*
X0150855Y0161303D01*
X0150855Y0160704D02*
X0150255Y0160704D01*
X0150255Y0160105D02*
X0150855Y0160105D01*
X0150855Y0158310D02*
X0150255Y0158310D01*
X0150255Y0157711D02*
X0150855Y0157711D01*
X0150855Y0157113D02*
X0150255Y0157113D01*
X0150255Y0156514D02*
X0150855Y0156514D01*
X0150855Y0155916D02*
X0150255Y0155916D01*
X0150255Y0155317D02*
X0150855Y0155317D01*
X0150855Y0154719D02*
X0150255Y0154719D01*
X0150255Y0154120D02*
X0150855Y0154120D01*
X0150855Y0153522D02*
X0150255Y0153522D01*
X0150255Y0152923D02*
X0150855Y0152923D01*
X0150855Y0152325D02*
X0150255Y0152325D01*
X0150255Y0151726D02*
X0150855Y0151726D01*
X0143403Y0159507D02*
X0137361Y0159507D01*
X0137309Y0160105D02*
X0143492Y0160105D01*
X0143652Y0160704D02*
X0137061Y0160704D01*
X0136813Y0161303D02*
X0143865Y0161303D01*
X0144126Y0161901D02*
X0136565Y0161901D01*
X0136306Y0162500D02*
X0144471Y0162500D01*
X0144904Y0163098D02*
X0135707Y0163098D01*
X0135109Y0163697D02*
X0145436Y0163697D01*
X0146107Y0164295D02*
X0134510Y0164295D01*
X0133207Y0164894D02*
X0147000Y0164894D01*
X0148340Y0165492D02*
X0104276Y0165492D01*
X0104467Y0165953D02*
X0103476Y0163560D01*
X0101644Y0161729D01*
X0099252Y0160738D01*
X0096662Y0160738D01*
X0094269Y0161729D01*
X0092438Y0163560D01*
X0091446Y0165953D01*
X0091446Y0168543D01*
X0092438Y0170936D01*
X0094269Y0172767D01*
X0096662Y0173758D01*
X0099252Y0173758D01*
X0101644Y0172767D01*
X0103476Y0170936D01*
X0104467Y0168543D01*
X0104467Y0165953D01*
X0104467Y0166091D02*
X0161617Y0166091D01*
X0161617Y0166689D02*
X0104467Y0166689D01*
X0104467Y0167288D02*
X0161617Y0167288D01*
X0161617Y0167886D02*
X0104467Y0167886D01*
X0104467Y0168485D02*
X0161617Y0168485D01*
X0161617Y0169083D02*
X0104243Y0169083D01*
X0103995Y0169682D02*
X0161617Y0169682D01*
X0161617Y0170280D02*
X0103747Y0170280D01*
X0103499Y0170879D02*
X0161617Y0170879D01*
X0161617Y0171477D02*
X0102934Y0171477D01*
X0102336Y0172076D02*
X0161617Y0172076D01*
X0161617Y0172674D02*
X0101737Y0172674D01*
X0100424Y0173273D02*
X0161617Y0173273D01*
X0161617Y0173871D02*
X0071118Y0173871D01*
X0071139Y0173718D02*
X0070991Y0174838D01*
X0070699Y0175929D01*
X0070267Y0176972D01*
X0069702Y0177950D01*
X0069015Y0178846D01*
X0068216Y0179645D01*
X0067320Y0180332D01*
X0066342Y0180897D01*
X0065299Y0181329D01*
X0064208Y0181621D01*
X0063088Y0181768D01*
X0062824Y0181768D01*
X0062824Y0173454D01*
X0062224Y0173454D01*
X0062224Y0181768D01*
X0061959Y0181768D01*
X0060839Y0181621D01*
X0059748Y0181329D01*
X0058705Y0180897D01*
X0057727Y0180332D01*
X0056831Y0179645D01*
X0056033Y0178846D01*
X0055345Y0177950D01*
X0054781Y0176972D01*
X0054348Y0175929D01*
X0054056Y0174838D01*
X0053909Y0173718D01*
X0053909Y0173454D01*
X0062224Y0173454D01*
X0062224Y0172854D01*
X0053909Y0172854D01*
X0053909Y0172589D01*
X0054056Y0171469D01*
X0054348Y0170378D01*
X0054781Y0169335D01*
X0055345Y0168357D01*
X0056033Y0167461D01*
X0056831Y0166663D01*
X0057727Y0165975D01*
X0058705Y0165410D01*
X0059748Y0164978D01*
X0060839Y0164686D01*
X0061959Y0164539D01*
X0062224Y0164539D01*
X0062224Y0172853D01*
X0062824Y0172853D01*
X0062824Y0172854D02*
X0062824Y0173454D01*
X0071139Y0173454D01*
X0071139Y0173718D01*
X0071040Y0174470D02*
X0161617Y0174470D01*
X0161617Y0175068D02*
X0070929Y0175068D01*
X0070769Y0175667D02*
X0161617Y0175667D01*
X0161617Y0176265D02*
X0070559Y0176265D01*
X0070312Y0176864D02*
X0161617Y0176864D01*
X0161617Y0177462D02*
X0069984Y0177462D01*
X0069617Y0178061D02*
X0161617Y0178061D01*
X0161617Y0178659D02*
X0069158Y0178659D01*
X0068603Y0179258D02*
X0161617Y0179258D01*
X0161617Y0179856D02*
X0067940Y0179856D01*
X0067107Y0180455D02*
X0161617Y0180455D01*
X0161617Y0181053D02*
X0065964Y0181053D01*
X0063974Y0181652D02*
X0161617Y0181652D01*
X0161617Y0182250D02*
X0043551Y0182250D01*
X0043670Y0182369D02*
X0044526Y0184436D01*
X0044526Y0186674D01*
X0043670Y0188741D01*
X0042088Y0190323D01*
X0040020Y0191180D01*
X0037783Y0191180D01*
X0035716Y0190323D01*
X0034133Y0188741D01*
X0033277Y0186674D01*
X0033277Y0184436D01*
X0034133Y0182369D01*
X0035716Y0180787D01*
X0037783Y0179931D01*
X0040020Y0179931D01*
X0042088Y0180787D01*
X0043670Y0182369D01*
X0043868Y0182849D02*
X0095557Y0182849D01*
X0096662Y0182391D02*
X0094269Y0183382D01*
X0092438Y0185214D01*
X0091446Y0187607D01*
X0091446Y0190197D01*
X0092438Y0192589D01*
X0094269Y0194421D01*
X0096662Y0195412D01*
X0099252Y0195412D01*
X0101644Y0194421D01*
X0103476Y0192589D01*
X0104467Y0190197D01*
X0104467Y0187607D01*
X0103476Y0185214D01*
X0101644Y0183382D01*
X0099252Y0182391D01*
X0096662Y0182391D01*
X0094204Y0183447D02*
X0044116Y0183447D01*
X0044364Y0184046D02*
X0093605Y0184046D01*
X0093007Y0184644D02*
X0044526Y0184644D01*
X0044526Y0185243D02*
X0092425Y0185243D01*
X0092178Y0185841D02*
X0044526Y0185841D01*
X0044526Y0186440D02*
X0091930Y0186440D01*
X0091682Y0187039D02*
X0044375Y0187039D01*
X0044127Y0187637D02*
X0091446Y0187637D01*
X0091446Y0188236D02*
X0043879Y0188236D01*
X0043577Y0188834D02*
X0091446Y0188834D01*
X0091446Y0189433D02*
X0042978Y0189433D01*
X0042380Y0190031D02*
X0091446Y0190031D01*
X0091626Y0190630D02*
X0041348Y0190630D01*
X0042952Y0181652D02*
X0061073Y0181652D01*
X0062224Y0181652D02*
X0062824Y0181652D01*
X0062824Y0181053D02*
X0062224Y0181053D01*
X0062224Y0180455D02*
X0062824Y0180455D01*
X0062824Y0179856D02*
X0062224Y0179856D01*
X0062224Y0179258D02*
X0062824Y0179258D01*
X0062824Y0178659D02*
X0062224Y0178659D01*
X0062224Y0178061D02*
X0062824Y0178061D01*
X0062824Y0177462D02*
X0062224Y0177462D01*
X0062224Y0176864D02*
X0062824Y0176864D01*
X0062824Y0176265D02*
X0062224Y0176265D01*
X0062224Y0175667D02*
X0062824Y0175667D01*
X0062824Y0175068D02*
X0062224Y0175068D01*
X0062224Y0174470D02*
X0062824Y0174470D01*
X0062824Y0173871D02*
X0062224Y0173871D01*
X0062224Y0173273D02*
X0002800Y0173273D01*
X0002800Y0173871D02*
X0053929Y0173871D01*
X0054008Y0174470D02*
X0002800Y0174470D01*
X0002800Y0175068D02*
X0054118Y0175068D01*
X0054278Y0175667D02*
X0002800Y0175667D01*
X0002800Y0176265D02*
X0054488Y0176265D01*
X0054736Y0176864D02*
X0002800Y0176864D01*
X0002800Y0177462D02*
X0055064Y0177462D01*
X0055430Y0178061D02*
X0002800Y0178061D01*
X0002800Y0178659D02*
X0055889Y0178659D01*
X0056445Y0179258D02*
X0002800Y0179258D01*
X0002800Y0179856D02*
X0057107Y0179856D01*
X0057940Y0180455D02*
X0041286Y0180455D01*
X0042354Y0181053D02*
X0059084Y0181053D01*
X0062824Y0173273D02*
X0095490Y0173273D01*
X0094176Y0172674D02*
X0071139Y0172674D01*
X0071139Y0172589D02*
X0071139Y0172854D01*
X0062824Y0172854D01*
X0062824Y0172853D02*
X0062824Y0164539D01*
X0063088Y0164539D01*
X0064208Y0164686D01*
X0065299Y0164978D01*
X0066342Y0165410D01*
X0067320Y0165975D01*
X0068216Y0166663D01*
X0069015Y0167461D01*
X0069702Y0168357D01*
X0070267Y0169335D01*
X0070699Y0170378D01*
X0070991Y0171469D01*
X0071139Y0172589D01*
X0071071Y0172076D02*
X0093578Y0172076D01*
X0092979Y0171477D02*
X0070992Y0171477D01*
X0070833Y0170879D02*
X0092414Y0170879D01*
X0092166Y0170280D02*
X0070658Y0170280D01*
X0070410Y0169682D02*
X0091918Y0169682D01*
X0091670Y0169083D02*
X0070121Y0169083D01*
X0069776Y0168485D02*
X0091446Y0168485D01*
X0091446Y0167886D02*
X0069341Y0167886D01*
X0068841Y0167288D02*
X0091446Y0167288D01*
X0091446Y0166689D02*
X0068243Y0166689D01*
X0067471Y0166091D02*
X0091446Y0166091D01*
X0091637Y0165492D02*
X0066484Y0165492D01*
X0064983Y0164894D02*
X0091885Y0164894D01*
X0092133Y0164295D02*
X0002800Y0164295D01*
X0002800Y0163697D02*
X0092381Y0163697D01*
X0092900Y0163098D02*
X0002800Y0163098D01*
X0002800Y0162500D02*
X0093498Y0162500D01*
X0094097Y0161901D02*
X0002800Y0161901D01*
X0002800Y0161303D02*
X0095298Y0161303D01*
X0091196Y0160105D02*
X0002800Y0160105D01*
X0002800Y0159507D02*
X0090598Y0159507D01*
X0090651Y0159560D02*
X0090651Y0159560D01*
X0089999Y0158908D02*
X0002800Y0158908D01*
X0002800Y0158310D02*
X0050031Y0158310D01*
X0049432Y0157711D02*
X0002800Y0157711D01*
X0002800Y0157113D02*
X0049313Y0157113D01*
X0049313Y0156514D02*
X0002800Y0156514D01*
X0002800Y0155916D02*
X0049313Y0155916D01*
X0049313Y0155317D02*
X0002800Y0155317D01*
X0002800Y0154719D02*
X0049313Y0154719D01*
X0049313Y0154120D02*
X0002800Y0154120D01*
X0002800Y0153522D02*
X0049313Y0153522D01*
X0049313Y0152923D02*
X0002800Y0152923D01*
X0002800Y0152325D02*
X0049313Y0152325D01*
X0049313Y0151726D02*
X0002800Y0151726D01*
X0002800Y0151128D02*
X0049313Y0151128D01*
X0049313Y0150529D02*
X0002800Y0150529D01*
X0002800Y0149931D02*
X0049313Y0149931D01*
X0049313Y0149332D02*
X0002800Y0149332D01*
X0002800Y0148734D02*
X0049313Y0148734D01*
X0049313Y0148135D02*
X0002800Y0148135D01*
X0002800Y0147537D02*
X0049313Y0147537D01*
X0049313Y0146938D02*
X0002800Y0146938D01*
X0002800Y0146340D02*
X0049313Y0146340D01*
X0049313Y0145741D02*
X0002800Y0145741D01*
X0002800Y0145143D02*
X0049313Y0145143D01*
X0049313Y0144544D02*
X0002800Y0144544D01*
X0002800Y0143946D02*
X0049313Y0143946D01*
X0049313Y0143347D02*
X0002800Y0143347D01*
X0002800Y0142749D02*
X0049313Y0142749D01*
X0049313Y0142150D02*
X0002800Y0142150D01*
X0002800Y0141552D02*
X0049313Y0141552D01*
X0049313Y0140953D02*
X0002800Y0140953D01*
X0002800Y0140355D02*
X0049313Y0140355D01*
X0049313Y0139756D02*
X0002800Y0139756D01*
X0002800Y0139158D02*
X0049313Y0139158D01*
X0049313Y0138559D02*
X0002800Y0138559D01*
X0002800Y0137961D02*
X0037615Y0137961D01*
X0037783Y0138030D02*
X0035716Y0137174D01*
X0034133Y0135591D01*
X0033277Y0133524D01*
X0033277Y0131287D01*
X0034133Y0129220D01*
X0035716Y0127637D01*
X0037783Y0126781D01*
X0040020Y0126781D01*
X0042088Y0127637D01*
X0043670Y0129220D01*
X0044526Y0131287D01*
X0044526Y0133524D01*
X0043670Y0135591D01*
X0042088Y0137174D01*
X0040020Y0138030D01*
X0037783Y0138030D01*
X0036170Y0137362D02*
X0002800Y0137362D01*
X0002800Y0136764D02*
X0035306Y0136764D01*
X0034707Y0136165D02*
X0002800Y0136165D01*
X0002800Y0135567D02*
X0034123Y0135567D01*
X0033875Y0134968D02*
X0002800Y0134968D01*
X0002800Y0134370D02*
X0033627Y0134370D01*
X0033379Y0133771D02*
X0002800Y0133771D01*
X0002800Y0133172D02*
X0033277Y0133172D01*
X0033277Y0132574D02*
X0002800Y0132574D01*
X0002800Y0131975D02*
X0033277Y0131975D01*
X0033277Y0131377D02*
X0002800Y0131377D01*
X0002800Y0130778D02*
X0033488Y0130778D01*
X0033736Y0130180D02*
X0002800Y0130180D01*
X0002800Y0129581D02*
X0033984Y0129581D01*
X0034370Y0128983D02*
X0002800Y0128983D01*
X0002800Y0128384D02*
X0034969Y0128384D01*
X0035567Y0127786D02*
X0002800Y0127786D01*
X0002800Y0127187D02*
X0036802Y0127187D01*
X0041001Y0127187D02*
X0054935Y0127187D01*
X0055534Y0126589D02*
X0002800Y0126589D01*
X0002800Y0125990D02*
X0056132Y0125990D01*
X0056731Y0125392D02*
X0002800Y0125392D01*
X0002800Y0124793D02*
X0057329Y0124793D01*
X0057928Y0124195D02*
X0002800Y0124195D01*
X0002800Y0123596D02*
X0058526Y0123596D01*
X0059125Y0122998D02*
X0002800Y0122998D01*
X0002800Y0122399D02*
X0059723Y0122399D01*
X0060322Y0121801D02*
X0002800Y0121801D01*
X0002800Y0121202D02*
X0060920Y0121202D01*
X0061519Y0120604D02*
X0002800Y0120604D01*
X0002800Y0120005D02*
X0161617Y0120005D01*
X0161617Y0119407D02*
X0002800Y0119407D01*
X0002800Y0118808D02*
X0161617Y0118808D01*
X0161617Y0118210D02*
X0002800Y0118210D01*
X0002800Y0117611D02*
X0161617Y0117611D01*
X0161617Y0117013D02*
X0002800Y0117013D01*
X0002800Y0081701D02*
X0050052Y0081701D01*
X0049453Y0081102D02*
X0002800Y0081102D01*
X0002800Y0080503D02*
X0049213Y0080503D01*
X0049213Y0079905D02*
X0002800Y0079905D01*
X0002800Y0079306D02*
X0049213Y0079306D01*
X0049213Y0078708D02*
X0002800Y0078708D01*
X0002800Y0078109D02*
X0049213Y0078109D01*
X0049213Y0077511D02*
X0002800Y0077511D01*
X0002800Y0076912D02*
X0049213Y0076912D01*
X0049213Y0076314D02*
X0002800Y0076314D01*
X0002800Y0075715D02*
X0049213Y0075715D01*
X0049213Y0075117D02*
X0002800Y0075117D01*
X0002800Y0074518D02*
X0049213Y0074518D01*
X0049213Y0073920D02*
X0002800Y0073920D01*
X0002800Y0073321D02*
X0049213Y0073321D01*
X0049213Y0072723D02*
X0002800Y0072723D01*
X0002800Y0072124D02*
X0049213Y0072124D01*
X0049213Y0071526D02*
X0002800Y0071526D01*
X0002800Y0070927D02*
X0049213Y0070927D01*
X0049213Y0070329D02*
X0002800Y0070329D01*
X0002800Y0069730D02*
X0049213Y0069730D01*
X0049213Y0069132D02*
X0002800Y0069132D01*
X0002800Y0068533D02*
X0049213Y0068533D01*
X0049213Y0067935D02*
X0002800Y0067935D01*
X0002800Y0067336D02*
X0049213Y0067336D01*
X0049213Y0066738D02*
X0002800Y0066738D01*
X0002800Y0066139D02*
X0049213Y0066139D01*
X0049511Y0065541D02*
X0002800Y0065541D01*
X0002800Y0064942D02*
X0050110Y0064942D01*
X0050708Y0064344D02*
X0002800Y0064344D01*
X0002800Y0063745D02*
X0051307Y0063745D01*
X0051905Y0063147D02*
X0040214Y0063147D01*
X0040020Y0063227D02*
X0037783Y0063227D01*
X0035716Y0062370D01*
X0034133Y0060788D01*
X0033277Y0058721D01*
X0033277Y0056484D01*
X0034133Y0054416D01*
X0035716Y0052834D01*
X0037783Y0051978D01*
X0040020Y0051978D01*
X0042088Y0052834D01*
X0043670Y0054416D01*
X0044526Y0056484D01*
X0044526Y0058721D01*
X0043670Y0060788D01*
X0042088Y0062370D01*
X0040020Y0063227D01*
X0041659Y0062548D02*
X0052504Y0062548D01*
X0053102Y0061950D02*
X0042508Y0061950D01*
X0043107Y0061351D02*
X0053701Y0061351D01*
X0054299Y0060753D02*
X0043685Y0060753D01*
X0043932Y0060154D02*
X0054898Y0060154D01*
X0055496Y0059556D02*
X0044180Y0059556D01*
X0044428Y0058957D02*
X0056095Y0058957D01*
X0056693Y0058359D02*
X0044526Y0058359D01*
X0044526Y0057760D02*
X0057292Y0057760D01*
X0057890Y0057162D02*
X0044526Y0057162D01*
X0044526Y0056563D02*
X0058489Y0056563D01*
X0059087Y0055965D02*
X0044311Y0055965D01*
X0044063Y0055366D02*
X0059686Y0055366D01*
X0060284Y0054768D02*
X0043815Y0054768D01*
X0043422Y0054169D02*
X0060883Y0054169D01*
X0061481Y0053570D02*
X0042824Y0053570D01*
X0042225Y0052972D02*
X0062080Y0052972D01*
X0062678Y0052373D02*
X0040975Y0052373D01*
X0036828Y0052373D02*
X0002800Y0052373D01*
X0002800Y0051775D02*
X0063277Y0051775D01*
X0063875Y0051176D02*
X0002800Y0051176D01*
X0002800Y0050578D02*
X0064474Y0050578D01*
X0065072Y0049979D02*
X0002800Y0049979D01*
X0002800Y0049381D02*
X0065671Y0049381D01*
X0066270Y0048782D02*
X0002800Y0048782D01*
X0002800Y0048184D02*
X0066868Y0048184D01*
X0067467Y0047585D02*
X0002800Y0047585D01*
X0002800Y0046987D02*
X0068065Y0046987D01*
X0068664Y0046388D02*
X0002800Y0046388D01*
X0002800Y0045790D02*
X0069262Y0045790D01*
X0069861Y0045191D02*
X0002800Y0045191D01*
X0002800Y0044593D02*
X0070459Y0044593D01*
X0071058Y0043994D02*
X0002800Y0043994D01*
X0002800Y0043396D02*
X0071656Y0043396D01*
X0072255Y0042797D02*
X0002800Y0042797D01*
X0002800Y0042199D02*
X0072853Y0042199D01*
X0073452Y0041600D02*
X0002800Y0041600D01*
X0002800Y0041002D02*
X0074050Y0041002D01*
X0074649Y0040403D02*
X0002800Y0040403D01*
X0002800Y0039805D02*
X0075247Y0039805D01*
X0075846Y0039206D02*
X0002800Y0039206D01*
X0002800Y0038608D02*
X0076444Y0038608D01*
X0077043Y0038009D02*
X0002800Y0038009D01*
X0002849Y0024243D02*
X0012347Y0024243D01*
X0012406Y0023645D02*
X0002883Y0023645D01*
X0002917Y0023046D02*
X0012484Y0023046D01*
X0012603Y0022448D02*
X0002980Y0022448D01*
X0003117Y0021849D02*
X0012739Y0021849D01*
X0012920Y0021251D02*
X0003253Y0021251D01*
X0003390Y0020652D02*
X0013119Y0020652D01*
X0013367Y0020054D02*
X0003527Y0020054D01*
X0003663Y0019455D02*
X0013637Y0019455D01*
X0013957Y0018857D02*
X0003800Y0018857D01*
X0003937Y0018258D02*
X0014314Y0018258D01*
X0014714Y0017660D02*
X0004096Y0017660D01*
X0004384Y0017061D02*
X0015179Y0017061D01*
X0015679Y0016463D02*
X0004672Y0016463D01*
X0004961Y0015864D02*
X0016278Y0015864D01*
X0016955Y0015266D02*
X0005249Y0015266D01*
X0005537Y0014667D02*
X0017729Y0014667D01*
X0018648Y0014069D02*
X0005825Y0014069D01*
X0006113Y0013470D02*
X0019804Y0013470D01*
X0028706Y0037411D02*
X0077641Y0037411D01*
X0078240Y0036812D02*
X0030348Y0036812D01*
X0031524Y0036214D02*
X0078838Y0036214D01*
X0079437Y0035615D02*
X0032457Y0035615D01*
X0033242Y0035017D02*
X0080035Y0035017D01*
X0080634Y0034418D02*
X0033928Y0034418D01*
X0034526Y0033820D02*
X0081232Y0033820D01*
X0081831Y0033221D02*
X0035034Y0033221D01*
X0035505Y0032623D02*
X0082429Y0032623D01*
X0083028Y0032024D02*
X0035905Y0032024D01*
X0036266Y0031426D02*
X0083626Y0031426D01*
X0084225Y0030827D02*
X0036586Y0030827D01*
X0036861Y0030229D02*
X0084823Y0030229D01*
X0085422Y0029630D02*
X0037109Y0029630D01*
X0037312Y0029032D02*
X0086020Y0029032D01*
X0086619Y0028433D02*
X0037494Y0028433D01*
X0037633Y0027834D02*
X0087217Y0027834D01*
X0062824Y0090080D02*
X0062224Y0090080D01*
X0062224Y0090678D02*
X0062824Y0090678D01*
X0062824Y0091277D02*
X0062224Y0091277D01*
X0062224Y0091875D02*
X0062824Y0091875D01*
X0062824Y0092474D02*
X0062224Y0092474D01*
X0062224Y0093072D02*
X0062824Y0093072D01*
X0062824Y0093671D02*
X0062224Y0093671D01*
X0062224Y0094269D02*
X0062824Y0094269D01*
X0062824Y0094868D02*
X0062224Y0094868D01*
X0062224Y0095466D02*
X0062824Y0095466D01*
X0062824Y0096065D02*
X0062224Y0096065D01*
X0062224Y0096663D02*
X0062824Y0096663D01*
X0062824Y0097262D02*
X0062224Y0097262D01*
X0062224Y0097860D02*
X0062824Y0097860D01*
X0062824Y0099656D02*
X0062224Y0099656D01*
X0062224Y0100254D02*
X0062824Y0100254D01*
X0062824Y0100853D02*
X0062224Y0100853D01*
X0062224Y0101451D02*
X0062824Y0101451D01*
X0062824Y0102050D02*
X0062224Y0102050D01*
X0062224Y0102648D02*
X0062824Y0102648D01*
X0062824Y0103247D02*
X0062224Y0103247D01*
X0062224Y0103845D02*
X0062824Y0103845D01*
X0062824Y0104444D02*
X0062224Y0104444D01*
X0062224Y0105042D02*
X0062824Y0105042D01*
X0062824Y0105641D02*
X0062224Y0105641D01*
X0062224Y0106239D02*
X0062824Y0106239D01*
X0062824Y0106838D02*
X0062224Y0106838D01*
X0064056Y0106838D02*
X0161617Y0106838D01*
X0161617Y0106239D02*
X0065990Y0106239D01*
X0067126Y0105641D02*
X0161617Y0105641D01*
X0161617Y0105042D02*
X0067954Y0105042D01*
X0068613Y0104444D02*
X0161617Y0104444D01*
X0161617Y0103845D02*
X0069166Y0103845D01*
X0054337Y0127786D02*
X0042236Y0127786D01*
X0042835Y0128384D02*
X0053738Y0128384D01*
X0053140Y0128983D02*
X0043433Y0128983D01*
X0043820Y0129581D02*
X0052541Y0129581D01*
X0051943Y0130180D02*
X0044068Y0130180D01*
X0044315Y0130778D02*
X0051344Y0130778D01*
X0050745Y0131377D02*
X0044526Y0131377D01*
X0044526Y0131975D02*
X0050147Y0131975D01*
X0050133Y0131990D02*
X0050133Y0131990D01*
X0049548Y0132574D02*
X0044526Y0132574D01*
X0044526Y0133172D02*
X0049313Y0133172D01*
X0049313Y0133771D02*
X0044424Y0133771D01*
X0044176Y0134370D02*
X0049313Y0134370D01*
X0049313Y0134968D02*
X0043928Y0134968D01*
X0043680Y0135567D02*
X0049313Y0135567D01*
X0049313Y0136165D02*
X0043096Y0136165D01*
X0042498Y0136764D02*
X0049313Y0136764D01*
X0049313Y0137362D02*
X0041633Y0137362D01*
X0040188Y0137961D02*
X0049313Y0137961D01*
X0060065Y0164894D02*
X0002800Y0164894D01*
X0002800Y0165492D02*
X0058564Y0165492D01*
X0057577Y0166091D02*
X0002800Y0166091D01*
X0002800Y0166689D02*
X0056805Y0166689D01*
X0056206Y0167288D02*
X0002800Y0167288D01*
X0002800Y0167886D02*
X0055707Y0167886D01*
X0055271Y0168485D02*
X0002800Y0168485D01*
X0002800Y0169083D02*
X0054926Y0169083D01*
X0054637Y0169682D02*
X0002800Y0169682D01*
X0002800Y0170280D02*
X0054389Y0170280D01*
X0054214Y0170879D02*
X0002800Y0170879D01*
X0002800Y0171477D02*
X0054055Y0171477D01*
X0053976Y0172076D02*
X0002800Y0172076D01*
X0002800Y0172674D02*
X0053909Y0172674D01*
X0062224Y0172674D02*
X0062824Y0172674D01*
X0062824Y0172076D02*
X0062224Y0172076D01*
X0062224Y0171477D02*
X0062824Y0171477D01*
X0062824Y0170879D02*
X0062224Y0170879D01*
X0062224Y0170280D02*
X0062824Y0170280D01*
X0062824Y0169682D02*
X0062224Y0169682D01*
X0062224Y0169083D02*
X0062824Y0169083D01*
X0062824Y0168485D02*
X0062224Y0168485D01*
X0062224Y0167886D02*
X0062824Y0167886D01*
X0062824Y0167288D02*
X0062224Y0167288D01*
X0062224Y0166689D02*
X0062824Y0166689D01*
X0062824Y0166091D02*
X0062224Y0166091D01*
X0062224Y0165492D02*
X0062824Y0165492D01*
X0062824Y0164894D02*
X0062224Y0164894D01*
X0042088Y0202441D02*
X0043670Y0204023D01*
X0044526Y0206090D01*
X0044526Y0208327D01*
X0043670Y0210395D01*
X0042088Y0211977D01*
X0040020Y0212833D01*
X0037783Y0212833D01*
X0035716Y0211977D01*
X0034133Y0210395D01*
X0033277Y0208327D01*
X0033277Y0206090D01*
X0034133Y0204023D01*
X0035716Y0202441D01*
X0037783Y0201584D01*
X0040020Y0201584D01*
X0042088Y0202441D01*
X0042247Y0202600D02*
X0161617Y0202600D01*
X0161617Y0203198D02*
X0042845Y0203198D01*
X0043444Y0203797D02*
X0161617Y0203797D01*
X0161617Y0204395D02*
X0043824Y0204395D01*
X0044072Y0204994D02*
X0161617Y0204994D01*
X0161617Y0205592D02*
X0044320Y0205592D01*
X0044526Y0206191D02*
X0161617Y0206191D01*
X0161617Y0206789D02*
X0098674Y0206789D01*
X0098578Y0206693D02*
X0051334Y0206693D01*
X0050091Y0206693D01*
X0049213Y0207572D01*
X0049213Y0232436D01*
X0050091Y0233315D01*
X0065839Y0233315D01*
X0086614Y0254090D01*
X0087493Y0254968D01*
X0104484Y0254968D01*
X0110389Y0249063D01*
X0111268Y0248184D01*
X0111268Y0219383D01*
X0099457Y0207572D01*
X0098578Y0206693D01*
X0099273Y0207388D02*
X0161617Y0207388D01*
X0161617Y0207986D02*
X0099872Y0207986D01*
X0100470Y0208585D02*
X0161617Y0208585D01*
X0161617Y0209183D02*
X0101069Y0209183D01*
X0101667Y0209782D02*
X0161617Y0209782D01*
X0161617Y0210380D02*
X0102266Y0210380D01*
X0102864Y0210979D02*
X0161617Y0210979D01*
X0161617Y0211577D02*
X0103463Y0211577D01*
X0104061Y0212176D02*
X0161617Y0212176D01*
X0161617Y0212774D02*
X0104660Y0212774D01*
X0105258Y0213373D02*
X0161617Y0213373D01*
X0161617Y0213972D02*
X0105857Y0213972D01*
X0106455Y0214570D02*
X0161617Y0214570D01*
X0161617Y0215169D02*
X0107054Y0215169D01*
X0107652Y0215767D02*
X0161617Y0215767D01*
X0161617Y0216366D02*
X0108251Y0216366D01*
X0108849Y0216964D02*
X0161617Y0216964D01*
X0161617Y0217563D02*
X0109448Y0217563D01*
X0110046Y0218161D02*
X0161617Y0218161D01*
X0161617Y0218760D02*
X0110645Y0218760D01*
X0111243Y0219358D02*
X0161617Y0219358D01*
X0161617Y0219957D02*
X0111268Y0219957D01*
X0111268Y0220555D02*
X0161617Y0220555D01*
X0161617Y0221154D02*
X0111268Y0221154D01*
X0111268Y0221752D02*
X0161617Y0221752D01*
X0161617Y0222351D02*
X0111268Y0222351D01*
X0111268Y0222949D02*
X0161617Y0222949D01*
X0161617Y0223548D02*
X0111268Y0223548D01*
X0111268Y0224146D02*
X0161617Y0224146D01*
X0161617Y0224745D02*
X0111268Y0224745D01*
X0111268Y0225343D02*
X0161617Y0225343D01*
X0161617Y0225942D02*
X0111268Y0225942D01*
X0111268Y0226540D02*
X0161617Y0226540D01*
X0161617Y0227139D02*
X0111268Y0227139D01*
X0111268Y0227737D02*
X0161617Y0227737D01*
X0161617Y0228336D02*
X0111268Y0228336D01*
X0111268Y0228934D02*
X0161617Y0228934D01*
X0161617Y0229533D02*
X0111268Y0229533D01*
X0111268Y0230131D02*
X0161617Y0230131D01*
X0161617Y0230730D02*
X0111268Y0230730D01*
X0111268Y0231328D02*
X0161617Y0231328D01*
X0161617Y0231927D02*
X0111268Y0231927D01*
X0111268Y0232525D02*
X0161617Y0232525D01*
X0161617Y0233124D02*
X0111268Y0233124D01*
X0111268Y0233722D02*
X0161617Y0233722D01*
X0161617Y0234321D02*
X0111268Y0234321D01*
X0111268Y0234919D02*
X0161617Y0234919D01*
X0161617Y0235518D02*
X0111268Y0235518D01*
X0111268Y0236116D02*
X0161617Y0236116D01*
X0161617Y0236715D02*
X0111268Y0236715D01*
X0111268Y0237313D02*
X0161617Y0237313D01*
X0161617Y0237912D02*
X0111268Y0237912D01*
X0111268Y0238510D02*
X0161617Y0238510D01*
X0161617Y0239109D02*
X0111268Y0239109D01*
X0111268Y0239708D02*
X0161617Y0239708D01*
X0161617Y0240306D02*
X0111268Y0240306D01*
X0111268Y0240905D02*
X0161617Y0240905D01*
X0161617Y0241503D02*
X0111268Y0241503D01*
X0111268Y0242102D02*
X0161617Y0242102D01*
X0161617Y0242700D02*
X0111268Y0242700D01*
X0111268Y0243299D02*
X0161617Y0243299D01*
X0161617Y0243897D02*
X0111268Y0243897D01*
X0111268Y0244496D02*
X0161617Y0244496D01*
X0161617Y0245094D02*
X0111268Y0245094D01*
X0111268Y0245693D02*
X0161617Y0245693D01*
X0161617Y0246291D02*
X0111268Y0246291D01*
X0111268Y0246890D02*
X0161617Y0246890D01*
X0161617Y0247488D02*
X0111268Y0247488D01*
X0111268Y0248087D02*
X0161617Y0248087D01*
X0161617Y0248685D02*
X0110767Y0248685D01*
X0110168Y0249284D02*
X0161617Y0249284D01*
X0161617Y0249882D02*
X0109570Y0249882D01*
X0108971Y0250481D02*
X0161617Y0250481D01*
X0161617Y0251079D02*
X0108373Y0251079D01*
X0107774Y0251678D02*
X0161617Y0251678D01*
X0161617Y0252276D02*
X0107176Y0252276D01*
X0106577Y0252875D02*
X0161617Y0252875D01*
X0161617Y0253473D02*
X0105979Y0253473D01*
X0105380Y0254072D02*
X0161617Y0254072D01*
X0161617Y0254670D02*
X0104782Y0254670D01*
X0102492Y0257064D02*
X0161617Y0257064D01*
X0161617Y0256466D02*
X0101893Y0256466D01*
X0101644Y0256217D02*
X0103476Y0258048D01*
X0104467Y0260441D01*
X0104467Y0263031D01*
X0103476Y0265424D01*
X0101644Y0267255D01*
X0099252Y0268246D01*
X0096662Y0268246D01*
X0094269Y0267255D01*
X0092438Y0265424D01*
X0091446Y0263031D01*
X0091446Y0260441D01*
X0092438Y0258048D01*
X0094269Y0256217D01*
X0096662Y0255226D01*
X0099252Y0255226D01*
X0101644Y0256217D01*
X0100800Y0255867D02*
X0161617Y0255867D01*
X0161617Y0255269D02*
X0099355Y0255269D01*
X0096558Y0255269D02*
X0067089Y0255269D01*
X0067320Y0255135D02*
X0066342Y0255700D01*
X0065299Y0256132D01*
X0064208Y0256424D01*
X0063088Y0256572D01*
X0062824Y0256572D01*
X0062824Y0248257D01*
X0071139Y0248257D01*
X0071139Y0248521D01*
X0070991Y0249641D01*
X0070699Y0250732D01*
X0070267Y0251775D01*
X0069702Y0252753D01*
X0069015Y0253649D01*
X0068216Y0254448D01*
X0067320Y0255135D01*
X0067926Y0254670D02*
X0087195Y0254670D01*
X0086596Y0254072D02*
X0068592Y0254072D01*
X0069150Y0253473D02*
X0085998Y0253473D01*
X0085399Y0252875D02*
X0069609Y0252875D01*
X0069977Y0252276D02*
X0084801Y0252276D01*
X0084202Y0251678D02*
X0070307Y0251678D01*
X0070555Y0251079D02*
X0083604Y0251079D01*
X0083005Y0250481D02*
X0070766Y0250481D01*
X0070927Y0249882D02*
X0082407Y0249882D01*
X0081808Y0249284D02*
X0071038Y0249284D01*
X0071117Y0248685D02*
X0081210Y0248685D01*
X0080611Y0248087D02*
X0062824Y0248087D01*
X0062824Y0248257D02*
X0062824Y0247657D01*
X0071139Y0247657D01*
X0071139Y0247392D01*
X0070991Y0246272D01*
X0070699Y0245182D01*
X0070267Y0244138D01*
X0069702Y0243160D01*
X0069015Y0242264D01*
X0068216Y0241466D01*
X0067320Y0240778D01*
X0066342Y0240214D01*
X0065299Y0239781D01*
X0064208Y0239489D01*
X0063088Y0239342D01*
X0062824Y0239342D01*
X0062824Y0247657D01*
X0062224Y0247657D01*
X0053909Y0247657D01*
X0053909Y0247392D01*
X0054056Y0246272D01*
X0054348Y0245182D01*
X0054781Y0244138D01*
X0055345Y0243160D01*
X0056033Y0242264D01*
X0056831Y0241466D01*
X0057727Y0240778D01*
X0058705Y0240214D01*
X0059748Y0239781D01*
X0060839Y0239489D01*
X0061959Y0239342D01*
X0062224Y0239342D01*
X0062224Y0247657D01*
X0062224Y0248257D01*
X0062224Y0256572D01*
X0061959Y0256572D01*
X0060839Y0256424D01*
X0059748Y0256132D01*
X0058705Y0255700D01*
X0057727Y0255135D01*
X0056831Y0254448D01*
X0056033Y0253649D01*
X0055345Y0252753D01*
X0054781Y0251775D01*
X0054348Y0250732D01*
X0054056Y0249641D01*
X0053909Y0248521D01*
X0053909Y0248257D01*
X0062224Y0248257D01*
X0062824Y0248257D01*
X0062824Y0248685D02*
X0062224Y0248685D01*
X0062224Y0248087D02*
X0002800Y0248087D01*
X0002800Y0248685D02*
X0053930Y0248685D01*
X0054009Y0249284D02*
X0002800Y0249284D01*
X0002800Y0249882D02*
X0054121Y0249882D01*
X0054281Y0250481D02*
X0002800Y0250481D01*
X0002800Y0251079D02*
X0054492Y0251079D01*
X0054740Y0251678D02*
X0002800Y0251678D01*
X0002800Y0252276D02*
X0055070Y0252276D01*
X0055438Y0252875D02*
X0002800Y0252875D01*
X0002800Y0253473D02*
X0055898Y0253473D01*
X0056455Y0254072D02*
X0002800Y0254072D01*
X0002800Y0254670D02*
X0057121Y0254670D01*
X0057959Y0255269D02*
X0041312Y0255269D01*
X0042088Y0255590D02*
X0040020Y0254734D01*
X0037783Y0254734D01*
X0035716Y0255590D01*
X0034133Y0257172D01*
X0033277Y0259239D01*
X0033277Y0261477D01*
X0034133Y0263544D01*
X0035716Y0265126D01*
X0037783Y0265983D01*
X0040020Y0265983D01*
X0042088Y0265126D01*
X0043670Y0263544D01*
X0044526Y0261477D01*
X0044526Y0259239D01*
X0043670Y0257172D01*
X0042088Y0255590D01*
X0042365Y0255867D02*
X0059110Y0255867D01*
X0061155Y0256466D02*
X0042963Y0256466D01*
X0043562Y0257064D02*
X0093422Y0257064D01*
X0094020Y0256466D02*
X0063892Y0256466D01*
X0062824Y0256466D02*
X0062224Y0256466D01*
X0062224Y0255867D02*
X0062824Y0255867D01*
X0062824Y0255269D02*
X0062224Y0255269D01*
X0062224Y0254670D02*
X0062824Y0254670D01*
X0062824Y0254072D02*
X0062224Y0254072D01*
X0062224Y0253473D02*
X0062824Y0253473D01*
X0062824Y0252875D02*
X0062224Y0252875D01*
X0062224Y0252276D02*
X0062824Y0252276D01*
X0062824Y0251678D02*
X0062224Y0251678D01*
X0062224Y0251079D02*
X0062824Y0251079D01*
X0062824Y0250481D02*
X0062224Y0250481D01*
X0062224Y0249882D02*
X0062824Y0249882D01*
X0062824Y0249284D02*
X0062224Y0249284D01*
X0062224Y0247488D02*
X0062824Y0247488D01*
X0062824Y0246890D02*
X0062224Y0246890D01*
X0062224Y0246291D02*
X0062824Y0246291D01*
X0062824Y0245693D02*
X0062224Y0245693D01*
X0062224Y0245094D02*
X0062824Y0245094D01*
X0062824Y0244496D02*
X0062224Y0244496D01*
X0062224Y0243897D02*
X0062824Y0243897D01*
X0062824Y0243299D02*
X0062224Y0243299D01*
X0062224Y0242700D02*
X0062824Y0242700D01*
X0062824Y0242102D02*
X0062224Y0242102D01*
X0062224Y0241503D02*
X0062824Y0241503D01*
X0062824Y0240905D02*
X0062224Y0240905D01*
X0062224Y0240306D02*
X0062824Y0240306D01*
X0062824Y0239708D02*
X0062224Y0239708D01*
X0060024Y0239708D02*
X0002800Y0239708D01*
X0002800Y0240306D02*
X0058545Y0240306D01*
X0057563Y0240905D02*
X0002800Y0240905D01*
X0002800Y0241503D02*
X0056794Y0241503D01*
X0056195Y0242102D02*
X0002800Y0242102D01*
X0002800Y0242700D02*
X0055698Y0242700D01*
X0055265Y0243299D02*
X0002800Y0243299D01*
X0002800Y0243897D02*
X0054920Y0243897D01*
X0054632Y0244496D02*
X0002800Y0244496D01*
X0002800Y0245094D02*
X0054385Y0245094D01*
X0054211Y0245693D02*
X0002800Y0245693D01*
X0002800Y0246291D02*
X0054054Y0246291D01*
X0053975Y0246890D02*
X0002800Y0246890D01*
X0002800Y0247488D02*
X0053909Y0247488D01*
X0049900Y0233124D02*
X0002800Y0233124D01*
X0002800Y0233722D02*
X0066247Y0233722D01*
X0066845Y0234321D02*
X0002800Y0234321D01*
X0002800Y0234919D02*
X0067444Y0234919D01*
X0068042Y0235518D02*
X0002800Y0235518D01*
X0002800Y0236116D02*
X0068641Y0236116D01*
X0069239Y0236715D02*
X0002800Y0236715D01*
X0002800Y0237313D02*
X0069838Y0237313D01*
X0070436Y0237912D02*
X0002800Y0237912D01*
X0002800Y0238510D02*
X0071035Y0238510D01*
X0071633Y0239109D02*
X0002800Y0239109D01*
X0002800Y0232525D02*
X0049302Y0232525D01*
X0049213Y0231927D02*
X0002800Y0231927D01*
X0002800Y0231328D02*
X0049213Y0231328D01*
X0049213Y0230730D02*
X0002800Y0230730D01*
X0002800Y0230131D02*
X0049213Y0230131D01*
X0049213Y0229533D02*
X0002800Y0229533D01*
X0002800Y0228934D02*
X0049213Y0228934D01*
X0049213Y0228336D02*
X0002800Y0228336D01*
X0002800Y0227737D02*
X0049213Y0227737D01*
X0049213Y0227139D02*
X0002800Y0227139D01*
X0002800Y0226540D02*
X0049213Y0226540D01*
X0049213Y0225942D02*
X0002800Y0225942D01*
X0002800Y0225343D02*
X0049213Y0225343D01*
X0049213Y0224745D02*
X0002800Y0224745D01*
X0002800Y0224146D02*
X0049213Y0224146D01*
X0049213Y0223548D02*
X0002800Y0223548D01*
X0002800Y0222949D02*
X0049213Y0222949D01*
X0049213Y0222351D02*
X0002800Y0222351D01*
X0002800Y0221752D02*
X0049213Y0221752D01*
X0049213Y0221154D02*
X0002800Y0221154D01*
X0002800Y0220555D02*
X0049213Y0220555D01*
X0049213Y0219957D02*
X0002800Y0219957D01*
X0002800Y0219358D02*
X0049213Y0219358D01*
X0049213Y0218760D02*
X0002800Y0218760D01*
X0002800Y0218161D02*
X0049213Y0218161D01*
X0049213Y0217563D02*
X0002800Y0217563D01*
X0002800Y0216964D02*
X0049213Y0216964D01*
X0049213Y0216366D02*
X0002800Y0216366D01*
X0002800Y0215767D02*
X0049213Y0215767D01*
X0049213Y0215169D02*
X0002800Y0215169D01*
X0002800Y0214570D02*
X0049213Y0214570D01*
X0049213Y0213972D02*
X0002800Y0213972D01*
X0002800Y0213373D02*
X0049213Y0213373D01*
X0049213Y0212774D02*
X0040162Y0212774D01*
X0041607Y0212176D02*
X0049213Y0212176D01*
X0049213Y0211577D02*
X0042487Y0211577D01*
X0043085Y0210979D02*
X0049213Y0210979D01*
X0049213Y0210380D02*
X0043676Y0210380D01*
X0043923Y0209782D02*
X0049213Y0209782D01*
X0049213Y0209183D02*
X0044171Y0209183D01*
X0044419Y0208585D02*
X0049213Y0208585D01*
X0049213Y0207986D02*
X0044526Y0207986D01*
X0044526Y0207388D02*
X0049396Y0207388D01*
X0049995Y0206789D02*
X0044526Y0206789D01*
X0041027Y0202001D02*
X0161617Y0202001D01*
X0161617Y0201403D02*
X0002800Y0201403D01*
X0002800Y0202001D02*
X0036776Y0202001D01*
X0035556Y0202600D02*
X0002800Y0202600D01*
X0002800Y0203198D02*
X0034958Y0203198D01*
X0034359Y0203797D02*
X0002800Y0203797D01*
X0002800Y0204395D02*
X0033979Y0204395D01*
X0033731Y0204994D02*
X0002800Y0204994D01*
X0002800Y0205592D02*
X0033483Y0205592D01*
X0033277Y0206191D02*
X0002800Y0206191D01*
X0002800Y0206789D02*
X0033277Y0206789D01*
X0033277Y0207388D02*
X0002800Y0207388D01*
X0002800Y0207986D02*
X0033277Y0207986D01*
X0033384Y0208585D02*
X0002800Y0208585D01*
X0002800Y0209183D02*
X0033632Y0209183D01*
X0033880Y0209782D02*
X0002800Y0209782D01*
X0002800Y0210380D02*
X0034128Y0210380D01*
X0034718Y0210979D02*
X0002800Y0210979D01*
X0002800Y0211577D02*
X0035316Y0211577D01*
X0036196Y0212176D02*
X0002800Y0212176D01*
X0002800Y0212774D02*
X0037641Y0212774D01*
X0036455Y0190630D02*
X0002800Y0190630D01*
X0002800Y0191228D02*
X0091874Y0191228D01*
X0092122Y0191827D02*
X0002800Y0191827D01*
X0002800Y0192425D02*
X0092370Y0192425D01*
X0092872Y0193024D02*
X0002800Y0193024D01*
X0002800Y0193622D02*
X0093470Y0193622D01*
X0094069Y0194221D02*
X0002800Y0194221D01*
X0002800Y0194819D02*
X0095231Y0194819D01*
X0100682Y0194819D02*
X0161617Y0194819D01*
X0161617Y0194221D02*
X0101844Y0194221D01*
X0102443Y0193622D02*
X0161617Y0193622D01*
X0161617Y0193024D02*
X0103041Y0193024D01*
X0103544Y0192425D02*
X0161617Y0192425D01*
X0161617Y0191827D02*
X0103792Y0191827D01*
X0104040Y0191228D02*
X0161617Y0191228D01*
X0161617Y0190630D02*
X0104288Y0190630D01*
X0104467Y0190031D02*
X0161617Y0190031D01*
X0161617Y0189433D02*
X0104467Y0189433D01*
X0104467Y0188834D02*
X0161617Y0188834D01*
X0161617Y0188236D02*
X0104467Y0188236D01*
X0104467Y0187637D02*
X0161617Y0187637D01*
X0161617Y0187039D02*
X0104232Y0187039D01*
X0103984Y0186440D02*
X0161617Y0186440D01*
X0161617Y0185841D02*
X0103736Y0185841D01*
X0103488Y0185243D02*
X0161617Y0185243D01*
X0161617Y0184644D02*
X0102906Y0184644D01*
X0102308Y0184046D02*
X0161617Y0184046D01*
X0161617Y0183447D02*
X0101709Y0183447D01*
X0100356Y0182849D02*
X0161617Y0182849D01*
X0161617Y0195418D02*
X0002800Y0195418D01*
X0002800Y0196016D02*
X0161617Y0196016D01*
X0161617Y0196615D02*
X0002800Y0196615D01*
X0002800Y0197213D02*
X0161617Y0197213D01*
X0161617Y0197812D02*
X0002800Y0197812D01*
X0002800Y0198410D02*
X0161617Y0198410D01*
X0161617Y0199009D02*
X0002800Y0199009D01*
X0002800Y0199607D02*
X0161617Y0199607D01*
X0161617Y0200206D02*
X0002800Y0200206D01*
X0002800Y0200804D02*
X0161617Y0200804D01*
X0161617Y0257663D02*
X0103090Y0257663D01*
X0103564Y0258261D02*
X0161617Y0258261D01*
X0161617Y0258860D02*
X0103812Y0258860D01*
X0104060Y0259458D02*
X0161617Y0259458D01*
X0161617Y0260057D02*
X0104308Y0260057D01*
X0104467Y0260655D02*
X0161617Y0260655D01*
X0161617Y0261254D02*
X0104467Y0261254D01*
X0104467Y0261852D02*
X0161617Y0261852D01*
X0161617Y0262451D02*
X0104467Y0262451D01*
X0104459Y0263049D02*
X0161617Y0263049D01*
X0161617Y0263648D02*
X0104211Y0263648D01*
X0103964Y0264246D02*
X0161617Y0264246D01*
X0161617Y0264845D02*
X0103716Y0264845D01*
X0103456Y0265443D02*
X0161617Y0265443D01*
X0161617Y0266042D02*
X0102858Y0266042D01*
X0102259Y0266641D02*
X0161617Y0266641D01*
X0161617Y0267239D02*
X0101661Y0267239D01*
X0100239Y0267838D02*
X0161617Y0267838D01*
X0161617Y0268436D02*
X0002800Y0268436D01*
X0002800Y0267838D02*
X0095675Y0267838D01*
X0094253Y0267239D02*
X0002800Y0267239D01*
X0002800Y0266641D02*
X0093654Y0266641D01*
X0093056Y0266042D02*
X0002800Y0266042D01*
X0002800Y0265443D02*
X0036481Y0265443D01*
X0035434Y0264845D02*
X0002800Y0264845D01*
X0002800Y0264246D02*
X0034836Y0264246D01*
X0034237Y0263648D02*
X0002800Y0263648D01*
X0002800Y0263049D02*
X0033928Y0263049D01*
X0033681Y0262451D02*
X0002800Y0262451D01*
X0002800Y0261852D02*
X0033433Y0261852D01*
X0033277Y0261254D02*
X0002800Y0261254D01*
X0002800Y0260655D02*
X0033277Y0260655D01*
X0033277Y0260057D02*
X0002800Y0260057D01*
X0002800Y0259458D02*
X0033277Y0259458D01*
X0033434Y0258860D02*
X0002800Y0258860D01*
X0002800Y0258261D02*
X0033682Y0258261D01*
X0033930Y0257663D02*
X0002800Y0257663D01*
X0002800Y0257064D02*
X0034241Y0257064D01*
X0034840Y0256466D02*
X0002800Y0256466D01*
X0002800Y0255867D02*
X0035438Y0255867D01*
X0036491Y0255269D02*
X0002800Y0255269D01*
X0002800Y0269035D02*
X0161617Y0269035D01*
X0161617Y0269633D02*
X0002800Y0269633D01*
X0002800Y0270232D02*
X0161617Y0270232D01*
X0161617Y0270830D02*
X0002800Y0270830D01*
X0002800Y0271429D02*
X0161617Y0271429D01*
X0161617Y0272027D02*
X0002800Y0272027D01*
X0002800Y0272626D02*
X0161617Y0272626D01*
X0161617Y0273224D02*
X0002800Y0273224D01*
X0002800Y0273823D02*
X0161617Y0273823D01*
X0161617Y0274421D02*
X0002800Y0274421D01*
X0002800Y0275020D02*
X0161617Y0275020D01*
X0161617Y0275618D02*
X0002800Y0275618D01*
X0002800Y0276217D02*
X0161617Y0276217D01*
X0161617Y0276815D02*
X0002800Y0276815D01*
X0002800Y0277414D02*
X0095372Y0277414D01*
X0094269Y0277871D02*
X0096662Y0276880D01*
X0099252Y0276880D01*
X0101644Y0277871D01*
X0103476Y0279702D01*
X0104467Y0282095D01*
X0104467Y0284685D01*
X0103476Y0287078D01*
X0101644Y0288909D01*
X0099252Y0289900D01*
X0096662Y0289900D01*
X0094269Y0288909D01*
X0092438Y0287078D01*
X0091446Y0284685D01*
X0091446Y0282095D01*
X0092438Y0279702D01*
X0094269Y0277871D01*
X0094127Y0278012D02*
X0002800Y0278012D01*
X0002800Y0278611D02*
X0093529Y0278611D01*
X0092930Y0279209D02*
X0002800Y0279209D01*
X0002800Y0279808D02*
X0092394Y0279808D01*
X0092146Y0280406D02*
X0028231Y0280406D01*
X0028236Y0280407D02*
X0029439Y0280772D01*
X0030601Y0281254D01*
X0031710Y0281846D01*
X0032756Y0282545D01*
X0033728Y0283343D01*
X0034618Y0284232D01*
X0035415Y0285204D01*
X0036114Y0286250D01*
X0036707Y0287359D01*
X0037188Y0288521D01*
X0037553Y0289725D01*
X0037799Y0290958D01*
X0037922Y0292210D01*
X0037922Y0292539D01*
X0025422Y0292539D01*
X0025422Y0293139D01*
X0024822Y0293139D01*
X0024822Y0305639D01*
X0024493Y0305639D01*
X0023242Y0305515D01*
X0022008Y0305270D01*
X0020805Y0304905D01*
X0019643Y0304424D01*
X0018534Y0303831D01*
X0017488Y0303132D01*
X0016516Y0302334D01*
X0015626Y0301445D01*
X0014829Y0300473D01*
X0014130Y0299427D01*
X0013537Y0298318D01*
X0013056Y0297156D01*
X0012691Y0295952D01*
X0012445Y0294719D01*
X0012322Y0293467D01*
X0012322Y0293139D01*
X0024822Y0293139D01*
X0024822Y0292539D01*
X0012322Y0292539D01*
X0012322Y0292210D01*
X0012445Y0290958D01*
X0012691Y0289725D01*
X0013056Y0288521D01*
X0013537Y0287359D01*
X0014130Y0286250D01*
X0014829Y0285204D01*
X0015626Y0284232D01*
X0016516Y0283343D01*
X0017488Y0282545D01*
X0018534Y0281846D01*
X0019643Y0281254D01*
X0020805Y0280772D01*
X0022008Y0280407D01*
X0023242Y0280162D01*
X0024493Y0280039D01*
X0024822Y0280039D01*
X0024822Y0292539D01*
X0025422Y0292539D01*
X0025422Y0280039D01*
X0025751Y0280039D01*
X0027002Y0280162D01*
X0028236Y0280407D01*
X0025422Y0280406D02*
X0024822Y0280406D01*
X0024822Y0281005D02*
X0025422Y0281005D01*
X0025422Y0281603D02*
X0024822Y0281603D01*
X0024822Y0282202D02*
X0025422Y0282202D01*
X0025422Y0282800D02*
X0024822Y0282800D01*
X0024822Y0283399D02*
X0025422Y0283399D01*
X0025422Y0283997D02*
X0024822Y0283997D01*
X0024822Y0284596D02*
X0025422Y0284596D01*
X0025422Y0285194D02*
X0024822Y0285194D01*
X0024822Y0285793D02*
X0025422Y0285793D01*
X0025422Y0286391D02*
X0024822Y0286391D01*
X0024822Y0286990D02*
X0025422Y0286990D01*
X0025422Y0287588D02*
X0024822Y0287588D01*
X0024822Y0288187D02*
X0025422Y0288187D01*
X0025422Y0288785D02*
X0024822Y0288785D01*
X0024822Y0289384D02*
X0025422Y0289384D01*
X0025422Y0289982D02*
X0024822Y0289982D01*
X0024822Y0290581D02*
X0025422Y0290581D01*
X0025422Y0291179D02*
X0024822Y0291179D01*
X0024822Y0291778D02*
X0025422Y0291778D01*
X0025422Y0292377D02*
X0024822Y0292377D01*
X0024822Y0292975D02*
X0002808Y0292975D01*
X0002800Y0292377D02*
X0012322Y0292377D01*
X0012365Y0291778D02*
X0002800Y0291778D01*
X0002800Y0291179D02*
X0012424Y0291179D01*
X0012520Y0290581D02*
X0002800Y0290581D01*
X0002800Y0289982D02*
X0012639Y0289982D01*
X0012794Y0289384D02*
X0002800Y0289384D01*
X0002800Y0288785D02*
X0012976Y0288785D01*
X0013194Y0288187D02*
X0002800Y0288187D01*
X0002800Y0287588D02*
X0013442Y0287588D01*
X0013734Y0286990D02*
X0002800Y0286990D01*
X0002800Y0286391D02*
X0014054Y0286391D01*
X0014435Y0285793D02*
X0002800Y0285793D01*
X0002800Y0285194D02*
X0014837Y0285194D01*
X0015328Y0284596D02*
X0002800Y0284596D01*
X0002800Y0283997D02*
X0015861Y0283997D01*
X0016460Y0283399D02*
X0002800Y0283399D01*
X0002800Y0282800D02*
X0017177Y0282800D01*
X0018002Y0282202D02*
X0002800Y0282202D01*
X0002800Y0281603D02*
X0018988Y0281603D01*
X0020243Y0281005D02*
X0002800Y0281005D01*
X0002800Y0280406D02*
X0022013Y0280406D01*
X0025422Y0292975D02*
X0048318Y0292975D01*
X0048318Y0292377D02*
X0037922Y0292377D01*
X0037880Y0291778D02*
X0048318Y0291778D01*
X0048318Y0291472D02*
X0050251Y0289539D01*
X0052985Y0289539D01*
X0054918Y0291472D01*
X0054918Y0294205D01*
X0052985Y0296139D01*
X0050251Y0296139D01*
X0048318Y0294205D01*
X0048318Y0291472D01*
X0048610Y0291179D02*
X0037821Y0291179D01*
X0037724Y0290581D02*
X0049209Y0290581D01*
X0049807Y0289982D02*
X0037605Y0289982D01*
X0037450Y0289384D02*
X0095416Y0289384D01*
X0094145Y0288785D02*
X0037268Y0288785D01*
X0037050Y0288187D02*
X0093547Y0288187D01*
X0092948Y0287588D02*
X0036802Y0287588D01*
X0036510Y0286990D02*
X0092401Y0286990D01*
X0092153Y0286391D02*
X0036190Y0286391D01*
X0035809Y0285793D02*
X0091905Y0285793D01*
X0091658Y0285194D02*
X0035407Y0285194D01*
X0034916Y0284596D02*
X0091446Y0284596D01*
X0091446Y0283997D02*
X0034383Y0283997D01*
X0033784Y0283399D02*
X0091446Y0283399D01*
X0091446Y0282800D02*
X0033067Y0282800D01*
X0032242Y0282202D02*
X0091446Y0282202D01*
X0091650Y0281603D02*
X0031256Y0281603D01*
X0030001Y0281005D02*
X0091898Y0281005D01*
X0100541Y0277414D02*
X0161617Y0277414D01*
X0161617Y0278012D02*
X0101786Y0278012D01*
X0102385Y0278611D02*
X0161617Y0278611D01*
X0161617Y0279209D02*
X0102983Y0279209D01*
X0103520Y0279808D02*
X0161617Y0279808D01*
X0161617Y0280406D02*
X0142404Y0280406D01*
X0142409Y0280407D02*
X0143613Y0280772D01*
X0144775Y0281254D01*
X0145884Y0281846D01*
X0146929Y0282545D01*
X0147902Y0283343D01*
X0148791Y0284232D01*
X0149589Y0285204D01*
X0150287Y0286250D01*
X0150880Y0287359D01*
X0151362Y0288521D01*
X0151727Y0289725D01*
X0151972Y0290958D01*
X0152095Y0292210D01*
X0152095Y0292539D01*
X0139595Y0292539D01*
X0139595Y0293139D01*
X0138995Y0293139D01*
X0138995Y0305639D01*
X0138666Y0305639D01*
X0137415Y0305515D01*
X0136181Y0305270D01*
X0134978Y0304905D01*
X0133816Y0304424D01*
X0132707Y0303831D01*
X0131661Y0303132D01*
X0130689Y0302334D01*
X0129800Y0301445D01*
X0129002Y0300473D01*
X0128303Y0299427D01*
X0127710Y0298318D01*
X0127229Y0297156D01*
X0126864Y0295952D01*
X0126619Y0294719D01*
X0126495Y0293467D01*
X0126495Y0293139D01*
X0138995Y0293139D01*
X0138995Y0292539D01*
X0126495Y0292539D01*
X0126495Y0292210D01*
X0126619Y0290958D01*
X0126864Y0289725D01*
X0127229Y0288521D01*
X0127710Y0287359D01*
X0128303Y0286250D01*
X0129002Y0285204D01*
X0129800Y0284232D01*
X0130689Y0283343D01*
X0131661Y0282545D01*
X0132707Y0281846D01*
X0133816Y0281254D01*
X0134978Y0280772D01*
X0136181Y0280407D01*
X0137415Y0280162D01*
X0138666Y0280039D01*
X0138995Y0280039D01*
X0138995Y0292539D01*
X0139595Y0292539D01*
X0139595Y0280039D01*
X0139924Y0280039D01*
X0141176Y0280162D01*
X0142409Y0280407D01*
X0144174Y0281005D02*
X0161617Y0281005D01*
X0161617Y0281603D02*
X0145429Y0281603D01*
X0146416Y0282202D02*
X0161617Y0282202D01*
X0161617Y0282800D02*
X0147240Y0282800D01*
X0147957Y0283399D02*
X0161617Y0283399D01*
X0161617Y0283997D02*
X0148556Y0283997D01*
X0149089Y0284596D02*
X0161617Y0284596D01*
X0161617Y0285194D02*
X0149580Y0285194D01*
X0149982Y0285793D02*
X0161617Y0285793D01*
X0161617Y0286391D02*
X0150363Y0286391D01*
X0150683Y0286990D02*
X0161617Y0286990D01*
X0161617Y0287588D02*
X0150975Y0287588D01*
X0151223Y0288187D02*
X0161617Y0288187D01*
X0161617Y0288785D02*
X0151442Y0288785D01*
X0151623Y0289384D02*
X0161617Y0289384D01*
X0161617Y0289982D02*
X0151778Y0289982D01*
X0151897Y0290581D02*
X0161605Y0290581D01*
X0161614Y0291179D02*
X0151994Y0291179D01*
X0152053Y0291778D02*
X0161605Y0291778D01*
X0161595Y0292377D02*
X0152095Y0292377D01*
X0152095Y0293139D02*
X0152095Y0293467D01*
X0151972Y0294719D01*
X0151727Y0295952D01*
X0151362Y0297156D01*
X0150880Y0298318D01*
X0150287Y0299427D01*
X0149589Y0300473D01*
X0148791Y0301445D01*
X0147902Y0302334D01*
X0146929Y0303132D01*
X0145884Y0303831D01*
X0144775Y0304424D01*
X0143613Y0304905D01*
X0142409Y0305270D01*
X0141176Y0305515D01*
X0139924Y0305639D01*
X0139595Y0305639D01*
X0139595Y0293139D01*
X0152095Y0293139D01*
X0152085Y0293574D02*
X0161569Y0293574D01*
X0161585Y0292975D02*
X0139595Y0292975D01*
X0139595Y0292377D02*
X0138995Y0292377D01*
X0138995Y0292975D02*
X0064918Y0292975D01*
X0064918Y0292377D02*
X0126495Y0292377D01*
X0126538Y0291778D02*
X0064918Y0291778D01*
X0064918Y0291472D02*
X0062985Y0289539D01*
X0060251Y0289539D01*
X0058318Y0291472D01*
X0058318Y0294205D01*
X0060251Y0296139D01*
X0062985Y0296139D01*
X0064918Y0294205D01*
X0064918Y0291472D01*
X0064626Y0291179D02*
X0126597Y0291179D01*
X0126694Y0290581D02*
X0064027Y0290581D01*
X0063429Y0289982D02*
X0126813Y0289982D01*
X0126967Y0289384D02*
X0100498Y0289384D01*
X0101768Y0288785D02*
X0127149Y0288785D01*
X0127367Y0288187D02*
X0102366Y0288187D01*
X0102965Y0287588D02*
X0127615Y0287588D01*
X0127908Y0286990D02*
X0103512Y0286990D01*
X0103760Y0286391D02*
X0128228Y0286391D01*
X0128609Y0285793D02*
X0104008Y0285793D01*
X0104256Y0285194D02*
X0129010Y0285194D01*
X0129501Y0284596D02*
X0104467Y0284596D01*
X0104467Y0283997D02*
X0130035Y0283997D01*
X0130633Y0283399D02*
X0104467Y0283399D01*
X0104467Y0282800D02*
X0131350Y0282800D01*
X0132175Y0282202D02*
X0104467Y0282202D01*
X0104263Y0281603D02*
X0133162Y0281603D01*
X0134417Y0281005D02*
X0104015Y0281005D01*
X0103768Y0280406D02*
X0136186Y0280406D01*
X0138995Y0280406D02*
X0139595Y0280406D01*
X0139595Y0281005D02*
X0138995Y0281005D01*
X0138995Y0281603D02*
X0139595Y0281603D01*
X0139595Y0282202D02*
X0138995Y0282202D01*
X0138995Y0282800D02*
X0139595Y0282800D01*
X0139595Y0283399D02*
X0138995Y0283399D01*
X0138995Y0283997D02*
X0139595Y0283997D01*
X0139595Y0284596D02*
X0138995Y0284596D01*
X0138995Y0285194D02*
X0139595Y0285194D01*
X0139595Y0285793D02*
X0138995Y0285793D01*
X0138995Y0286391D02*
X0139595Y0286391D01*
X0139595Y0286990D02*
X0138995Y0286990D01*
X0138995Y0287588D02*
X0139595Y0287588D01*
X0139595Y0288187D02*
X0138995Y0288187D01*
X0138995Y0288785D02*
X0139595Y0288785D01*
X0139595Y0289384D02*
X0138995Y0289384D01*
X0138995Y0289982D02*
X0139595Y0289982D01*
X0139595Y0290581D02*
X0138995Y0290581D01*
X0138995Y0291179D02*
X0139595Y0291179D01*
X0139595Y0291778D02*
X0138995Y0291778D01*
X0138995Y0293574D02*
X0139595Y0293574D01*
X0139595Y0294172D02*
X0138995Y0294172D01*
X0138995Y0294771D02*
X0139595Y0294771D01*
X0139595Y0295369D02*
X0138995Y0295369D01*
X0138995Y0295968D02*
X0139595Y0295968D01*
X0139595Y0296566D02*
X0138995Y0296566D01*
X0138995Y0297165D02*
X0139595Y0297165D01*
X0139595Y0297763D02*
X0138995Y0297763D01*
X0138995Y0298362D02*
X0139595Y0298362D01*
X0139595Y0298960D02*
X0138995Y0298960D01*
X0138995Y0299559D02*
X0139595Y0299559D01*
X0139595Y0300157D02*
X0138995Y0300157D01*
X0138995Y0300756D02*
X0139595Y0300756D01*
X0139595Y0301354D02*
X0138995Y0301354D01*
X0138995Y0301953D02*
X0139595Y0301953D01*
X0139595Y0302551D02*
X0138995Y0302551D01*
X0138995Y0303150D02*
X0139595Y0303150D01*
X0139595Y0303748D02*
X0138995Y0303748D01*
X0138995Y0304347D02*
X0139595Y0304347D01*
X0139595Y0304945D02*
X0138995Y0304945D01*
X0138995Y0305544D02*
X0139595Y0305544D01*
X0140887Y0305544D02*
X0157016Y0305544D01*
X0156577Y0306142D02*
X0007360Y0306142D01*
X0006883Y0305544D02*
X0023530Y0305544D01*
X0024822Y0305544D02*
X0025422Y0305544D01*
X0025422Y0305639D02*
X0025751Y0305639D01*
X0027002Y0305515D01*
X0028236Y0305270D01*
X0029439Y0304905D01*
X0030601Y0304424D01*
X0031710Y0303831D01*
X0032756Y0303132D01*
X0033728Y0302334D01*
X0034618Y0301445D01*
X0035415Y0300473D01*
X0036114Y0299427D01*
X0036707Y0298318D01*
X0037188Y0297156D01*
X0037553Y0295952D01*
X0037799Y0294719D01*
X0037922Y0293467D01*
X0037922Y0293139D01*
X0025422Y0293139D01*
X0025422Y0305639D01*
X0025422Y0304945D02*
X0024822Y0304945D01*
X0024822Y0304347D02*
X0025422Y0304347D01*
X0025422Y0303748D02*
X0024822Y0303748D01*
X0024822Y0303150D02*
X0025422Y0303150D01*
X0025422Y0302551D02*
X0024822Y0302551D01*
X0024822Y0301953D02*
X0025422Y0301953D01*
X0025422Y0301354D02*
X0024822Y0301354D01*
X0024822Y0300756D02*
X0025422Y0300756D01*
X0025422Y0300157D02*
X0024822Y0300157D01*
X0024822Y0299559D02*
X0025422Y0299559D01*
X0025422Y0298960D02*
X0024822Y0298960D01*
X0024822Y0298362D02*
X0025422Y0298362D01*
X0025422Y0297763D02*
X0024822Y0297763D01*
X0024822Y0297165D02*
X0025422Y0297165D01*
X0025422Y0296566D02*
X0024822Y0296566D01*
X0024822Y0295968D02*
X0025422Y0295968D01*
X0025422Y0295369D02*
X0024822Y0295369D01*
X0024822Y0294771D02*
X0025422Y0294771D01*
X0025422Y0294172D02*
X0024822Y0294172D01*
X0024822Y0293574D02*
X0025422Y0293574D01*
X0030745Y0304347D02*
X0133672Y0304347D01*
X0132583Y0303748D02*
X0031834Y0303748D01*
X0032730Y0303150D02*
X0131688Y0303150D01*
X0130953Y0302551D02*
X0033464Y0302551D01*
X0034110Y0301953D02*
X0130307Y0301953D01*
X0129725Y0301354D02*
X0034692Y0301354D01*
X0035183Y0300756D02*
X0129234Y0300756D01*
X0128791Y0300157D02*
X0035626Y0300157D01*
X0036026Y0299559D02*
X0128391Y0299559D01*
X0128054Y0298960D02*
X0036364Y0298960D01*
X0036684Y0298362D02*
X0127734Y0298362D01*
X0127480Y0297763D02*
X0036937Y0297763D01*
X0037185Y0297165D02*
X0127233Y0297165D01*
X0127050Y0296566D02*
X0037367Y0296566D01*
X0037549Y0295968D02*
X0050080Y0295968D01*
X0049482Y0295369D02*
X0037669Y0295369D01*
X0037789Y0294771D02*
X0048883Y0294771D01*
X0048318Y0294172D02*
X0037853Y0294172D01*
X0037912Y0293574D02*
X0048318Y0293574D01*
X0053156Y0295968D02*
X0060080Y0295968D01*
X0059482Y0295369D02*
X0053755Y0295369D01*
X0054353Y0294771D02*
X0058883Y0294771D01*
X0058318Y0294172D02*
X0054918Y0294172D01*
X0054918Y0293574D02*
X0058318Y0293574D01*
X0058318Y0292975D02*
X0054918Y0292975D01*
X0054918Y0292377D02*
X0058318Y0292377D01*
X0058318Y0291778D02*
X0054918Y0291778D01*
X0054626Y0291179D02*
X0058610Y0291179D01*
X0059209Y0290581D02*
X0054027Y0290581D01*
X0053429Y0289982D02*
X0059807Y0289982D01*
X0063156Y0295968D02*
X0126868Y0295968D01*
X0126748Y0295369D02*
X0063755Y0295369D01*
X0064353Y0294771D02*
X0126629Y0294771D01*
X0126565Y0294172D02*
X0064918Y0294172D01*
X0064918Y0293574D02*
X0126506Y0293574D01*
X0135111Y0304945D02*
X0029306Y0304945D01*
X0026714Y0305544D02*
X0137704Y0305544D01*
X0139676Y0315120D02*
X0024397Y0315120D01*
X0020437Y0314521D02*
X0143285Y0314521D01*
X0145496Y0313923D02*
X0017815Y0313923D01*
X0016538Y0313324D02*
X0147305Y0313324D01*
X0148431Y0312726D02*
X0015295Y0312726D01*
X0014052Y0312127D02*
X0149556Y0312127D01*
X0150681Y0311529D02*
X0012982Y0311529D01*
X0012232Y0310930D02*
X0151689Y0310930D01*
X0152381Y0310332D02*
X0011481Y0310332D01*
X0010731Y0309733D02*
X0153073Y0309733D01*
X0153765Y0309135D02*
X0009980Y0309135D01*
X0009269Y0308536D02*
X0154456Y0308536D01*
X0155148Y0307938D02*
X0008792Y0307938D01*
X0008315Y0307339D02*
X0155698Y0307339D01*
X0156137Y0306741D02*
X0007837Y0306741D01*
X0006405Y0304945D02*
X0020938Y0304945D01*
X0019499Y0304347D02*
X0006044Y0304347D01*
X0005756Y0303748D02*
X0018410Y0303748D01*
X0017514Y0303150D02*
X0005468Y0303150D01*
X0005180Y0302551D02*
X0016780Y0302551D01*
X0016134Y0301953D02*
X0004891Y0301953D01*
X0004603Y0301354D02*
X0015552Y0301354D01*
X0015061Y0300756D02*
X0004315Y0300756D01*
X0004040Y0300157D02*
X0014618Y0300157D01*
X0014218Y0299559D02*
X0003904Y0299559D01*
X0003767Y0298960D02*
X0013880Y0298960D01*
X0013560Y0298362D02*
X0003630Y0298362D01*
X0003494Y0297763D02*
X0013307Y0297763D01*
X0013059Y0297165D02*
X0003357Y0297165D01*
X0003221Y0296566D02*
X0012877Y0296566D01*
X0012695Y0295968D02*
X0003084Y0295968D01*
X0002947Y0295369D02*
X0012575Y0295369D01*
X0012456Y0294771D02*
X0002908Y0294771D01*
X0002875Y0294172D02*
X0012391Y0294172D01*
X0012333Y0293574D02*
X0002841Y0293574D01*
X0041322Y0265443D02*
X0092457Y0265443D01*
X0092198Y0264845D02*
X0042369Y0264845D01*
X0042967Y0264246D02*
X0091950Y0264246D01*
X0091702Y0263648D02*
X0043566Y0263648D01*
X0043875Y0263049D02*
X0091454Y0263049D01*
X0091446Y0262451D02*
X0044123Y0262451D01*
X0044370Y0261852D02*
X0091446Y0261852D01*
X0091446Y0261254D02*
X0044526Y0261254D01*
X0044526Y0260655D02*
X0091446Y0260655D01*
X0091606Y0260057D02*
X0044526Y0260057D01*
X0044526Y0259458D02*
X0091854Y0259458D01*
X0092101Y0258860D02*
X0044369Y0258860D01*
X0044121Y0258261D02*
X0092349Y0258261D01*
X0092823Y0257663D02*
X0043873Y0257663D01*
X0065938Y0255867D02*
X0095113Y0255867D01*
X0080013Y0247488D02*
X0071139Y0247488D01*
X0071072Y0246890D02*
X0079414Y0246890D01*
X0078815Y0246291D02*
X0070994Y0246291D01*
X0070836Y0245693D02*
X0078217Y0245693D01*
X0077618Y0245094D02*
X0070663Y0245094D01*
X0070415Y0244496D02*
X0077020Y0244496D01*
X0076421Y0243897D02*
X0070127Y0243897D01*
X0069782Y0243299D02*
X0075823Y0243299D01*
X0075224Y0242700D02*
X0069349Y0242700D01*
X0068852Y0242102D02*
X0074626Y0242102D01*
X0074027Y0241503D02*
X0068253Y0241503D01*
X0067485Y0240905D02*
X0073429Y0240905D01*
X0072830Y0240306D02*
X0066502Y0240306D01*
X0065023Y0239708D02*
X0072232Y0239708D01*
X0035423Y0190031D02*
X0002800Y0190031D01*
X0002800Y0189433D02*
X0034825Y0189433D01*
X0034226Y0188834D02*
X0002800Y0188834D01*
X0002800Y0188236D02*
X0033924Y0188236D01*
X0033676Y0187637D02*
X0002800Y0187637D01*
X0002800Y0187039D02*
X0033428Y0187039D01*
X0033277Y0186440D02*
X0002800Y0186440D01*
X0002800Y0185841D02*
X0033277Y0185841D01*
X0033277Y0185243D02*
X0002800Y0185243D01*
X0002800Y0184644D02*
X0033277Y0184644D01*
X0033439Y0184046D02*
X0002800Y0184046D01*
X0002800Y0183447D02*
X0033687Y0183447D01*
X0033935Y0182849D02*
X0002800Y0182849D01*
X0002800Y0182250D02*
X0034252Y0182250D01*
X0034851Y0181652D02*
X0002800Y0181652D01*
X0002800Y0181053D02*
X0035449Y0181053D01*
X0036517Y0180455D02*
X0002800Y0180455D01*
X0002800Y0160704D02*
X0124050Y0160704D01*
X0124298Y0161303D02*
X0100615Y0161303D01*
X0101817Y0161901D02*
X0124545Y0161901D01*
X0124804Y0162500D02*
X0102415Y0162500D01*
X0103014Y0163098D02*
X0125403Y0163098D01*
X0126001Y0163697D02*
X0103532Y0163697D01*
X0103780Y0164295D02*
X0126600Y0164295D01*
X0127903Y0164894D02*
X0104028Y0164894D01*
X0108654Y0160105D02*
X0123802Y0160105D01*
X0123750Y0159507D02*
X0109252Y0159507D01*
X0109851Y0158908D02*
X0123750Y0158908D01*
X0123750Y0158310D02*
X0110449Y0158310D01*
X0111048Y0157711D02*
X0123750Y0157711D01*
X0123816Y0157113D02*
X0111168Y0157113D01*
X0111168Y0156514D02*
X0124064Y0156514D01*
X0124311Y0155916D02*
X0111168Y0155916D01*
X0111168Y0155317D02*
X0124559Y0155317D01*
X0124838Y0154719D02*
X0111168Y0154719D01*
X0111168Y0154120D02*
X0125436Y0154120D01*
X0126035Y0153522D02*
X0111168Y0153522D01*
X0111168Y0152923D02*
X0126633Y0152923D01*
X0127984Y0152325D02*
X0111168Y0152325D01*
X0037589Y0063147D02*
X0002800Y0063147D01*
X0002800Y0062548D02*
X0036145Y0062548D01*
X0035295Y0061950D02*
X0002800Y0061950D01*
X0002800Y0061351D02*
X0034696Y0061351D01*
X0034119Y0060753D02*
X0002800Y0060753D01*
X0002800Y0060154D02*
X0033871Y0060154D01*
X0033623Y0059556D02*
X0002800Y0059556D01*
X0002800Y0058957D02*
X0033375Y0058957D01*
X0033277Y0058359D02*
X0002800Y0058359D01*
X0002800Y0057760D02*
X0033277Y0057760D01*
X0033277Y0057162D02*
X0002800Y0057162D01*
X0002800Y0056563D02*
X0033277Y0056563D01*
X0033492Y0055965D02*
X0002800Y0055965D01*
X0002800Y0055366D02*
X0033740Y0055366D01*
X0033988Y0054768D02*
X0002800Y0054768D01*
X0002800Y0054169D02*
X0034381Y0054169D01*
X0034979Y0053570D02*
X0002800Y0053570D01*
X0002800Y0052972D02*
X0035578Y0052972D01*
X0152026Y0294172D02*
X0161458Y0294172D01*
X0161346Y0294771D02*
X0151962Y0294771D01*
X0151843Y0295369D02*
X0161235Y0295369D01*
X0161123Y0295968D02*
X0151722Y0295968D01*
X0151541Y0296566D02*
X0161011Y0296566D01*
X0160900Y0297165D02*
X0151358Y0297165D01*
X0151110Y0297763D02*
X0160788Y0297763D01*
X0160676Y0298362D02*
X0150857Y0298362D01*
X0150537Y0298960D02*
X0160494Y0298960D01*
X0160234Y0299559D02*
X0150199Y0299559D01*
X0149800Y0300157D02*
X0159975Y0300157D01*
X0159716Y0300756D02*
X0149357Y0300756D01*
X0148865Y0301354D02*
X0159456Y0301354D01*
X0159197Y0301953D02*
X0148283Y0301953D01*
X0147637Y0302551D02*
X0158938Y0302551D01*
X0158679Y0303150D02*
X0146903Y0303150D01*
X0146007Y0303748D02*
X0158334Y0303748D01*
X0157895Y0304347D02*
X0144918Y0304347D01*
X0143480Y0304945D02*
X0157455Y0304945D01*
D20*
X0137327Y0249531D03*
X0149138Y0216067D03*
X0101894Y0306618D03*
X0086146Y0286933D03*
X0072366Y0296776D03*
X0066461Y0282996D03*
X0086146Y0257406D03*
X0092051Y0204256D03*
X0099925Y0115673D03*
X0082209Y0080240D03*
X0070398Y0115673D03*
X0056618Y0054650D03*
X0058587Y0025122D03*
X0097957Y0009374D03*
X0111736Y0064492D03*
X0025122Y0101894D03*
X0017248Y0155043D03*
X0025122Y0200319D03*
X0013311Y0241657D03*
M02*
